<svg id="Layer_1" data-name="Layer 1" xmlns="http://www.w3.org/2000/svg" viewBox="0 0 272.06 46.71"><defs><style>.cls-1{fill:#fff;}</style></defs><title>imrandesigns_logo_small</title><rect class="cls-1" y="0.02" width="11.5" height="37.11"/><polygon class="cls-1" points="13.37 0.02 28.46 0.02 34.29 22.61 40.07 0.02 55.12 0.02 55.12 37.13 45.72 37.13 45.72 8.82 38.48 37.13 29.98 37.13 22.77 8.82 22.77 37.13 13.37 37.13 13.37 0.02 13.37 0.02"/><polygon class="cls-1" points="108.91 0.02 96.4 0.02 82.45 37.13 94.15 37.13 102.51 9.64 110.85 37.13 122.85 37.13 108.91 0.02"/><polygon class="cls-1" points="93.55 37.13 93.51 37.02 93.46 37.13 93.55 37.13"/><path class="cls-1" d="M91.83,26.84A10.74,10.74,0,0,0,90,24.9a11.22,11.22,0,0,0-3-1.37,14.29,14.29,0,0,0,4-1.48,10,10,0,0,0,4.94-9,10.31,10.31,0,0,0-1.72-6,8.51,8.51,0,0,0-4.52-3.38,27.48,27.48,0,0,0-8.12-.9H62.53V39.88H74V24.81h1a4.79,4.79,0,0,1,2.8.86,8.42,8.42,0,0,1,2.07,2.87L86,39.88h1.15L92,27A.52.52,0,0,1,91.83,26.84Zm-8.1-10.68a3.1,3.1,0,0,1-1.85,1.17,17.92,17.92,0,0,1-3,.51H74V10.29h5c2.1,0,3.51.33,4.28,1A3.45,3.45,0,0,1,84.46,14,3.4,3.4,0,0,1,83.73,16.16Z" transform="translate(-5.42 -2.77)"/><path class="cls-1" d="M144.23,23.33l-14-20.54h-10.7V14.86l9.42,25h1.37V19.51l13.9,20.39h10.06A124,124,0,0,0,155,27a122,122,0,0,0-2.4-24.25h-8.34V23.33Z" transform="translate(-5.42 -2.77)"/><path class="cls-1" d="M166.17,41.61a20.87,20.87,0,0,1-7-.72,12,12,0,0,1-4.49-2.41A9,9,0,0,1,152.23,35a12,12,0,0,1-.81-3.72,13.94,13.94,0,0,1,.23-3.37,7.39,7.39,0,0,1,.81-2.33,7.14,7.14,0,0,1,1.35-1.3,8.82,8.82,0,0,1,1.68-.9,7.46,7.46,0,0,1,2.33-.48,1.17,1.17,0,0,1,.4.11c.16.07.21.23.11.47-.28.62-.65,1.59-1.09,2.91a16.12,16.12,0,0,0-.8,4.24,10.14,10.14,0,0,0,.71,4.37,5.8,5.8,0,0,0,3.35,3.17,6.18,6.18,0,0,0,1.15.35,12.73,12.73,0,0,0,2,.28,13.79,13.79,0,0,0,2.55-.12,10,10,0,0,0,2.9-.91l.64-.33a9,9,0,0,0,.79-.47c.67-.43,1.42-1,2.25-1.63a20.73,20.73,0,0,0,2.45-2.27,26.57,26.57,0,0,0,2.35-2.94,18.85,18.85,0,0,0,2-3.74c.13-.48.3-1,.46-1.44a10.11,10.11,0,0,0,.39-1.51,22,22,0,0,0,.54-6.74,13.5,13.5,0,0,0-1.17-4.47,8.14,8.14,0,0,0-2-2.67,10.67,10.67,0,0,0-2-1.35A3.93,3.93,0,0,0,174.62,8l-.75,0c-1.73.06-3.4.14-5.05.25s-3.12.24-4.44.38a17.55,17.55,0,0,0-3.19.59Q160,9.53,160,10a2.51,2.51,0,0,1-.8-.93,4.91,4.91,0,0,1-.47-1.18,3.92,3.92,0,0,1,0-1.62,3.87,3.87,0,0,1,.57-1.44,2.9,2.9,0,0,1,1.15-1,5.89,5.89,0,0,1,2.22-.59l4,0c2,0,4.22,0,6.56.07l.07-.07a12.16,12.16,0,0,0,1.22.1,12.46,12.46,0,0,1,1.51.17,16.26,16.26,0,0,1,3.13,1.05,10.17,10.17,0,0,1,3.41,2.64,4.42,4.42,0,0,1,.43.57,1.47,1.47,0,0,1,.36.35,4.17,4.17,0,0,1,.29.51,16.39,16.39,0,0,1,1.45,2.9,20.1,20.1,0,0,1,1,3.76,2.81,2.81,0,0,0,0,.51c0,.14.06.31.11.51a20.35,20.35,0,0,1-.32,7,24.2,24.2,0,0,1-2.36,6.29A25,25,0,0,1,179.67,35a26.35,26.35,0,0,1-4.77,4c-.52.24-1,.48-1.5.72s-1,.48-1.5.72a14.81,14.81,0,0,1-3.19.88c-1,.14-1.85.27-2.46.37h-.07Zm-5.4-5.49a3.27,3.27,0,0,1-.77-2.46,16.76,16.76,0,0,1,.62-3.95,47.17,47.17,0,0,1,1.66-5c.7-1.8,1.47-3.6,2.3-5.42s1.69-3.61,2.59-5.38,1.75-3.38,2.55-4.82c.19.09.55.23,1.07.42a7.07,7.07,0,0,1,1.15.5,2.52,2.52,0,0,1,.58.35,2.56,2.56,0,0,1,.61.71,2.45,2.45,0,0,1,.29,1.07,2.73,2.73,0,0,1-.39,1.44c-.33.67-.65,1.3-1,1.91s-.58,1.18-.81,1.76l-.22.43a2.51,2.51,0,0,0-.24.47l-.24.6c-.23.48-.49,1-.74,1.62s-.51,1.17-.74,1.69v.22q-1.56,3.67-2.47,6.42c-.61,1.84-1.08,3.4-1.41,4.71a29.86,29.86,0,0,0-.84,4,11.48,11.48,0,0,1-1.69-.35,7.94,7.94,0,0,1-1.11-.42A4.13,4.13,0,0,1,160.77,36.11Z" transform="translate(-5.42 -2.77)"/><path class="cls-1" d="M191.51,34.46a2.7,2.7,0,0,0,1.75-.19,8.19,8.19,0,0,0,1.86-1.19A18.06,18.06,0,0,0,197,31.25c.61-.7,1.21-1.4,1.78-2.12a58.83,58.83,0,0,0,4-6l1.8.06c-.19.43-.42.91-.7,1.44-.47.87-1.24,2.13-2.27,3.81-.23.38-.48.74-.71,1.07s-.48.7-.71,1.07l-.14.25c-.05.07-.12.18-.22.33a2.26,2.26,0,0,1-.35.43.67.67,0,0,0-.14.22,1.14,1.14,0,0,1-.18.25l-.18.18a18.85,18.85,0,0,1-1.67,2,9.24,9.24,0,0,1-3,2.13l-.71.36a.35.35,0,0,0-.22.07.49.49,0,0,0-.29.07l-.71.11a6.21,6.21,0,0,1-.71,0c-.23,0-.51,0-.79,0a6.55,6.55,0,0,1-.8-.11,4.89,4.89,0,0,1-3.27-2.06A5.8,5.8,0,0,1,186,31.5a11.56,11.56,0,0,1,.77-3.69,13.48,13.48,0,0,1,1.71-3.23,24,24,0,0,1,2.2-2.85A12.94,12.94,0,0,1,192.77,20a6.24,6.24,0,0,1,1-.58,3.15,3.15,0,0,1,1-.14,1.88,1.88,0,0,1,1.22.57q.58.57,1.12,1.06c.36.33.66.61.9.86l.8.79a1,1,0,0,1,.22.42,2.67,2.67,0,0,1,0,.68,2.88,2.88,0,0,1-.39,1,12.66,12.66,0,0,1-1.71,2.8,2.22,2.22,0,0,1-.42.58,13.51,13.51,0,0,1-1.64,1.52A8.61,8.61,0,0,1,192.16,31a15.82,15.82,0,0,1-1.9.43,2,2,0,0,0,.08,2.15A1.48,1.48,0,0,0,191.51,34.46Zm-.6-4.45a1.65,1.65,0,0,1-.28.51,8,8,0,0,0,2.89-2.06A14.81,14.81,0,0,0,195,26.55a9.42,9.42,0,0,0,.79-1.26,2.7,2.7,0,0,0,.35-1.18c-.71.68-1.38,1.35-2,2s-1.09,1.2-1.72,1.87A16.54,16.54,0,0,0,190.91,30Z" transform="translate(-5.42 -2.77)"/><path class="cls-1" d="M218,24.49a8,8,0,0,0-.53.8l-.53.8-1.36.23c-.57.1-1.16.21-1.75.34s-1.16.24-1.68.37-.93.21-1.22.25c-.05.42-.09.88-.13,1.33s-.12.89-.21,1.33c-.05.14-.17.63-.39,1.47a14.27,14.27,0,0,1-1.05,2.73,10.69,10.69,0,0,1-2,2.7A4.8,4.8,0,0,1,204,38.2a4.16,4.16,0,0,1-2.29-.32,4.27,4.27,0,0,1-1.62-1.25,3.73,3.73,0,0,1-.76-1.82,4.45,4.45,0,0,1,.28-2.19.21.21,0,0,0,.07-.18.45.45,0,0,1,.14-.25s0-.07,0-.07,0,0,0-.07l.14-.29.07-.07a12.57,12.57,0,0,1,.79-1,9.43,9.43,0,0,1,1.28-1.27,14.59,14.59,0,0,1,1.92-1.27l2-1.05a15.36,15.36,0,0,0-.13-2.9q-.19-1.11-.25-1.4c-.8,1.1-1.62,2.12-2.42,3.05s-1.54,1.82-2.21,2.63c-.71,1-1.28,1.68-1.71,2.16-.23.29-.45.58-.64.87l-.52-1.72c.57-.77,1.17-1.64,1.78-2.59l1.78-2.8c.57-.91,1.06-1.75,1.49-2.52s.76-1.35,1-1.73c.09-.19.2-.4.33-.6s.23-.41.33-.6c-.1-.29-.14-.44-.11-.47s0-.18,0-.47a1.34,1.34,0,0,1,.17-1.07,1.76,1.76,0,0,1,1.11-.8,5.89,5.89,0,0,1,2-.3c.23,0,.53,0,.89,0s.7,0,1,0a.78.78,0,0,1,.22.29,1.69,1.69,0,0,0-.22.6,2.42,2.42,0,0,0,0,.89c0,.19,0,.16,0-.07s-.08-.26,0-.07l.3,1.44V19c.2,1.09.38,2.18.55,3.22a16.3,16.3,0,0,1,.2,3.3c.67-.14,1.41-.28,2.22-.41l2.29-.34Zm-13,9.74a18.76,18.76,0,0,0,.67-2.51c.16-.86.29-1.7.38-2.51a13.15,13.15,0,0,0-2.1,1.45,9.51,9.51,0,0,0-1.1,1.07,1.47,1.47,0,0,0-.24.33,1.47,1.47,0,0,1-.24.33q-.35.78-.57,1.44a.35.35,0,0,0-.07.22v.58a.35.35,0,0,0,.07.22V35a1.21,1.21,0,0,0,1,1,1.57,1.57,0,0,0,.6,0,1.62,1.62,0,0,0,.89-.54,4.37,4.37,0,0,1,.35-.58A3.93,3.93,0,0,0,205,34.23Z" transform="translate(-5.42 -2.77)"/><path class="cls-1" d="M211.65,34.35a1.86,1.86,0,0,1-.18-.57,2.53,2.53,0,0,0-.11-.51,33.64,33.64,0,0,1,.55-4.62A19.17,19.17,0,0,1,214,22.87l.57-1,.57-1a4,4,0,0,1,.71-1.07.75.75,0,0,1,.42-.33,1.89,1.89,0,0,1,.36,0,.17.17,0,0,0,.14.07,16,16,0,0,1,1.76,1.32c.65.54,1.14,1,1.47,1.32a.64.64,0,0,1,.22.42.36.36,0,0,1-.07.36c-.14.29-.38.73-.71,1.33s-.68,1.26-1,2-.7,1.55-1.06,2.44a16.89,16.89,0,0,0-.81,2.62c-.05.23.17.14.64-.29S218.29,30,219,29.14s1.58-1.78,2.53-2.88,1.85-2.19,2.71-3.23l1.8.06c-1.09,1.54-2.18,3.09-3.28,4.68l-3.06,4.32c-1.09,1.54-2.09,2.93-3,4.17l-.07.07c-.05,0-.07,0-.07.07l-.14.14h-.07a.74.74,0,0,1-.47.11,1.54,1.54,0,0,0-.33,0c-.33-.09-.73-.23-1.18-.39L213,35.68a.22.22,0,0,0-.14-.07A2.19,2.19,0,0,1,211.65,34.35ZM219.2,12.8a1.15,1.15,0,0,1,.46-.65,2.15,2.15,0,0,1,.68-.29,2.57,2.57,0,0,1,.79,0,5.59,5.59,0,0,1,1.15.42,9.42,9.42,0,0,1,1,.53,8.85,8.85,0,0,1,1.11.82,2.27,2.27,0,0,1,.65,1.5,1,1,0,0,1-.22.65,17.08,17.08,0,0,1-1.52,1.87A8.6,8.6,0,0,1,221.69,19a4.23,4.23,0,0,1-1.68.65,2,2,0,0,1-1.54-.46,1.67,1.67,0,0,1-.47-1.39,11.25,11.25,0,0,1,.28-2,16.9,16.9,0,0,1,.56-2A9.15,9.15,0,0,1,219.2,12.8Z" transform="translate(-5.42 -2.77)"/><path class="cls-1" d="M234.78,30.92c1-.87,1.88-1.74,2.78-2.59s1.66-1.63,2.56-2.56a28.58,28.58,0,0,0,2.42-2.85l1.8.06L241,27.52c-1,1.29-2,2.7-3.17,4.21s-2.27,2.89-3.31,4.14a1.3,1.3,0,0,1-.71.4.89.89,0,0,1-.51,0,1.09,1.09,0,0,1-.36-.14,2.82,2.82,0,0,1-.64.76,3.8,3.8,0,0,0-.92,1.54h.36a8.46,8.46,0,0,1,1.36.13,8.1,8.1,0,0,1,1.69.46,4.83,4.83,0,0,1,1.47.88,2,2,0,0,1,.65,1.57,3.33,3.33,0,0,1-.13,1,6.92,6.92,0,0,1-.28.69,3.76,3.76,0,0,1-.42.51l-.14.14a2,2,0,0,1-.5.36.64.64,0,0,1-.22.07,3.94,3.94,0,0,0-1.8-1.25,12.65,12.65,0,0,0-2.8-.67,2.23,2.23,0,0,1-.42,0,2.23,2.23,0,0,0-.42,0,6.16,6.16,0,0,1-.33.58,6.16,6.16,0,0,0-.33.58c-.24.38-.53.84-.88,1.36a10.41,10.41,0,0,1-1.32,1.58,16,16,0,0,1-1.75,1.52A8.13,8.13,0,0,1,223,48.95a9.12,9.12,0,0,1-3.37.52A4.59,4.59,0,0,1,216,47.85a4.35,4.35,0,0,1-1-3.47,6.2,6.2,0,0,1,2.2-3.63,10.26,10.26,0,0,1,5.8-2.18,7.44,7.44,0,0,0,.86-.07,5.24,5.24,0,0,1,1-.07c.36,0,.78,0,1.26-.08h.29q.85-2.66,1.66-4.53a18.1,18.1,0,0,0,.81-2c-.38.62-.86,1.36-1.43,2.2a27,27,0,0,1-1.71,2.27,1.85,1.85,0,0,1-1.11.43,1.63,1.63,0,0,1-.75-.13l-3.6-1.27a1,1,0,0,1-.69-.75,5.55,5.55,0,0,1-.11-.68,30,30,0,0,1,.45-3.22,15.59,15.59,0,0,1,1.48-4.24,16,16,0,0,1,3.06-4.1,12,12,0,0,1,5.26-2.89c.1-.1.41-.13.93-.07l4.8.69a.55.55,0,0,0,.22.14.23.23,0,0,1,.14.22c0,.14-.12.26-.35.36-.67.29-1.5.71-2.5,1.23a14.78,14.78,0,0,0-3,2.21A17.67,17.67,0,0,0,227,27.7,16.64,16.64,0,0,0,225,32.77v.07c0,.14.07.16.22.07l.71-.65c.42-.39,1-.91,1.57-1.58s1.29-1.47,2-2.41a26.4,26.4,0,0,0,2.09-3.13l.35-.36a.86.86,0,0,1,.86-.14l4.16.91q-.63,1-1.14,1.94a10.89,10.89,0,0,0-.74,1.76A6.57,6.57,0,0,0,234.78,30.92Zm-12,14.61A11.51,11.51,0,0,0,223.92,44c.35-.58.69-1.2,1-1.87a1.15,1.15,0,0,0-.43-.07h-.36q-.58,0-1.11,0c-.36,0-.66,0-.89,0a.06.06,0,0,0-.07.07,11,11,0,0,0-2.83.7,2.9,2.9,0,0,0-1.81,1.83,2.31,2.31,0,0,0-.06,1.51,1.7,1.7,0,0,0,.8,1,2.2,2.2,0,0,0,1.36.24,4.81,4.81,0,0,0,1.64-.52l.29-.14a1.34,1.34,0,0,0,.29-.22A5.76,5.76,0,0,0,222.75,45.54Z" transform="translate(-5.42 -2.77)"/><path class="cls-1" d="M263.69,22.88l-3.63,4.54c-1,1.29-2.18,2.71-3.37,4.25s-2.34,2.93-3.38,4.17v.07h-.07l-.07.07c-.05.06-.08.07-.11.07s-.05,0-.11.07h-.07a.56.56,0,0,1-.42.11,1.89,1.89,0,0,0-.36,0c-.33-.09-.73-.23-1.18-.39l-1.4-.53a.26.26,0,0,0-.14-.07,2,2,0,0,1-1-1.28,1.27,1.27,0,0,1-.14-.57v-.51c0-.67.12-1.38.21-2.15a14.83,14.83,0,0,1,.52-2.44,15.37,15.37,0,0,1,1.14-2.73,20.54,20.54,0,0,1,2-3.09,15.15,15.15,0,0,0-3,2.74,28.54,28.54,0,0,0-3,4.14A44,44,0,0,0,243,35.88l-.14.22h-.14c-.48-.13-.93-.28-1.36-.42l-1.29-.42a1.94,1.94,0,0,1-1.16-1.86,21.89,21.89,0,0,1,1.5-7.32,43.14,43.14,0,0,1,3.36-6.76,3.72,3.72,0,0,1,.75-.69.77.77,0,0,1,1,0,11.11,11.11,0,0,1,1.58,1.21c.23.23.51.52.83.82l.83.82-.29.43a8.74,8.74,0,0,0-.64.8c-.48.71-.91,1.44-1.32,2.16s-.79,1.46-1.17,2.23a23.76,23.76,0,0,1,1.46-1.91,23,23,0,0,1,1.89-2A16,16,0,0,1,250,21.94a20.76,20.76,0,0,1,1.86-1.52,6.5,6.5,0,0,1,.86-.58,4.27,4.27,0,0,1,1.22-.76A1.33,1.33,0,0,1,255,19a10.93,10.93,0,0,1,1.65,1.32c.58.54,1,1,1.36,1.32a.57.57,0,0,1,.14.42.92.92,0,0,1-.07.36,12.48,12.48,0,0,0-.92,1.33c-.38.6-.79,1.26-1.21,2s-.85,1.55-1.27,2.45a20.63,20.63,0,0,0-1.05,2.62,9.05,9.05,0,0,0,1.06-1l2.21-2.16c.86-.84,1.74-1.71,2.67-2.59s1.72-1.67,2.39-2.34Z" transform="translate(-5.42 -2.77)"/><path class="cls-1" d="M277.49,23.91a1.26,1.26,0,0,1-.19.77c-.12.19,0,.44-.19.77l-3.37.52c-.57.1-1.16.21-1.75.34s-1.16.24-1.68.37-.93.21-1.22.25c-.05.42-.09.88-.13,1.33s-.12.89-.21,1.33c-.05.14-.17.63-.39,1.47a14.27,14.27,0,0,1-1.05,2.73,10.69,10.69,0,0,1-2,2.7,4.8,4.8,0,0,1-3.14,1.37,4.16,4.16,0,0,1-2.29-.32,4.27,4.27,0,0,1-1.62-1.25,3.73,3.73,0,0,1-.76-1.82,4.45,4.45,0,0,1,.28-2.19.21.21,0,0,0,.07-.18.45.45,0,0,1,.14-.25s0-.07,0-.07,0,0,0-.07l.14-.29.07-.07a12.57,12.57,0,0,1,.79-1A9.43,9.43,0,0,1,260.36,29a14.59,14.59,0,0,1,1.92-1.27l2-1.05a15.36,15.36,0,0,0-.13-2.9q-.19-1.11-.25-1.4c-.8,1.1-1.62,2.12-2.42,3.05s-1.54,1.82-2.21,2.63c-.71,1-1.28,1.68-1.71,2.16-.23.29-.45.58-.64.87l-.52-1.72c.57-.77,1.17-1.64,1.78-2.59L260,24c.57-.91,1.06-1.75,1.49-2.52s.76-1.35,1-1.73c.09-.19.2-.4.33-.6s.23-.41.33-.6c-.1-.29-.14-.44-.11-.47s0-.18,0-.47a1.34,1.34,0,0,1,.17-1.07,1.76,1.76,0,0,1,1.11-.8,5.89,5.89,0,0,1,2-.3c.23,0,.53,0,.89,0s.7,0,1,0a.78.78,0,0,1,.22.29,1.69,1.69,0,0,0-.22.6,2.42,2.42,0,0,0,0,.89c0,.19,0,.16,0-.07s-.08-.26,0-.07l.3,1.44v.07c.2,1.09.38,2.18.55,3.22a16.3,16.3,0,0,1,.2,3.3c.67-.14,1.41-.28,2.22-.41l2.29-.34C274.52,24.38,276.67,24,277.49,23.91Zm-14.3,10a18.76,18.76,0,0,0,.67-2.51c.16-.86.29-1.7.38-2.51a13.14,13.14,0,0,0-2.1,1.45,12.47,12.47,0,0,0-1.1,1.07,1.48,1.48,0,0,0-.24.33,1.47,1.47,0,0,1-.24.33q-.35.78-.57,1.44a.35.35,0,0,0-.07.22v.58a.35.35,0,0,0,.07.22v.14a1.21,1.21,0,0,0,1,1,1.57,1.57,0,0,0,.6,0,1.62,1.62,0,0,0,.89-.54,4.37,4.37,0,0,1,.35-.58A5.21,5.21,0,0,0,263.18,33.92Z" transform="translate(-5.42 -2.77)"/><path class="cls-1" d="M176.8,39.81a163.62,163.62,0,0,1,20.8-2.72c7-.53,14-.68,21-.72,3.5.06,7,.09,10.5.25s7,.3,10.48.56,7,.6,10.46.9,6.95.82,10.41,1.27L250,38.58c-3.49-.2-7-.5-10.46-.62-7-.35-14-.57-20.93-.58s-14,.12-20.93.48c-3.49.18-7,.41-10.45.74S180.25,39.28,176.8,39.81Z" transform="translate(-5.42 -2.77)"/></svg>