<?xml version="1.0" encoding="utf-8"?>
<!-- Generator: Adobe Illustrator 19.2.1, SVG Export Plug-In . SVG Version: 6.00 Build 0)  -->
<svg version="1.1" id="Layer_1" xmlns="http://www.w3.org/2000/svg" xmlns:xlink="http://www.w3.org/1999/xlink" x="0px" y="0px"
	 viewBox="0 0 300 250" style="enable-background:new 0 0 300 250;" xml:space="preserve">
<g>
	<path d="M140.5,145.2h12.3v39.7h-12.3V145.2z"/>
	<path d="M154.8,145.2H171l6.2,24.1l6.2-24.1h16.1v39.7h-10v-30.2l-7.7,30.2h-9.1l-7.7-30.2v30.2h-10L154.8,145.2L154.8,145.2z"/>
	<polygon points="256.9,145.2 243.5,145.2 228.6,184.8 241.1,184.8 250.1,155.5 259,184.8 271.8,184.8 	"/>
	<g>
		<polygon points="240.5,184.8 240.4,184.7 240.4,184.8 		"/>
		<path d="M232.9,170.9c-0.8-1.1-1.5-1.8-2-2.1c-0.7-0.5-1.7-1-3.2-1.5c1.8-0.4,3.3-0.9,4.3-1.6c1.7-1,2.9-2.3,3.9-3.9
			c0.9-1.6,1.4-3.5,1.4-5.7c0-2.5-0.6-4.7-1.8-6.4c-1.2-1.8-2.8-3-4.8-3.6c-2-0.7-4.9-1-8.7-1h-20.4v39.7h12.3v-16.1h1.1
			c1.1,0,2.1,0.3,3,0.9c0.7,0.5,1.4,1.5,2.2,3.1l6.6,12.1h1.2l5.2-13.7C233,171,232.9,171,232.9,170.9z M224.2,159.5
			c-0.5,0.7-1.2,1.1-2,1.2c-1.6,0.4-2.7,0.5-3.3,0.5h-5.2v-8.1h5.4c2.2,0,3.7,0.4,4.6,1c0.8,0.7,1.2,1.7,1.2,2.9
			C225,158,224.7,158.8,224.2,159.5z"/>
	</g>
	<path d="M288.8,167.1l-14.9-21.9h-11.4v12.9l10.1,26.8h1.5v-21.8l14.9,21.8h10.7c0.5-4.5,0.7-9.1,0.7-13.7c0-8.9-0.9-17.5-2.6-25.9
		h-8.9L288.8,167.1L288.8,167.1z"/>
	<g>
		<path d="M104.4,232.5c-4.9,0.2-8.9-0.3-12.1-1.3s-5.8-2.4-7.7-4.2c-1.9-1.8-3.3-3.7-4.1-5.9c-0.8-2.2-1.3-4.3-1.4-6.4
			c-0.1-2.1,0.1-4,0.4-5.8c0.4-1.8,0.8-3.1,1.4-4c0.7-0.8,1.4-1.6,2.3-2.2c0.8-0.6,1.8-1.1,2.9-1.5s2.5-0.7,4-0.8
			c0.2,0,0.4,0.1,0.7,0.2c0.3,0.1,0.4,0.4,0.2,0.8c-0.5,1.1-1.1,2.7-1.9,5s-1.2,4.7-1.4,7.3c-0.2,2.6,0.2,5.1,1.2,7.5
			c0.9,2.4,2.9,4.2,5.7,5.5c0.3,0.2,1,0.4,2,0.6c1,0.2,2.1,0.4,3.4,0.5s2.8,0,4.4-0.2s3.3-0.7,5-1.5c0.3-0.2,0.7-0.4,1.1-0.6
			c0.4-0.2,0.9-0.5,1.4-0.8c1.2-0.7,2.5-1.7,3.9-2.8s2.9-2.4,4.2-3.9c1.4-1.5,2.8-3.2,4.1-5c1.3-1.9,2.5-4,3.4-6.4
			c0.2-0.8,0.5-1.7,0.8-2.5s0.5-1.7,0.7-2.6c1-4.6,1.3-8.5,1-11.6s-1-5.7-2-7.7s-2.1-3.6-3.4-4.6c-1.3-1.1-2.4-1.8-3.4-2.3
			c-0.7-0.2-1.3-0.4-2-0.4s-1.1-0.1-1.3-0.1c-3,0.1-5.8,0.2-8.7,0.4c-2.8,0.2-5.4,0.4-7.6,0.6c-2.3,0.2-4.1,0.6-5.5,1
			s-2.1,0.9-2,1.5c-0.6-0.4-1-0.9-1.4-1.6c-0.3-0.6-0.6-1.2-0.8-2s-0.2-1.7-0.1-2.8c0.2-0.9,1.6-1,2.1-1.7c0.4-0.7,0.1-0.5,1-1
			s2-2.3,3.7-2.5c1.1,0,3.3,0,6.8,0.1s7.3,0.1,11.3,0.2c0,0,1.4,0,2.2,0.1c0.8,0,1.7,0.1,2.6,0.3c1.6,0.3,3.3,0.9,5.4,1.8
			c2,0.9,4,2.4,5.8,4.6c0.2,0.2,0.4,0.5,0.7,1c0.2,0.2,0.4,0.4,0.6,0.6c0.2,0.2,0.3,0.5,0.5,0.9c0.9,1.4,1.7,3.1,2.5,5
			c0.7,1.9,1.3,4.1,1.7,6.5c0,0.3,0,0.6,0.1,0.9c0,0.2,0.1,0.5,0.2,0.9c0.5,4.2,0.3,8.2-0.6,12.1c-0.9,3.9-2.3,7.5-4.1,10.8
			s-4.1,6.3-6.7,9.1c-2.6,2.7-5.4,5-8.3,6.8c-0.9,0.4-1.8,0.8-2.6,1.2c-0.8,0.4-1.7,0.8-2.6,1.2c-1.9,0.7-3.7,1.2-5.5,1.5
			c-1.8,0.2-3.2,0.4-4.2,0.6L104.4,232.5L104.4,232.5z M95.2,223c-0.9-0.9-1.3-2.3-1.3-4.2s0.4-4.2,1.1-6.8s1.7-5.4,2.9-8.5
			c1.2-3.1,2.6-6.2,4-9.3s2.9-6.2,4.5-9.2s3-5.8,4.4-8.3c0.3,0.2,0.9,0.4,1.8,0.7s1.6,0.6,2,0.9c0.2,0.1,0.6,0.3,1,0.6
			s0.8,0.7,1,1.2c0.3,0.5,0.4,1.1,0.5,1.8c0,0.7-0.2,1.6-0.7,2.5c-0.6,1.2-1.1,2.2-1.7,3.3c-0.5,1-1,2-1.4,3l-0.4,0.7
			c-0.2,0.2-0.3,0.5-0.4,0.8s-0.3,0.6-0.4,1c-0.4,0.8-0.8,1.7-1.3,2.8c-0.4,1-0.9,2-1.3,2.9v0.4c-1.8,4.2-3.3,7.9-4.3,11
			c-1.1,3.2-1.9,5.8-2.5,8.1c-0.7,2.6-1.2,4.9-1.5,6.9c-1.2-0.2-2.1-0.4-2.9-0.6c-0.8-0.2-1.4-0.5-1.9-0.7
			C95.9,223.7,95.5,223.3,95.2,223z"/>
		<path d="M148.1,220.4c1,0.2,2,0.1,3-0.3c1-0.4,2.1-1.1,3.2-2s2.2-2,3.3-3.1c1.1-1.2,2.1-2.4,3.1-3.6c2.3-3,4.6-6.4,6.9-10.2
			l3.1,0.1c-0.3,0.7-0.7,1.6-1.2,2.5c-0.8,1.5-2.1,3.7-3.9,6.5c-0.4,0.7-0.8,1.3-1.2,1.8c-0.4,0.6-0.8,1.2-1.2,1.8
			c-0.1,0.2-0.2,0.3-0.2,0.4c-0.1,0.1-0.2,0.3-0.4,0.6c-0.1,0.2-0.3,0.4-0.6,0.7c-0.1,0.1-0.2,0.2-0.2,0.4c-0.1,0.2-0.2,0.3-0.3,0.4
			c-0.1,0.1-0.2,0.2-0.3,0.3c-0.5,0.7-1.5,1.9-2.9,3.4s-3.1,2.7-5.1,3.6l-1.2,0.6c-0.2,0-0.3,0-0.4,0.1c-0.2,0-0.4,0-0.5,0.1
			c-0.4,0.1-0.8,0.1-1.2,0.2c-0.4,0-0.8,0.1-1.2,0.1s-0.9,0-1.4-0.1s-0.9-0.1-1.4-0.2c-2.7-0.7-4.6-1.8-5.6-3.6
			c-1-1.7-1.5-3.6-1.4-5.7c0.1-2.1,0.5-4.2,1.4-6.3c0.8-2.1,1.8-4,3-5.5c1.5-2.1,2.8-3.8,3.8-4.9c1.1-1.1,2.3-2.1,3.6-3
			c0.6-0.4,1.2-0.7,1.7-1c0.5-0.2,1.1-0.2,1.7-0.2c0.7,0,1.4,0.3,2.1,1c0.7,0.7,1.3,1.3,1.9,1.8s1.1,1.1,1.5,1.5l1.4,1.4
			c0.2,0.2,0.3,0.4,0.4,0.7c0.1,0.3,0.1,0.7,0.1,1.2c0,0.4-0.3,1-0.7,1.8c-0.7,1.7-1.7,3.3-3,4.8c-0.2,0.3-0.4,0.7-0.7,1
			c-0.8,0.9-1.8,1.8-2.8,2.6c-1.7,1.2-3.2,2.1-4.7,2.5s-2.6,0.7-3.3,0.7c-0.7,1.7-0.6,2.9,0.1,3.7
			C146.3,219.7,147,220.2,148.1,220.4z M147.1,212.8c-0.2,0.4-0.3,0.7-0.5,0.9c2-0.8,3.6-2,5-3.5s2.2-2.6,2.6-3.3
			c0.5-0.7,0.9-1.4,1.4-2.2c0.4-0.8,0.6-1.5,0.6-2c-1.2,1.2-2.4,2.3-3.4,3.4c-0.9,1-1.9,2.1-3,3.2
			C148.7,210.5,147.8,211.6,147.1,212.8z"/>
		<path d="M193.7,203.5c-0.4,0.6-0.7,1-0.9,1.4c-0.2,0.3-0.5,0.8-0.9,1.4c-0.6,0.1-1.4,0.2-2.3,0.4c-1,0.2-2,0.4-3,0.6
			c-1,0.2-2,0.4-2.9,0.6c-0.9,0.2-1.6,0.4-2.1,0.4c-0.1,0.7-0.2,1.5-0.2,2.3c-0.1,0.8-0.2,1.5-0.4,2.3c-0.1,0.2-0.3,1.1-0.7,2.5
			s-1,3-1.8,4.7c-0.9,1.7-2,3.2-3.4,4.6c-1.4,1.4-3.2,2.2-5.4,2.3c-1.5,0.2-2.8,0-3.9-0.6c-1.2-0.5-2.1-1.2-2.8-2.2
			c-0.7-0.9-1.1-2-1.3-3.1c-0.2-1.2,0-2.5,0.5-3.8c0.1-0.1,0.1-0.2,0.1-0.3s0.1-0.3,0.2-0.4c0-0.1,0-0.1,0.1-0.1c0,0,0.1,0,0.1-0.1
			l0.2-0.5l0.1-0.1c0.3-0.5,0.8-1.1,1.4-1.8c0.6-0.7,1.3-1.4,2.2-2.2c1.1-0.8,2.2-1.5,3.3-2.2c1.2-0.6,2.3-1.2,3.4-1.8
			c0.1-2.1,0-3.7-0.2-5s-0.4-2.1-0.4-2.4c-1.4,1.9-2.8,3.6-4.2,5.2c-1.4,1.6-2.7,3.1-3.8,4.5c-1.2,1.7-2.2,2.9-3,3.7
			c-0.4,0.5-0.8,1-1.1,1.5l-0.9-3c1-1.3,2-2.8,3.1-4.4c1.1-1.7,2.1-3.3,3.1-4.8c1-1.6,1.8-3,2.6-4.3c0.7-1.3,1.3-2.3,1.7-3
			c0.2-0.3,0.4-0.7,0.6-1c0.2-0.4,0.4-0.7,0.6-1c-0.2-0.5-0.2-0.8-0.2-0.8s0-0.3-0.1-0.8c-0.2-0.6-0.1-1.2,0.3-1.8
			c0.4-0.7,1-1.1,1.9-1.4c0.9-0.3,2.1-0.5,3.4-0.5c0.4,0,0.9,0,1.5,0.1c0.6,0,1.2,0.1,1.8,0.1c0.2,0.2,0.4,0.4,0.4,0.5
			c-0.2,0.2-0.3,0.6-0.4,1c-0.1,0.4-0.1,1,0,1.5c0.1,0.3,0.1,0.3-0.1-0.1c-0.1-0.4-0.1-0.4-0.1-0.1l0.5,2.5v0.1
			c0.3,1.9,0.6,3.7,0.9,5.5c0.3,1.8,0.4,3.7,0.3,5.7c1.2-0.2,2.4-0.5,3.8-0.7c1.4-0.2,2.7-0.4,3.9-0.6
			C190.9,203.9,192.3,203.7,193.7,203.5z M171.3,220.2c0.5-1.4,0.9-2.8,1.2-4.3s0.5-2.9,0.7-4.3c-1.6,0.9-2.8,1.7-3.6,2.5
			c-0.9,0.7-1.5,1.4-1.9,1.8c-0.2,0.2-0.3,0.4-0.4,0.6s-0.3,0.4-0.4,0.6c-0.4,0.9-0.7,1.7-1,2.5c-0.1,0.1-0.1,0.2-0.1,0.4v1
			c0,0.2,0,0.3,0.1,0.4v0.2c0.2,0.9,0.7,1.5,1.7,1.7c0.2,0.1,0.6,0.1,1,0.1s1-0.4,1.5-0.9c0.2-0.3,0.4-0.7,0.6-1
			C170.9,221,171.1,220.6,171.3,220.2z"/>
		<path d="M182.7,220.4c-0.2-0.3-0.3-0.7-0.3-1s-0.1-0.6-0.2-0.9c0.1-2.1,0.4-4.8,1-7.9c0.6-3.2,1.8-6.5,3.7-9.9
			c0.3-0.6,0.7-1.2,1-1.7c0.3-0.6,0.7-1.2,1-1.7c0.4-0.8,0.8-1.4,1.2-1.8c0.2-0.3,0.5-0.5,0.7-0.6c0.2,0,0.4-0.1,0.6-0.1
			c0.1,0.1,0.2,0.1,0.2,0.1c0.9,0.6,1.9,1.3,3,2.3s2,1.7,2.5,2.3c0.2,0.2,0.4,0.5,0.4,0.7c0.1,0.2,0,0.4-0.1,0.6
			c-0.2,0.5-0.7,1.2-1.2,2.3c-0.6,1-1.2,2.2-1.8,3.4c-0.6,1.3-1.2,2.7-1.8,4.2s-1.1,3-1.4,4.5c-0.1,0.4,0.3,0.2,1.1-0.5
			s1.9-1.8,3.1-3.2c1.3-1.4,2.7-3,4.4-4.9s3.2-3.7,4.7-5.5l3.1,0.1c-1.9,2.6-3.8,5.3-5.7,8c-1.7,2.3-3.4,4.8-5.3,7.4
			c-1.9,2.6-3.6,5-5.2,7.1l-0.1,0.1c-0.1,0-0.1,0-0.1,0.1l-0.2,0.2h-0.1c-0.3,0.2-0.6,0.2-0.8,0.2s-0.4-0.1-0.6-0.1
			c-0.6-0.2-1.2-0.4-2-0.7s-1.6-0.6-2.5-0.9c-0.1-0.1-0.2-0.1-0.2-0.1C183.8,222.2,183.1,221.5,182.7,220.4z M195.9,183.4
			c0.2-0.5,0.4-0.9,0.8-1.1c0.4-0.2,0.8-0.4,1.2-0.5s0.9-0.1,1.4,0c0.7,0.2,1.3,0.4,2,0.7c0.6,0.2,1.2,0.6,1.8,0.9
			c0.6,0.4,1.2,0.8,1.9,1.4c0.7,0.8,1.1,1.7,1.1,2.6c0,0.4-0.1,0.8-0.4,1.1c-0.8,1.2-1.7,2.2-2.6,3.2c-0.9,1-1.9,1.8-2.9,2.4
			s-2,1-2.9,1.1s-1.8-0.1-2.6-0.8c-0.6-0.5-0.8-1.3-0.8-2.4c0-1.1,0.2-2.3,0.5-3.5s0.6-2.4,1-3.4
			C195.6,184.2,195.8,183.6,195.9,183.4z"/>
		<path d="M222.6,214.8c1.7-1.5,3.3-3,4.8-4.4c1.4-1.3,2.9-2.8,4.4-4.4c1.6-1.6,3-3.2,4.2-4.9l3.1,0.1c-1.9,2.5-3.8,5.1-5.8,7.8
			c-1.7,2.2-3.5,4.6-5.5,7.2c-2,2.6-3.9,5-5.7,7.1c-0.4,0.4-0.8,0.6-1.2,0.7c-0.4,0-0.7,0-0.9-0.1c-0.1,0-0.3-0.1-0.6-0.2
			c-0.1,0.2-0.4,0.7-1.1,1.3c-0.7,0.6-1.2,1.5-1.6,2.6h0.6c0.6,0,1.4,0.1,2.3,0.2c1,0.2,2,0.4,2.9,0.8c0.9,0.4,1.8,0.9,2.5,1.5
			c0.7,0.7,1.1,1.6,1.1,2.7c0,0.7-0.1,1.2-0.2,1.7c-0.2,0.4-0.3,0.8-0.5,1.2c-0.2,0.2-0.4,0.5-0.7,0.9l-0.2,0.2
			c-0.2,0.2-0.5,0.4-0.9,0.6c-0.2,0.1-0.3,0.1-0.4,0.1c-0.7-0.9-1.7-1.6-3.1-2.2c-1.4-0.5-3-0.9-4.8-1.2c-0.2,0-0.5,0-0.7-0.1
			c-0.2,0-0.5-0.1-0.7-0.1c-0.2,0.3-0.4,0.7-0.6,1s-0.4,0.7-0.6,1c-0.4,0.7-0.9,1.4-1.5,2.3s-1.4,1.8-2.3,2.7
			c-0.9,0.9-1.9,1.8-3,2.6s-2.4,1.5-3.8,2c-1.9,0.7-3.8,0.9-5.8,0.9c-2.7-0.1-4.8-1-6.2-2.8s-2-3.8-1.7-6s1.6-4.2,3.8-6.2
			s5.5-3.2,10-3.7c0.4,0,0.9,0,1.5-0.1c0.5-0.1,1-0.1,1.7-0.1c0.6,0,1.3,0,2.2-0.1h0.5c1-3,2-5.6,2.9-7.8c0.9-2.1,1.4-3.3,1.4-3.4
			c-0.7,1.1-1.5,2.3-2.5,3.8c-1,1.4-2,2.7-3,3.9c-0.7,0.5-1.3,0.7-1.9,0.7c-0.6,0-1-0.1-1.3-0.2l-6.2-2.2c-0.7-0.2-1-0.7-1.2-1.3
			c-0.1-0.6-0.2-1-0.2-1.2c0.1-1.3,0.4-3.2,0.8-5.5c0.4-2.4,1.3-4.8,2.6-7.3s3-4.8,5.3-7s5.3-3.9,9.1-4.9c0.2-0.2,0.7-0.2,1.6-0.1
			l8.3,1.2c0.1,0.1,0.2,0.2,0.4,0.2c0.2,0.1,0.2,0.2,0.2,0.4s-0.2,0.4-0.6,0.6c-1.2,0.5-2.6,1.2-4.3,2.1c-1.7,0.9-3.5,2.2-5.2,3.8
			c-1.8,1.6-3.4,3.6-5,6s-2.8,5.3-3.6,8.7v0.1c0,0.2,0.1,0.3,0.4,0.1c0.1-0.1,0.5-0.4,1.2-1.1s1.7-1.6,2.7-2.7s2.2-2.5,3.5-4.1
			s2.5-3.4,3.6-5.4c0.1-0.1,0.3-0.3,0.6-0.6s0.8-0.4,1.5-0.2l7.1,1.6c-0.7,1.2-1.4,2.3-2,3.3c-0.5,0.9-0.9,1.9-1.3,3
			C222.7,213,222.6,213.9,222.6,214.8z M201.7,239.8c0.7-0.8,1.4-1.7,2-2.7s1.2-2.1,1.8-3.2c-0.2-0.1-0.5-0.1-0.7-0.1h-0.6
			c-0.7,0-1.3,0-1.9,0.1s-1.1,0.1-1.5,0.1c-0.1,0-0.1,0-0.1,0.1c-1.7,0.2-3.3,0.6-4.9,1.2c-1.6,0.6-2.6,1.7-3.1,3.1
			c-0.3,1-0.4,1.8-0.1,2.6c0.2,0.7,0.7,1.3,1.4,1.7s1.4,0.5,2.3,0.4c0.9-0.1,1.8-0.4,2.8-0.9c0.2-0.1,0.3-0.2,0.5-0.2
			c0.2-0.1,0.3-0.2,0.5-0.4C200.7,241,201.2,240.4,201.7,239.8z"/>
		<path d="M272.4,201.2c-2.1,2.5-4.1,5.1-6.3,7.8c-1.8,2.2-3.8,4.6-5.8,7.3c-2.1,2.6-4.1,5-5.8,7.1v0.1h-0.1l-0.1,0.1
			c-0.1,0.1-0.1,0.1-0.2,0.1c0,0-0.1,0-0.2,0.1h-0.1c-0.2,0.2-0.5,0.2-0.7,0.2s-0.4-0.1-0.6-0.1c-0.6-0.2-1.2-0.4-2-0.7
			s-1.6-0.6-2.4-0.9c-0.1-0.1-0.2-0.1-0.2-0.1c-0.8-0.4-1.4-1.2-1.7-2.2c-0.2-0.3-0.2-0.7-0.2-1s0-0.6,0-0.9
			c0.1-1.2,0.2-2.4,0.4-3.7s0.5-2.7,0.9-4.2s1.1-3,2-4.7s2-3.4,3.5-5.3c-1.7,1.1-3.4,2.6-5.2,4.7c-1.6,1.7-3.3,4.1-5.1,7.1
			s-3.7,6.8-5.5,11.3l-0.2,0.4h-0.2c-0.8-0.2-1.6-0.5-2.3-0.7s-1.5-0.5-2.2-0.7c-1.3-0.7-2-1.7-2-3.2c0.2-4.4,1-8.6,2.6-12.6
			s3.6-7.9,5.8-11.6c0.3-0.4,0.8-0.8,1.3-1.2s1.1-0.4,1.7,0.1c0.9,0.6,1.8,1.3,2.7,2.1c0.4,0.4,0.9,0.9,1.4,1.4s1,1,1.4,1.4
			l-0.5,0.7c-0.2,0.2-0.6,0.7-1.1,1.4c-0.8,1.2-1.6,2.5-2.3,3.7s-1.4,2.5-2,3.8c0.7-1.1,1.6-2.2,2.5-3.3s2-2.2,3.3-3.4
			c0.5-0.6,1.2-1.3,2.2-2.2s2.1-1.8,3.2-2.6c0.7-0.5,1.2-0.8,1.5-1c0.7-0.6,1.4-1,2.1-1.3s1.4-0.3,1.8-0.1c0.9,0.6,1.8,1.3,2.8,2.3
			c1,0.9,1.8,1.7,2.3,2.3c0.2,0.2,0.2,0.4,0.2,0.7c0,0.2,0,0.4-0.1,0.6c-0.4,0.5-0.9,1.2-1.6,2.3c-0.7,1-1.4,2.2-2.1,3.4
			c-0.7,1.3-1.5,2.7-2.2,4.2s-1.4,3-1.8,4.5c0.2-0.1,0.8-0.6,1.8-1.7c1.1-1,2.3-2.3,3.8-3.7s3-2.9,4.6-4.4s3-2.9,4.1-4L272.4,201.2z
			"/>
		<path d="M296.1,203.1c0,0.7-0.1,1-0.3,1.3c-0.2,0.3,0.1,0.8-0.3,1.3c-0.6,0.1-4.8,0.7-5.8,0.9s-2,0.4-3,0.6c-1,0.2-2,0.4-2.9,0.6
			c-0.9,0.2-1.6,0.4-2.1,0.4c-0.1,0.7-0.2,1.5-0.2,2.3c-0.1,0.8-0.2,1.5-0.4,2.3c-0.1,0.2-0.3,1.1-0.7,2.5c-0.4,1.4-1,3-1.8,4.7
			c-0.9,1.7-2,3.2-3.4,4.6c-1.4,1.4-3.2,2.2-5.4,2.3c-1.5,0.2-2.8,0-3.9-0.6c-1.2-0.5-2.1-1.2-2.8-2.2c-0.7-0.9-1.1-2-1.3-3.1
			c-0.2-1.2,0-2.5,0.5-3.8c0.1-0.1,0.1-0.2,0.1-0.3s0.1-0.3,0.2-0.4c0-0.1,0-0.1,0.1-0.1s0.1,0,0.1-0.1l0.2-0.5l0.1-0.1
			c0.3-0.5,0.8-1.1,1.4-1.8s1.3-1.4,2.2-2.2c1.1-0.8,2.2-1.5,3.3-2.2c1.2-0.6,2.3-1.2,3.4-1.8c0.1-2.1,0-3.7-0.2-5s-0.4-2.1-0.4-2.4
			c-1.4,1.9-2.8,3.6-4.2,5.2c-1.4,1.6-2.7,3.1-3.8,4.5c-1.2,1.7-2.2,2.9-3,3.7c-0.4,0.5-0.8,1-1.1,1.5l-0.9-3c1-1.3,2-2.8,3.1-4.4
			c1.1-1.7,2.1-3.3,3.1-4.8c1-1.6,1.8-3,2.6-4.3c0.7-1.3,1.3-2.3,1.7-3c0.2-0.3,0.4-0.7,0.6-1c0.2-0.4,0.4-0.7,0.6-1
			c-0.2-0.5-0.2-0.8-0.2-0.8s0-0.3-0.1-0.8c-0.2-0.6-0.1-1.2,0.3-1.8c0.4-0.7,1-1.1,1.9-1.4c0.9-0.3,2.1-0.5,3.4-0.5
			c0.4,0,0.9,0,1.5,0.1c0.6,0,1.2,0.1,1.8,0.1c0.2,0.2,0.4,0.4,0.4,0.5c-0.2,0.2-0.3,0.6-0.4,1s-0.1,1,0,1.5
			c0.1,0.3,0.1,0.3-0.1-0.1c-0.1-0.4-0.1-0.4-0.1-0.1l0.5,2.5v0.1c0.3,1.9,0.6,3.7,0.9,5.5s0.4,3.7,0.3,5.7c1.2-0.2,2.4-0.5,3.8-0.7
			s2.7-0.4,3.9-0.6C291,203.9,294.7,203.2,296.1,203.1z M271.4,220.2c0.5-1.4,0.9-2.8,1.2-4.3c0.3-1.5,0.5-2.9,0.7-4.3
			c-1.6,0.9-2.8,1.7-3.6,2.5s-1.5,1.4-1.9,1.8c-0.2,0.2-0.3,0.4-0.4,0.6c-0.1,0.2-0.3,0.4-0.4,0.6c-0.4,0.9-0.7,1.7-1,2.5
			c-0.1,0.1-0.1,0.2-0.1,0.4v1c0,0.2,0,0.3,0.1,0.4v0.2c0.2,0.9,0.7,1.5,1.7,1.7c0.2,0.1,0.6,0.1,1,0.1s1-0.4,1.5-0.9
			c0.2-0.3,0.4-0.7,0.6-1C271,221,271.2,220.6,271.4,220.2z"/>
	</g>
	<g>
		<polygon points="134.8,109.4 207.2,37 207.5,17.1 131.2,93.4 		"/>
		<polygon points="80.3,132.9 50.2,54 129.1,84.1 129.1,84.2 207.6,5.7 207.7,4 125.6,65.2 28.6,32.3 61.5,129.3 0.3,211.4 2,211.3 
			80.5,132.9 		"/>
		<polygon points="141.6,139.3 206.8,74.1 207,55.5 138.2,124.3 		"/>
		<polygon points="70.4,210.5 135.5,145.4 120.5,142 51.8,210.7 		"/>
		<polygon points="89.6,135 13.4,211.2 33.3,211 105.6,138.6 		"/>
	</g>
	<path d="M141.8,139.4h147.6c0,0-144.4-0.1-128.4-19.4s-17.5,7.5-17.5,7.5L141.8,139.4z"/>
</g>
</svg>
