<?xml version="1.0" encoding="utf-8"?>
<!-- Generator: Adobe Illustrator 19.2.1, SVG Export Plug-In . SVG Version: 6.00 Build 0)  -->
<svg version="1.1" id="Layer_1" xmlns="http://www.w3.org/2000/svg" xmlns:xlink="http://www.w3.org/1999/xlink" x="0px" y="0px"
	 viewBox="0 0 1650 468" style="enable-background:new 0 0 1650 468;" xml:space="preserve">
<style type="text/css">
	.st0{fill:#161616;}
	.st1{fill:#0A0A0A;}
	.st2{fill:#050505;}
	.st3{fill:#0F0F0F;}
</style>
<path id="XMLID_8_" class="st0" d="M1500.7,240.9c1-0.1,2-0.6,2.5-1.4c1.4-2.3-1.1-4.8-3-6.7c-2.3-2.4-4-5.4-4.9-8.6
	c1.1,1.4,2.3,2.6,3.7,3.6c1,0.7,2.1,0.6,2.5-0.7c0.2-0.6,0.1-1.1,0.1-1.7c-0.1-1.2-0.3-2.5-0.8-3.6c-0.9-2-2.6-3.4-3.9-5.1
	c-1.4-1.6-2.5-3.8-2.1-5.9c0.1-0.3,0.2-0.7,0.5-0.8c0.5-0.2,1.1,0.2,1.3,0.6c0.6,1,0.6,1.8,1.9,1.4c0.9-0.3,1.6-1.4,1.5-2.3
	c0-0.8-0.4-1.5-0.8-2.1c-2-3.5-6-6.6-5.4-11.1c0-0.3,0.1-0.7,0.4-0.9c0.6-0.5,1.5,0.2,1.9,0.8s1.1,1.5,1.9,1.2
	c0.7-0.3,0.7-1.3,0.5-2c-0.9-3.4-3-6.3-4.4-9.4c-0.4-0.8-0.7-1.7-0.6-2.6c0-0.2,0.1-0.3,0.2-0.5c0.2-0.3,0.8-0.3,1.1,0
	c0.7,0.6,0.8,1.9,2,2c1.1,0.1,1.9-1.1,1.9-2.3c-0.1-1.1-0.8-2.1-1.4-3c-4.4-6.9-4.3-16.1-7-23.7c-0.1-0.3-0.2-0.6-0.5-0.8
	c-0.5-0.4-1.3,0-1.5,0.6s-0.2,1.2-0.1,1.8c0.6,5.2-0.4,10.5-1.3,15.7c-0.4,2-0.7,3.9-1.4,5.8c-0.9,2.4-2.2,4.7-3.2,7.1
	c-0.5,1.2-0.6,3,0.6,3.4c1.5,0.5,2.7-2,4.3-1.9c2.7,0.1,0.6,3.7,0.1,4.7c-1.2,2.4-3.1,4.6-3.2,7.4c0,0.4,0,0.8,0.2,1.1
	c1.4,2.2,3.4-1.3,4-2.2c0.3-0.4,0.9-0.7,1.3-0.4c0.4,0.3,0.4,0.8,0.3,1.3c-0.6,5.5-6.3,8.9-7.8,14.2c-0.2,0.7-0.3,1.4,0,2
	c0.7,1.4,2.9,1,4.1-0.1c0.8-0.8,1.3-1.8,2.1-2.6c0.8-0.8,2.3-1.2,1.9,0.6c-0.1,0.6-0.6,1.1-1,1.6c-1.2,1.4-2.5,2.7-3.8,4
	c-0.7,0.6-1.4,1.3-2,2c-0.7,0.9-1,2.1-1.4,3.2c-0.3,1-0.6,2.2,0.2,2.9c0.5,0.4,1.2,0.4,1.8,0.2c0.6-0.3,1-0.7,1.5-1.2
	c0.7-0.8,1.3-1.7,1.8-2.6c0.3-0.2,0.8,0,0.9,0.3c0.2,0.3,0.1,0.7,0.1,1.1c-0.5,3.1-2,4.5-4.1,6.4c-2.3,2.1-5.1,4.3-5.4,7.5
	c-0.1,0.6,0,1.2,0.2,1.7h-22.3l-16.2,9.3c-0.6-0.7-1.3-1.5-1.9-2.1c-2.3-2.4-4-5.4-4.9-8.6c1.1,1.4,2.3,2.6,3.7,3.6
	c1,0.7,2.1,0.6,2.5-0.7c0.2-0.6,0.1-1.1,0.1-1.7c-0.1-1.2-0.3-2.5-0.8-3.6c-0.9-2-2.6-3.4-3.9-5.1c-1.4-1.6-2.5-3.8-2.1-5.9
	c0.1-0.3,0.2-0.7,0.5-0.8c0.5-0.2,1.1,0.2,1.3,0.6c0.6,1,0.6,1.8,1.9,1.4c0.9-0.3,1.6-1.4,1.5-2.3c0-0.8-0.4-1.5-0.8-2.1
	c-2-3.5-6-6.6-5.4-11.1c0-0.3,0.1-0.7,0.4-0.9c0.6-0.5,1.5,0.2,1.9,0.8c0.4,0.7,1.1,1.5,1.9,1.2c0.7-0.3,0.7-1.3,0.5-2
	c-0.9-3.4-3-6.3-4.4-9.4c-0.4-0.8-0.7-1.7-0.6-2.6c0-0.2,0.1-0.3,0.2-0.5c0.2-0.3,0.8-0.3,1.1,0c0.7,0.6,0.8,1.9,2,2
	c1.1,0.1,1.9-1.1,1.9-2.3c-0.1-1.1-0.8-2.1-1.4-3c-4.4-6.9-4.3-16.1-7-23.7c-0.1-0.3-0.2-0.6-0.5-0.8c-0.5-0.4-1.3,0-1.5,0.6
	c-0.3,0.6-0.2,1.2-0.1,1.8c0.6,5.2-0.4,10.5-1.3,15.7c-0.4,2-0.7,3.9-1.4,5.8c-0.9,2.4-2.2,4.7-3.2,7.1c-0.5,1.2-0.6,3,0.6,3.4
	c1.5,0.5,2.7-2,4.3-1.9c2.7,0.1,0.6,3.7,0.1,4.7c-1.2,2.4-3.1,4.6-3.2,7.4c0,0.4,0,0.8,0.2,1.1c1.4,2.2,3.4-1.3,4-2.2
	c0.3-0.4,0.9-0.7,1.3-0.4c0.4,0.3,0.4,0.8,0.3,1.3c-0.6,5.5-6.3,8.9-7.8,14.2c-0.2,0.7-0.3,1.4,0,2c0.7,1.4,2.9,1,4.1-0.1
	c0.8-0.8,1.3-1.8,2.1-2.6c0.8-0.8,2.3-1.2,1.9,0.6c-0.1,0.6-0.6,1.1-1,1.6c-1.2,1.4-2.5,2.7-3.8,4c-0.7,0.6-1.4,1.3-2,2
	c-0.7,0.9-1,2.1-1.4,3.2c-0.3,1-0.6,2.2,0.2,2.9c0.5,0.4,1.2,0.4,1.8,0.2c0.6-0.3,1-0.7,1.5-1.2c0.7-0.8,1.3-1.7,1.8-2.6
	c0.3-0.2,0.8,0,0.9,0.3s0.1,0.7,0.1,1.1c-0.5,3.1-2,4.5-4.1,6.4c-2.3,2.1-5.1,4.3-5.4,7.5c-0.1,0.7,0,1.5,0.5,2
	c1.4,1.6,3.9-0.3,5-2.1c1.1-1.8,3.2-4,4.9-2.7c-0.1,2.5-2.5,4.6-4.5,5.8c-2.1,1.3-3.5,2.6-4.1,4.9l-11.3,6.5h-56.3
	c-0.3-0.3-0.5-0.6-0.8-0.9c-0.6-0.7-3-5.3-1.2-5.9c0.4-0.1,0.9,0.1,1.3,0.4c0.3,0.3,0.6,0.7,0.9,1.1c0.7,0.8,1.8,1.3,2.9,1.2
	c0.3,0,0.6-0.1,0.8-0.2c0.4-0.3,0.5-0.7,0.5-1.2c0-1.4-0.8-2.6-1.6-3.8c-0.9-1.2-1.5-2.5-2.3-3.8c-0.9-1.5-1.9-2.7-2.1-4.5
	c1.6-1.5,3.2,3.4,5.3,2.7c1.5-0.5,0.8-2.7-0.1-4c-2-3-3.3-6.3-4.1-9.8c-0.4-1.7-0.7-3.5-0.9-5.3c-0.1-0.7,0-4.5-1.6-3.5
	c-0.5,0.3-0.6,0.9-0.8,1.5c-0.7,2.9-1.3,5.9-2.1,8.8c-0.6,2.3-0.9,5.5-2.4,7.4c-0.8,1.1-1.8,1.9-1.7,3.4c0,0.1,0,0.2,0.1,0.3
	c0.1,0.2,0.3,0.2,0.4,0.3c1.7,0.6,2.9-0.7,4-1.8c0.1-0.1,0.3-0.3,0.5-0.4c0.2-0.1,0.4-0.1,0.6,0.1c0.4,0.4,0,1.5,0,2
	c-0.2,1.5-0.9,2.9-1.8,4.1c-1.4,2-3.3,3.6-4.5,5.8c-0.2,0.4-0.4,0.9-0.4,1.4c0.1,1,1,1.5,1.9,1.5c1.2,0.1,1.8-0.8,2.3-1.8
	c0.3-0.7,0.6-1.4,1.2-1.7c0.2-0.1,0.4-0.1,0.5,0c0,0.1,0,0.1,0.1,0.2c0.1,1.4-0.2,2.8-0.8,4.1c-0.4,0.9-1,1.5-1.6,2.2h-18.9
	c-0.4-1-0.7-2.1-0.9-3.2c1.2,1,2.4,2,3.8,2.4c1.5,0.4,3.3,0,4.1-1.3c1.4-2.3-1.1-4.8-3-6.7c-2.3-2.4-4-5.4-4.9-8.6
	c1.1,1.4,2.3,2.6,3.7,3.6c1,0.7,2.1,0.6,2.5-0.7c0.2-0.6,0.1-1.1,0.1-1.7c-0.1-1.2-0.3-2.5-0.8-3.6c-0.9-2-2.6-3.4-3.9-5.1
	s-2.5-3.8-2.1-5.9c0.1-0.3,0.2-0.7,0.5-0.8c0.5-0.2,1.1,0.2,1.3,0.6c0.6,1,0.6,1.8,1.9,1.4c0.9-0.3,1.6-1.4,1.5-2.3
	c0-0.8-0.4-1.5-0.8-2.1c-2-3.5-6-6.6-5.4-11.1c0-0.3,0.1-0.7,0.4-0.9c0.6-0.5,1.5,0.2,1.9,0.8c0.4,0.7,1.1,1.5,1.9,1.2
	c0.7-0.3,0.7-1.3,0.5-2c-0.9-3.4-3-6.3-4.4-9.4c-0.4-0.8-0.7-1.7-0.6-2.6c0-0.2,0.1-0.3,0.2-0.5c0.2-0.3,0.8-0.3,1.1,0
	c0.7,0.6,0.8,1.9,2,2c1.1,0.1,1.9-1.1,1.9-2.3c-0.1-1.1-0.8-2.1-1.4-3c-4.4-6.9-4.3-16.1-7-23.7c-0.1-0.3-0.2-0.6-0.5-0.8
	c-0.5-0.4-1.3,0-1.5,0.6c-0.3,0.6-0.2,1.2-0.1,1.8c0.6,5.2-0.4,10.5-1.3,15.7c-0.4,2-0.7,3.9-1.4,5.8c-0.9,2.4-2.2,4.7-3.2,7.1
	c-0.5,1.2-0.6,3,0.6,3.4c1.5,0.5,2.7-2,4.3-1.9c2.7,0.1,0.6,3.7,0.1,4.7c-1.2,2.4-3.1,4.6-3.2,7.4c0,0.4,0,0.8,0.2,1.1
	c1.4,2.2,3.4-1.3,4-2.2c0.3-0.4,0.9-0.7,1.3-0.4c0.4,0.3,0.4,0.8,0.3,1.3c-0.6,5.5-6.3,8.9-7.8,14.2c-0.2,0.7-0.3,1.4,0,2
	c0.7,1.4,2.9,1,4.1-0.1c0.8-0.8,1.3-1.8,2.1-2.6c0.8-0.8,2.3-1.2,1.9,0.6c-0.1,0.6-0.6,1.1-1,1.6c-1.2,1.4-2.5,2.7-3.8,4
	c-0.7,0.6-1.4,1.3-2,2c-0.7,0.9-1,2.1-1.4,3.2c-0.3,1-0.6,2.2,0.2,2.9c0.5,0.4,1.2,0.4,1.8,0.2c0.6-0.3,1-0.7,1.5-1.2
	c0.7-0.8,1.3-1.7,1.8-2.6c0.3-0.2,0.8,0,0.9,0.3c0.2,0.3,0.1,0.7,0.1,1.1c-0.5,3.1-2,4.5-4.1,6.4c-2.3,2.1-5.1,4.3-5.4,7.5
	c-0.1,0.7,0,1.5,0.5,2c0.1,0.1,0.1,0.1,0.2,0.2h-7.9c-0.9-1.1-1.8-2.1-2.6-3.1c-0.8-1.1-1.6-2.2-1.9-3.5c-0.1-0.3-0.5-1.5-0.3-1.8
	c0.5-0.7,1.2,0.2,1.4,0.6c0.4,0.6,0.8,1.3,1.2,1.9c0.3,0.5,0.7,0.9,1.2,1.2c0.5,0.3,1.1,0.4,1.6,0.2c0.7-0.3,1-1.1,1.1-1.9
	c0.1-1.2-0.4-2.3-1.1-3.3c-0.7-1-1.5-1.8-2.3-2.7c-0.6-0.6-1.2-1.3-1.7-2c-0.6-0.7-3-5.3-1.2-5.9c0.4-0.1,0.9,0.1,1.3,0.4
	c0.3,0.3,0.6,0.7,0.9,1.1c0.7,0.8,1.8,1.3,2.9,1.2c0.3,0,0.6-0.1,0.8-0.2c0.4-0.3,0.5-0.7,0.5-1.2c0-1.4-0.8-2.6-1.6-3.8
	c-0.9-1.2-1.5-2.5-2.3-3.8c-0.9-1.5-1.9-2.7-2.1-4.5c1.6-1.5,3.2,3.4,5.3,2.7c1.5-0.5,0.8-2.7-0.1-4c-2-3-3.3-6.3-4.1-9.8
	c-0.4-1.7-0.7-3.5-0.9-5.3c-0.1-0.7,0-4.5-1.6-3.5c-0.5,0.3-0.6,0.9-0.8,1.5c-0.7,2.9-1.3,5.9-2.1,8.8c-0.6,2.3-0.9,5.5-2.4,7.4
	c-0.8,1.1-1.8,1.9-1.7,3.4c0,0.1,0,0.2,0.1,0.3c0.1,0.2,0.3,0.2,0.4,0.3c1.7,0.6,2.9-0.7,4-1.8c0.1-0.1,0.3-0.3,0.5-0.4
	c0.2-0.1,0.4-0.1,0.6,0.1c0.4,0.4,0,1.5,0,2c-0.2,1.5-0.9,2.9-1.8,4.1c-1.4,2-3.3,3.6-4.5,5.8c-0.2,0.4-0.4,0.9-0.4,1.4
	c0.1,1,1,1.5,1.9,1.5c1.2,0.1,1.8-0.8,2.3-1.8c0.3-0.7,0.6-1.4,1.2-1.7c0.2-0.1,0.4-0.1,0.5,0c0,0.1,0,0.1,0.1,0.2
	c0.1,1.4-0.2,2.8-0.8,4.1c-0.6,1.3-1.6,2.2-2.7,3.2c-0.6,0.5-1.1,1.1-1.5,1.8c-0.3,0.5-0.5,1.1-0.4,1.6c0.1,0.6,0.4,1.1,0.9,1.3
	c0.7,0.3,1.6-0.1,2.1-0.7c0.3-0.3,1.8-2.8,2.4-1.8c0.2,0.3-0.2,1.7-0.3,2.1c-0.3,1.3-0.7,2.6-1.2,3.9c-0.1,0.1-0.1,0.3-0.2,0.4
	l-10.6-10.6h-74.5c0.4-0.7,0.5-1.6,0.3-2.3c-0.6-2.9-3-4.9-4.8-7.1c-0.8-1.1-1.6-2.2-1.9-3.5c-0.1-0.3-0.5-1.5-0.3-1.8
	c0.5-0.7,1.2,0.2,1.4,0.6c0.4,0.6,0.8,1.3,1.2,1.9c0.3,0.5,0.7,0.9,1.2,1.2c0.5,0.3,1.1,0.4,1.6,0.2c0.7-0.3,1-1.1,1.1-1.9
	c0.1-1.2-0.4-2.3-1.1-3.3c-0.7-1-1.5-1.8-2.3-2.7c-0.6-0.6-1.2-1.3-1.7-2c-0.6-0.7-3-5.3-1.2-5.9c0.4-0.1,0.9,0.1,1.3,0.4
	c0.3,0.3,0.6,0.7,0.9,1.1c0.7,0.8,1.8,1.3,2.9,1.2c0.3,0,0.6-0.1,0.8-0.2c0.4-0.3,0.5-0.7,0.5-1.2c0-1.4-0.8-2.6-1.6-3.8
	c-0.9-1.2-1.5-2.5-2.3-3.8c-0.9-1.5-1.9-2.7-2.1-4.5c1.6-1.5,3.2,3.4,5.3,2.7c1.5-0.5,0.8-2.7-0.1-4c-2-3-3.3-6.3-4.1-9.8
	c-0.4-1.7-0.7-3.5-0.9-5.3c-0.1-0.7,0-4.5-1.6-3.5c-0.5,0.3-0.6,0.9-0.8,1.5c-0.7,2.9-1.3,5.9-2.1,8.8c-0.6,2.3-0.9,5.5-2.4,7.4
	c-0.8,1.1-1.8,1.9-1.7,3.4c0,0.1,0,0.2,0.1,0.3c0.1,0.2,0.3,0.2,0.4,0.3c1.7,0.6,2.9-0.7,4-1.8c0.1-0.1,0.3-0.3,0.5-0.4
	c0.2-0.1,0.4-0.1,0.6,0.1c0.4,0.4,0,1.5,0,2c-0.2,1.5-0.9,2.9-1.8,4.1c-1.4,2-3.3,3.6-4.5,5.8c-0.2,0.4-0.4,0.9-0.4,1.4
	c0.1,1,1,1.5,1.9,1.5c1.2,0.1,1.8-0.8,2.3-1.8c0.3-0.7,0.6-1.4,1.2-1.7c0.2-0.1,0.4-0.1,0.5,0c0,0.1,0,0.1,0.1,0.2
	c0.1,1.4-0.2,2.8-0.8,4.1c-0.6,1.3-1.6,2.2-2.7,3.2c-0.6,0.5-1.1,1.1-1.5,1.8c-0.3,0.5-0.5,1.1-0.4,1.6c0.1,0.6,0.4,1.1,0.9,1.3
	c0.7,0.3,1.6-0.1,2.1-0.7c0.3-0.3,1.8-2.8,2.4-1.8c0.2,0.3-0.2,1.7-0.3,2.1c-0.3,1.3-0.7,2.6-1.2,3.9c-1,2.6-2.6,4.9-4.5,6.9
	c-0.8,0.8-1.8,1.8-1.7,3c0,0.3,0.1,0.5,0.2,0.7h-22.6l-25-13.5h-104.5l-2.2,0.4c-0.9-2.3-2.9-4-4.4-5.9c-0.8-1.1-1.6-2.2-1.9-3.5
	c-0.1-0.3-0.5-1.5-0.3-1.8c0.5-0.7,1.2,0.2,1.4,0.6c0.4,0.6,0.8,1.3,1.2,1.9c0.3,0.5,0.7,0.9,1.2,1.2c0.5,0.3,1.1,0.4,1.6,0.2
	c0.7-0.3,1-1.1,1.1-1.9c0.1-1.2-0.4-2.3-1.1-3.3c-0.7-1-1.5-1.8-2.3-2.7c-0.6-0.6-1.2-1.3-1.7-2c-0.6-0.7-3-5.3-1.2-5.9
	c0.4-0.1,0.9,0.1,1.3,0.4c0.3,0.3,0.6,0.7,0.9,1.1c0.7,0.8,1.8,1.3,2.9,1.2c0.3,0,0.6-0.1,0.8-0.2c0.4-0.3,0.5-0.7,0.5-1.2
	c0-1.4-0.8-2.6-1.6-3.8c-0.9-1.2-1.5-2.5-2.3-3.8c-0.9-1.5-1.9-2.7-2.1-4.5c1.6-1.5,3.2,3.4,5.3,2.7c1.5-0.5,0.8-2.7-0.1-4
	c-2-3-3.3-6.3-4.1-9.8c-0.4-1.7-0.7-3.5-0.9-5.3c-0.1-0.7,0-4.5-1.6-3.5c-0.5,0.3-0.6,0.9-0.8,1.5c-0.7,2.9-1.3,5.9-2.1,8.8
	c-0.6,2.3-0.9,5.5-2.4,7.4c-0.8,1.1-1.8,1.9-1.7,3.4c0,0.1,0,0.2,0.1,0.3c0.1,0.2,0.3,0.2,0.4,0.3c1.7,0.6,2.9-0.7,4-1.8
	c0.1-0.1,0.3-0.3,0.5-0.4c0.2-0.1,0.4-0.1,0.6,0.1c0.4,0.4,0,1.5,0,2c-0.2,1.5-0.9,2.9-1.8,4.1c-1.4,2-3.3,3.6-4.5,5.8
	c-0.2,0.4-0.4,0.9-0.4,1.4c0.1,1,1,1.5,1.9,1.5c1.2,0.1,1.8-0.8,2.3-1.8c0.3-0.7,0.5-1.4,1.2-1.7c0.2-0.1,0.4-0.1,0.5,0
	c0,0.1,0,0.1,0.1,0.2c0.1,1.4-0.2,2.8-0.8,4.1c-0.6,1.3-1.6,2.2-2.7,3.2c-0.6,0.5-1.1,1.1-1.5,1.8c-0.3,0.5-0.5,1.1-0.4,1.6
	c0.1,0.6,0.4,1.1,0.9,1.3c0.7,0.3,1.6-0.1,2.1-0.7c0.3-0.3,1.8-2.8,2.4-1.8c0.2,0.3-0.2,1.7-0.3,2.1c-0.3,1.3-0.7,2.6-1.2,3.9
	c-1,2.6-2.6,4.9-4.5,6.9c-0.8,0.8-1.8,1.8-1.7,3c0,0.2,0.1,0.4,0.1,0.5l-51.5,9.8H774.2v145.5h800v-159H1500.7z M1023.4,243.1
	c0,0.1,0,0.1,0,0.2l-1.4,0.3c0.2-0.4,0.5-0.8,0.9-1c0.1-0.1,0.2-0.1,0.3-0.1C1023.4,242.5,1023.5,242.8,1023.4,243.1z M1195,252.7
	c-0.1,0.6-0.2,1.2-0.4,1.7h-1.9c0.5-0.8,0.8-1.7,1.7-2.3c0.1-0.1,0.2-0.1,0.3-0.1C1195,252,1195.1,252.4,1195,252.7z M1200,254.4
	c-0.3-0.8-0.4-1.6-0.2-2.4c1.2,0.1,1.8,1.5,2.6,2.4H1200z M1314.4,269h-3.9c0.9-0.5,1.8-1.4,2.4-2.3c1.1-1.8,3.2-4,4.9-2.7
	C1317.7,266.1,1316.1,267.8,1314.4,269z M1433.7,254.1c0-0.1,0-0.3-0.1-0.4c0.1,0.1,0.2,0.2,0.3,0.3L1433.7,254.1z M1486.5,240.9
	h-3.8c0.6-0.5,1.1-1.1,1.5-1.7c1.1-1.8,3.2-4,4.9-2.7C1489.1,238.3,1487.9,239.8,1486.5,240.9z M1495.9,240.9
	c-0.3-0.8-0.5-1.7-0.6-2.6c1.2,1,2.4,2,3.8,2.4c0.2,0.1,0.5,0.1,0.7,0.1H1495.9z"/>
<path id="XMLID_73_" class="st1" d="M789.3,137.1C789.3,137.1,789.3,137.1,789.3,137.1c0-1.4-0.8-2.7-1.6-3.8
	c-0.9-1.2-1.5-2.5-2.3-3.8c-0.9-1.5-1.9-2.7-2.1-4.5c1.6-1.5,3.2,3.4,5.3,2.7c1.5-0.5,0.8-2.7-0.1-4c-2-3-3.3-6.3-4.1-9.8
	c-0.4-1.7-0.7-3.5-0.9-5.3c-0.1-0.7,0-4.5-1.6-3.5c-0.5,0.3-0.6,0.9-0.8,1.5c-0.7,2.9-1.3,5.9-2.1,8.8c-0.6,2.3-0.9,5.5-2.4,7.4
	c-0.8,1.1-1.8,1.9-1.7,3.4c0,0.1,0,0.2,0.1,0.3c0.1,0.2,0.3,0.2,0.4,0.3c1.7,0.6,2.9-0.7,4-1.8c0.1-0.1,0.3-0.3,0.5-0.4
	c0.2-0.1,0.4-0.1,0.6,0.1c0.4,0.4,0,1.5,0,2c-0.2,1.5-0.9,2.9-1.8,4.1c-1.4,2-3.3,3.6-4.5,5.8c-0.1,0.1-0.1,0.3-0.2,0.5h-8.6l-58,58
	c-1-2.1-2.8-3.7-4.2-5.5c-0.8-1.1-1.6-2.2-1.9-3.5c-0.1-0.3-0.5-1.5-0.3-1.8c0.5-0.7,1.2,0.2,1.4,0.6c0.4,0.6,0.8,1.3,1.2,1.9
	c0.3,0.5,0.7,0.9,1.2,1.2c0.5,0.3,1.1,0.4,1.6,0.2c0.7-0.3,1-1.1,1.1-1.9c0.1-1.2-0.4-2.3-1.1-3.3c-0.7-1-1.5-1.8-2.3-2.7
	c-0.6-0.6-1.2-1.3-1.7-2c-0.6-0.7-3-5.3-1.2-5.9c0.4-0.1,0.9,0.1,1.3,0.4c0.3,0.3,0.6,0.7,0.9,1.1c0.7,0.8,1.8,1.3,2.9,1.2
	c0.3,0,0.6-0.1,0.8-0.2c0.4-0.3,0.5-0.7,0.5-1.2c0-1.4-0.8-2.6-1.6-3.8c-0.9-1.2-1.5-2.5-2.3-3.8c-0.9-1.5-1.9-2.7-2.1-4.5
	c1.6-1.5,3.2,3.4,5.3,2.7c1.5-0.5,0.8-2.7-0.1-4c-2-3-3.3-6.3-4.1-9.8c-0.4-1.7-0.7-3.5-0.9-5.3c-0.1-0.7,0-4.5-1.6-3.5
	c-0.5,0.3-0.6,0.9-0.8,1.5c-0.7,2.9-1.3,5.9-2.1,8.8c-0.6,2.3-0.9,5.5-2.4,7.4c-0.8,1.1-1.8,1.9-1.7,3.4c0,0.1,0,0.2,0.1,0.3
	c0.1,0.2,0.3,0.2,0.4,0.3c1.7,0.6,2.9-0.7,4-1.8c0.1-0.1,0.3-0.3,0.5-0.4c0.2-0.1,0.4-0.1,0.6,0.1c0.4,0.4,0,1.5,0,2
	c-0.2,1.5-0.9,2.9-1.8,4.1c-1.4,2-3.3,3.6-4.5,5.8c-0.2,0.4-0.4,0.9-0.4,1.4c0.1,1,1,1.5,1.9,1.5c1.2,0.1,1.8-0.8,2.3-1.8
	c0.3-0.7,0.6-1.4,1.2-1.7c0.2-0.1,0.4-0.1,0.5,0c0,0.1,0,0.1,0.1,0.2c0.1,1.4-0.2,2.8-0.8,4.1c-0.6,1.3-1.6,2.2-2.7,3.2
	c-0.6,0.5-1.1,1.1-1.5,1.8c-0.3,0.5-0.5,1.1-0.4,1.6c0.1,0.6,0.4,1.1,0.9,1.3c0.7,0.3,1.6-0.1,2.1-0.7c0.3-0.3,1.8-2.8,2.4-1.8
	c0.2,0.3-0.2,1.7-0.3,2.1c-0.3,1.3-0.7,2.6-1.2,3.9c-0.1,0.1-0.1,0.3-0.2,0.4l-3.1-3.1h-33.9c0.1-1.9-1.1-3.9-2.2-5.2
	c-1.8-2.1-4-4.5-3.5-7.3c1.9,0.2,2.4,3.4,4.3,3.3c1.4,0,1.9-1.9,1.6-3.2c-0.6-2.9-3-4.9-4.8-7.1c-0.8-1.1-1.6-2.2-1.9-3.5
	c-0.1-0.3-0.5-1.5-0.3-1.8c0.5-0.7,1.2,0.2,1.4,0.6c0.4,0.6,0.8,1.3,1.2,1.9c0.3,0.5,0.7,0.9,1.2,1.2c0.5,0.3,1.1,0.4,1.6,0.2
	c0.7-0.3,1-1.1,1.1-1.9c0.1-1.2-0.4-2.3-1.1-3.3c-0.7-1-1.5-1.8-2.3-2.7c-0.6-0.6-1.2-1.3-1.7-2c-0.6-0.7-3-5.3-1.2-5.9
	c0.4-0.1,0.9,0.1,1.3,0.4c0.3,0.3,0.6,0.7,0.9,1.1c0.7,0.8,1.8,1.3,2.9,1.2c0.3,0,0.6-0.1,0.8-0.2c0.4-0.3,0.5-0.7,0.5-1.2
	c0-1.4-0.8-2.6-1.6-3.8c-0.9-1.2-1.5-2.5-2.3-3.8c-0.9-1.5-1.9-2.7-2.1-4.5c1.6-1.5,3.2,3.4,5.3,2.7c1.5-0.5,0.8-2.7-0.1-4
	c-2-3-3.3-6.3-4.1-9.8c-0.4-1.7-0.7-3.5-0.9-5.3c-0.1-0.7,0-4.5-1.6-3.5c-0.5,0.3-0.6,0.9-0.8,1.5c-0.7,2.9-1.3,5.9-2.1,8.8
	c-0.6,2.3-0.9,5.5-2.4,7.4c-0.8,1.1-1.8,1.9-1.7,3.4c0,0.1,0,0.2,0.1,0.3c0.1,0.2,0.3,0.2,0.4,0.3c1.7,0.6,2.9-0.7,4-1.8
	c0.1-0.1,0.3-0.3,0.5-0.4c0.2-0.1,0.4-0.1,0.6,0.1c0.4,0.4,0,1.5,0,2c-0.2,1.5-0.9,2.9-1.8,4.1c-1.4,2-3.3,3.6-4.5,5.8
	c-0.2,0.4-0.4,0.9-0.4,1.4c0.1,1,1,1.5,1.9,1.5c1.2,0.1,1.8-0.8,2.3-1.8c0.3-0.7,0.6-1.4,1.2-1.7c0.2-0.1,0.4-0.1,0.5,0
	c0,0.1,0,0.1,0.1,0.2c0.1,1.4-0.2,2.8-0.8,4.1c-0.6,1.3-1.6,2.2-2.7,3.2c-0.6,0.5-1.1,1.1-1.5,1.8c-0.3,0.5-0.5,1.1-0.4,1.6
	c0.1,0.6,0.4,1.1,0.9,1.3c0.7,0.3,1.6-0.1,2.1-0.7c0.3-0.3,1.8-2.8,2.4-1.8c0.2,0.3-0.2,1.7-0.3,2.1c-0.3,1.3-0.7,2.6-1.2,3.9
	c-1,2.6-2.6,4.9-4.5,6.9c-0.8,0.8-1.8,1.8-1.7,3c0.1,1.6,2.1,2.3,3.4,1.9c1.9-0.5,1.8-2.5,3.2-3.5c0.1-0.1,0.2-0.1,0.3-0.1
	c0.3,0,0.3,0.4,0.3,0.7c-0.4,2.7-1.5,5.2-3,7.4c-0.8,1.1-1.7,2.2-2.4,3.4c-0.2,0.3-0.3,0.7-0.4,1h-9.6c-0.4-0.7-0.8-1.4-1.4-1.9
	c-0.6-0.7-1.4-1.2-2-1.9c-0.4-0.4-2.1-3.4-0.4-3.3c0.2,0,0.4,0.1,0.6,0.3c0.4,0.4,0.7,0.9,1.1,1.3c0.4,0.4,1,0.7,1.5,0.5
	c0.7-0.3,0.7-1.4,0.4-2.1c-0.5-1.6-1.4-3.1-2.5-4.4c-1-1.2-2.7-2.4-2.1-4.1c0.1-0.2,0.2-0.4,0.4-0.6c0.3-0.2,0.8-0.2,1.1,0
	c0.3,0.2,0.6,0.5,0.8,0.8c0.4,0.4,1.9,3,2.6,1.6c0.1-0.2,0.1-0.4,0.1-0.6c-0.1-2-0.8-3.9-1.9-5.6c-1-1.5-2.4-2.8-3.1-4.4
	c-0.4-1-0.5-2.8,0.9-2.8c1.2,0,2,1.4,2.9,1.9c0.7,0.4,1.9,0.3,2.1-0.5c0.1-0.3,0-0.7-0.1-1c-0.6-1.8-1.5-3.6-2.9-4.9
	c-1.3-1.3-2.4-2-3.1-3.8c-0.3-0.7-0.4-1.6,0.2-2c0.5-0.3,1.1-0.1,1.6,0.3s0.7,0.9,1.1,1.3s1.1,0.6,1.5,0.3c0.4-0.2,0.5-0.8,0.4-1.2
	c-0.1-0.4-0.3-0.8-0.6-1.2c-0.8-1.3-1.6-2.5-2.4-3.7c-0.6-1-1.6-2.2-1.8-3.3c-0.1-0.4,0-0.9,0.4-1.1c0.3-0.1,0.6,0,0.8,0.1
	c0.2,0.2,0.4,0.4,0.6,0.6c0.4,0.4,1,0.7,1.5,0.8c0.4,0.1,0.8,0,1.1-0.3c0.2-0.2,0.3-0.6,0.2-0.9c-0.1-1.3-1.2-2.3-2.1-3.2
	c-0.6-0.6-3.6-4.3-2.2-5.1c1.1-0.6,2.5,2.8,3.7,1.4c0.3-0.4,0.3-1,0.1-1.4c-0.2-0.5-0.5-1-0.9-1.3c-0.5-0.4-1.2-0.7-1.8-1
	c-0.8-0.4-2.6-3-1.2-3.6c1-0.5,1.8,1.1,2.5,1.5c0.3,0.1,0.6,0.2,0.8,0c0,0,0,0,0,0c0.1-0.1,0.1-0.2,0.1-0.3c0.1-1.6-0.7-3.2-1.6-4.5
	c-0.9-1.4-1.9-2.7-2.1-4.4c0-0.3-0.1-0.6,0-0.8c0.1-0.3,0.4-0.4,0.7-0.4c0.4,0.1,0.2,0.9,0.6,1.2c0.4,0.3,1,0.2,1.4,0
	c0.6-0.4,0.7-1.3,0.5-2c-0.2-0.7-0.7-1.3-1.1-1.9c-1.3-1.9-2.2-4-2.7-6.3c-0.4-2.2-0.1-4.3-0.1-6.5c0-0.6,0.1-3.5-0.9-3.5
	c-0.9,0.1-1,2.6-1,3.2c-0.3,4.9-0.7,10.2-3.9,14c-0.4,0.5-0.9,1-1,1.6c-0.1,0.6,0.3,1.3,0.8,1.5c0.6,0.3,1.3,0.2,1.7-0.3
	c0.3-0.3,0.7-1.1,1.2-0.6c0.2,0.2,0.3,0.5,0.3,0.8c0.1,2-0.8,4-1.9,5.7c-1.1,1.7-2.3,3.4-3,5.3c-0.2,0.6-0.3,1.3-0.2,1.9
	c0.2,0.6,0.7,1.2,1.3,1.2c1.1,0.1,1.2-0.9,2-1.3c0.4-0.2,0.9-0.2,1.2,0.1c0.2,0.2,0.3,0.5,0.2,0.8c-0.1,1.5-1.4,2.6-2.5,3.7
	c-1.3,1.2-2.2,2.8-2.9,4.4c-0.2,0.5-0.3,1-0.3,1.5c0,0.5,0.2,1.1,0.7,1.3c0.7,0.4,1.6,0.2,2.2-0.4c0.6-0.5,0.9-1.3,1.3-2
	c0.2-0.4,0.5-0.8,1-0.9c1.8-0.4,0.5,2.6,0.1,3.1c-2.1,2.8-5.1,5.5-4.9,9c0,0.6,0.2,1.2,0.7,1.4c0.7,0.3,1.5-0.4,2-1.1
	c0.3-0.4,2.3-4.6,2.6-2.4c0.3,2.1-1.3,3-2.4,4.4c-1.3,1.6-2.3,3.4-2.8,5.3c-0.2,0.8-0.3,2,0.5,2.3c1.2,0.5,1.7-1.2,2.4-1.7
	c0.8-0.6,1.9-0.3,2.1,0.7c0.1,0.6-0.1,1.3-0.4,1.8c-1.3,2.3-4,3.7-4.9,6.2c-0.2,0.7-0.3,1.6,0.3,2c1,0.7,1.9-0.5,2.5-1.1
	c0.2-0.2,0.5-0.4,0.7-0.4c0.3,0,0.6,0.3,0.6,0.6c0.1,0.3,0,0.6-0.1,0.9c-0.8,2.6-3,3.7-4.6,5.7c-0.7,0.9-1.1,1.9-1.3,3
	c-0.1,0.5-0.1,1.1,0.1,1.6c0.2,0.5,0.7,0.9,1.2,0.9c0.7,0,1.2-0.7,1.4-1.3c0.3-0.6,0.4-1.4,0.9-1.9c0.6-0.6,1.9-0.5,2,0.5
	c0.1,0.8-1.2,1.8-1.6,2.4c-0.9,1.4-1.7,2.8-2.6,4.2h-10.4l-26.8,26.8c-0.5-0.6-1-1.2-1.5-1.7c-1.8-1.8-3.1-4.1-3.7-6.5
	c0.8,1,1.8,2,2.8,2.7c0.8,0.6,1.6,0.5,1.9-0.5c0.1-0.4,0.1-0.9,0.1-1.3c-0.1-0.9-0.3-1.9-0.6-2.8c-0.7-1.5-1.9-2.6-3-3.8
	c-1.1-1.2-1.9-2.9-1.6-4.4c0.1-0.3,0.2-0.5,0.4-0.6c0.4-0.2,0.8,0.1,1,0.5c0.5,0.8,0.5,1.3,1.5,1c0.7-0.2,1.2-1.1,1.1-1.8
	c0-0.6-0.3-1.1-0.6-1.6c-1.5-2.6-4.6-5-4.1-8.4c0-0.2,0.1-0.5,0.3-0.7c0.5-0.4,1.1,0.1,1.5,0.6c0.3,0.5,0.8,1.1,1.4,0.9
	c0.5-0.2,0.5-1,0.4-1.5c-0.6-2.6-2.3-4.7-3.3-7.2c-0.3-0.6-0.5-1.3-0.4-2c0-0.1,0-0.3,0.1-0.4c0.2-0.2,0.6-0.2,0.8,0
	c0.5,0.5,0.6,1.4,1.5,1.5c0.8,0.1,1.5-0.9,1.4-1.7c-0.1-0.8-0.6-1.6-1.1-2.3c-3.3-5.3-3.3-12.2-5.3-18c-0.1-0.2-0.2-0.5-0.4-0.6
	c-0.4-0.3-1,0-1.2,0.4c-0.2,0.4-0.1,0.9-0.1,1.4c0.5,4-0.3,8-1,11.9c-0.3,1.5-0.6,3-1.1,4.4c-0.7,1.8-1.7,3.5-2.4,5.4
	c-0.4,0.9-0.5,2.3,0.5,2.6c1.2,0.4,2-1.5,3.2-1.5c2,0.1,0.4,2.8,0,3.6c-0.9,1.8-2.4,3.5-2.4,5.6c0,0.3,0,0.6,0.2,0.8
	c1.1,1.7,2.6-1,3.1-1.7c0.2-0.3,0.7-0.5,1-0.3c0.3,0.2,0.3,0.6,0.3,1c-0.4,4.2-4.8,6.8-5.9,10.8c-0.1,0.5-0.2,1.1,0,1.5
	c0.5,1.1,2.2,0.8,3.1,0c0.6-0.6,1-1.4,1.6-2c0.6-0.6,1.8-0.9,1.5,0.5c-0.1,0.5-0.4,0.9-0.8,1.2c-0.9,1-1.9,2.1-2.9,3
	c-0.5,0.5-1.1,1-1.5,1.5c-0.5,0.7-0.8,1.6-1.1,2.4c-0.2,0.7-0.4,1.7,0.2,2.2c0.4,0.3,0.9,0.3,1.4,0.1c0.4-0.2,0.8-0.6,1.1-0.9
	c0.5-0.6,1-1.3,1.4-2c0.2-0.2,0.6,0,0.7,0.3c0.1,0.3,0.1,0.6,0.1,0.8c-0.4,2.3-1.5,3.4-3.1,4.9c-1.8,1.6-3.9,3.3-4.1,5.7
	c0,0.4,0,0.9,0.2,1.3h-62.6c0-0.1,0-0.2,0-0.3c0-1.4-0.8-2.6-1.6-3.8c-0.9-1.2-1.5-2.5-2.3-3.8c-0.9-1.5-1.9-2.7-2.1-4.5
	c1.6-1.5,3.2,3.4,5.3,2.7c1.5-0.5,0.8-2.7-0.1-4c-2-3-3.3-6.3-4.1-9.8c-0.4-1.7-0.7-3.5-0.9-5.3c-0.1-0.7,0-4.5-1.6-3.5
	c-0.5,0.3-0.6,0.9-0.8,1.5c-0.7,2.9-1.3,5.9-2.1,8.8c-0.6,2.3-0.9,5.5-2.4,7.4c-0.8,1.1-1.8,1.9-1.7,3.4c0,0.1,0,0.2,0.1,0.3
	c0.1,0.2,0.3,0.2,0.4,0.3c1.7,0.6,2.9-0.7,4-1.8c0.1-0.1,0.3-0.3,0.5-0.4c0.2-0.1,0.4-0.1,0.6,0.1c0.4,0.4,0,1.5,0,2
	c-0.2,1.5-0.9,2.9-1.8,4.1c-1.4,2-3.3,3.6-4.5,5.8c-0.2,0.4-0.4,0.9-0.4,1.4c0.1,1,1,1.5,1.9,1.5c1.2,0.1,1.8-0.8,2.3-1.8
	c0.3-0.7,0.6-1.4,1.2-1.7c0.2-0.1,0.4-0.1,0.5,0c0,0.1,0,0.1,0.1,0.2c0.1,1.2-0.1,2.4-0.6,3.6l-10.5,3.7c0,0,0,0,0,0
	c-0.6-2.9-3-4.9-4.8-7.1c-0.8-1.1-1.6-2.2-1.9-3.5c-0.1-0.3-0.5-1.5-0.3-1.8c0.5-0.7,1.2,0.2,1.4,0.6c0.4,0.6,0.8,1.3,1.2,1.9
	c0.3,0.5,0.7,0.9,1.2,1.2c0.5,0.3,1.1,0.4,1.6,0.2c0.7-0.3,1-1.1,1.1-1.9c0.1-1.2-0.4-2.3-1.1-3.3c-0.7-1-1.5-1.8-2.3-2.7
	c-0.6-0.6-1.2-1.3-1.7-2c-0.6-0.7-3-5.3-1.2-5.9c0.4-0.1,0.9,0.1,1.3,0.4c0.3,0.3,0.6,0.7,0.9,1.1c0.7,0.8,1.8,1.3,2.9,1.2
	c0.3,0,0.6-0.1,0.8-0.2c0.4-0.3,0.5-0.7,0.5-1.2c0-1.4-0.8-2.6-1.6-3.8c-0.9-1.2-1.5-2.5-2.3-3.8c-0.9-1.5-1.9-2.7-2.1-4.5
	c1.6-1.5,3.2,3.4,5.3,2.7c1.5-0.5,0.8-2.7-0.1-4c-2-3-3.3-6.3-4.1-9.8c-0.4-1.7-0.7-3.5-0.9-5.3c-0.1-0.7,0-4.5-1.6-3.5
	c-0.5,0.3-0.6,0.9-0.8,1.5c-0.7,2.9-1.3,5.9-2.1,8.8c-0.6,2.3-0.9,5.5-2.4,7.4c-0.8,1.1-1.8,1.9-1.7,3.4c0,0.1,0,0.2,0.1,0.3
	c0.1,0.2,0.3,0.2,0.4,0.3c1.7,0.6,2.9-0.7,4-1.8c0.1-0.1,0.3-0.3,0.5-0.4c0.2-0.1,0.4-0.1,0.6,0.1c0.4,0.4,0,1.5,0,2
	c-0.2,1.5-0.9,2.9-1.8,4.1c-1.4,2-3.3,3.6-4.5,5.8c-0.2,0.4-0.4,0.9-0.4,1.4c0.1,1,1,1.5,1.9,1.5c1.2,0.1,1.8-0.8,2.3-1.8
	c0.3-0.7,0.6-1.4,1.2-1.7c0.2-0.1,0.4-0.1,0.5,0c0,0.1,0,0.1,0.1,0.2c0.1,1.4-0.2,2.8-0.8,4.1c-0.6,1.3-1.6,2.2-2.7,3.2
	c-0.6,0.5-1.1,1.1-1.5,1.8c-0.3,0.5-0.5,1.1-0.4,1.6c0.1,0.6,0.4,1.1,0.9,1.3c0.7,0.3,1.6-0.1,2.1-0.7c0.3-0.3,1.8-2.8,2.4-1.8
	c0.2,0.3-0.2,1.7-0.3,2.1c-0.3,1.3-0.7,2.6-1.2,3.9c-1,2.6-2.6,4.9-4.5,6.9c-0.8,0.8-1.8,1.8-1.7,3c0.1,1.6,2.1,2.3,3.4,1.9
	c1.9-0.5,1.8-2.5,3.2-3.5c0.1-0.1,0.2-0.1,0.3-0.1c0.3,0,0.3,0.4,0.3,0.7c-0.2,1.2-0.6,2.5-1,3.6l-17,6.1c-0.4-0.4-0.8-0.9-1.1-1.3
	c-0.6-0.7-3-5.3-1.2-5.9c0.4-0.1,0.9,0.1,1.3,0.4c0.3,0.3,0.6,0.7,0.9,1.1c0.7,0.8,1.8,1.3,2.9,1.2c0.3,0,0.6-0.1,0.8-0.2
	c0.4-0.3,0.5-0.7,0.5-1.2c0-1.4-0.8-2.6-1.6-3.8c-0.9-1.2-1.5-2.5-2.3-3.8c-0.9-1.5-1.9-2.7-2.1-4.5c1.6-1.5,3.2,3.4,5.3,2.7
	c1.5-0.5,0.8-2.7-0.1-4c-2-3-3.3-6.3-4.1-9.8c-0.4-1.7-0.7-3.5-0.9-5.3c-0.1-0.7,0-4.5-1.6-3.5c-0.5,0.3-0.6,0.9-0.8,1.5
	c-0.7,2.9-1.3,5.9-2.1,8.8c-0.6,2.3-0.9,5.5-2.4,7.4c-0.8,1.1-1.8,1.9-1.7,3.4c0,0.1,0,0.2,0.1,0.3c0.1,0.2,0.3,0.2,0.4,0.3
	c1.7,0.6,2.9-0.7,4-1.8c0.1-0.1,0.3-0.3,0.5-0.4c0.2-0.1,0.4-0.1,0.6,0.1c0.4,0.4,0,1.5,0,2c-0.2,1.5-0.9,2.9-1.8,4.1
	c-1.4,2-3.3,3.6-4.5,5.8c-0.2,0.4-0.4,0.9-0.4,1.4c0.1,1,1,1.5,1.9,1.5c1.2,0.1,1.8-0.8,2.3-1.8c0.3-0.7,0.6-1.4,1.2-1.7
	c0.2-0.1,0.4-0.1,0.5,0c0,0.1,0,0.1,0.1,0.2c0.1,1.4-0.2,2.8-0.8,4.1c-0.6,1.3-1.6,2.2-2.7,3.2c-0.6,0.5-1.1,1.1-1.5,1.8
	c-0.3,0.5-0.5,1.1-0.4,1.6l-10.7,3.8h-38.9l-19-8.8c-0.7-0.9-1.5-1.8-2.2-2.6c-0.6-0.6-1.2-1.3-1.7-2c-0.6-0.7-3-5.3-1.2-5.9
	c0.4-0.1,0.9,0.1,1.3,0.4c0.3,0.3,0.6,0.7,0.9,1.1c0.7,0.8,1.8,1.3,2.9,1.2c0.3,0,0.6-0.1,0.8-0.2c0.4-0.3,0.5-0.7,0.5-1.2
	c0-1.4-0.8-2.6-1.6-3.8c-0.9-1.2-1.5-2.5-2.3-3.8c-0.9-1.5-1.9-2.7-2.1-4.5c1.6-1.5,3.2,3.4,5.3,2.7c1.5-0.5,0.8-2.7-0.1-4
	c-2-3-3.3-6.3-4.1-9.8c-0.4-1.7-0.7-3.5-0.9-5.3c-0.1-0.7,0-4.5-1.6-3.5c-0.5,0.3-0.6,0.9-0.8,1.5c-0.7,2.9-1.3,5.9-2.1,8.8
	c-0.6,2.3-0.9,5.5-2.4,7.4c-0.8,1.1-1.8,1.9-1.7,3.4c0,0.1,0,0.2,0.1,0.3c0.1,0.2,0.3,0.2,0.4,0.3c1.7,0.6,2.9-0.7,4-1.8
	c0.1-0.1,0.3-0.3,0.5-0.4c0.2-0.1,0.4-0.1,0.6,0.1c0.4,0.4,0,1.5,0,2c-0.2,1.5-0.9,2.9-1.8,4.1c-1.4,2-3.3,3.6-4.5,5.8
	c-0.2,0.4-0.4,0.9-0.4,1.4c0.1,1,1,1.5,1.9,1.5c1.2,0.1,1.8-0.8,2.3-1.8c0.3-0.7,0.5-1.4,1.2-1.7c0.2-0.1,0.4-0.1,0.5,0
	c0,0.1,0,0.1,0.1,0.2c0.1,1.4-0.2,2.8-0.8,4.1c-0.2,0.5-0.5,0.8-0.8,1.2l-6.2-2.9c0-1.1-0.4-2.2-1.1-3.1c-0.7-1-1.5-1.8-2.3-2.7
	c-0.6-0.6-1.2-1.3-1.7-2c-0.6-0.7-3-5.3-1.2-5.9c0.4-0.1,0.9,0.1,1.3,0.4c0.3,0.3,0.6,0.7,0.9,1.1c0.7,0.8,1.8,1.3,2.9,1.2
	c0.3,0,0.6-0.1,0.8-0.2c0.4-0.3,0.5-0.7,0.5-1.2c0-1.4-0.8-2.6-1.6-3.8c-0.9-1.2-1.5-2.5-2.3-3.8c-0.9-1.5-1.9-2.7-2.1-4.5
	c1.6-1.5,3.2,3.4,5.3,2.7c1.5-0.5,0.8-2.7-0.1-4c-2-3-3.3-6.3-4.1-9.8c-0.4-1.7-0.7-3.5-0.9-5.3c-0.1-0.7,0-4.5-1.6-3.5
	c-0.5,0.3-0.6,0.9-0.8,1.5c-0.7,2.9-1.3,5.9-2.1,8.8c-0.6,2.3-0.9,5.5-2.4,7.4c-0.8,1.1-1.8,1.9-1.7,3.4c0,0.1,0,0.2,0.1,0.3
	c0.1,0.2,0.3,0.2,0.4,0.3c1.7,0.6,2.9-0.7,4-1.8c0.1-0.1,0.3-0.3,0.5-0.4c0.2-0.1,0.4-0.1,0.6,0.1c0.4,0.4,0,1.5,0,2
	c-0.2,1.5-0.9,2.9-1.8,4.1c-1.4,2-3.3,3.6-4.5,5.8c-0.2,0.4-0.4,0.9-0.4,1.4c0.1,1,1,1.5,1.9,1.5c1.2,0.1,1.8-0.8,2.3-1.8
	c0.3-0.7,0.6-1.4,1.2-1.7c0.2-0.1,0.4-0.1,0.5,0c0,0.1,0,0.1,0.1,0.2c0.1,1.4-0.2,2.8-0.8,4.1c-0.6,1.3-1.5,2.1-2.6,3.1l-9.8-4.5
	c-0.3-1.5-1.2-2.9-2.1-4c-1.8-2.1-4-4.5-3.5-7.3c1.9,0.2,2.4,3.4,4.3,3.3c1.4,0,1.9-1.9,1.6-3.2c-0.6-2.9-3-4.9-4.8-7.1
	c-0.8-1.1-1.6-2.2-1.9-3.5c-0.1-0.3-0.5-1.5-0.3-1.8c0.5-0.7,1.2,0.2,1.4,0.6c0.4,0.6,0.8,1.3,1.2,1.9c0.3,0.5,0.7,0.9,1.2,1.2
	c0.5,0.3,1.1,0.4,1.6,0.2c0.7-0.3,1-1.1,1.1-1.9c0.1-1.2-0.4-2.3-1.1-3.3c-0.7-1-1.5-1.8-2.3-2.7c-0.6-0.6-1.2-1.3-1.7-2
	c-0.6-0.7-3-5.3-1.2-5.9c0.4-0.1,0.9,0.1,1.3,0.4c0.3,0.3,0.6,0.7,0.9,1.1c0.7,0.8,1.8,1.3,2.9,1.2c0.3,0,0.6-0.1,0.8-0.2
	c0.4-0.3,0.5-0.7,0.5-1.2c0-1.4-0.8-2.6-1.6-3.8c-0.9-1.2-1.5-2.5-2.3-3.8c-0.9-1.5-1.9-2.7-2.1-4.5c1.6-1.5,3.2,3.4,5.3,2.7
	c1.5-0.5,0.8-2.7-0.1-4c-2-3-3.3-6.3-4.1-9.8c-0.4-1.7-0.7-3.5-0.9-5.3c-0.1-0.7,0-4.5-1.6-3.5c-0.5,0.3-0.6,0.9-0.8,1.5
	c-0.7,2.9-1.3,5.9-2.1,8.8c-0.6,2.3-0.9,5.5-2.4,7.4c-0.8,1.1-1.8,1.9-1.7,3.4c0,0.1,0,0.2,0.1,0.3c0.1,0.2,0.3,0.2,0.4,0.3
	c1.7,0.6,2.9-0.7,4-1.8c0.1-0.1,0.3-0.3,0.5-0.4c0.2-0.1,0.4-0.1,0.6,0.1c0.4,0.4,0,1.5,0,2c-0.2,1.5-0.9,2.9-1.8,4.1
	c-1.4,2-3.3,3.6-4.5,5.8c-0.2,0.4-0.4,0.9-0.4,1.4c0.1,1,1,1.5,1.9,1.5c1.2,0.1,1.8-0.8,2.3-1.8c0.3-0.7,0.6-1.4,1.2-1.7
	c0.2-0.1,0.4-0.1,0.5,0c0,0.1,0,0.1,0.1,0.2c0.1,1.4-0.2,2.8-0.8,4.1c-0.6,1.3-1.6,2.2-2.7,3.2c-0.6,0.5-1.1,1.1-1.5,1.8
	c-0.3,0.5-0.5,1.1-0.4,1.6c0.1,0.6,0.4,1.1,0.9,1.3c0.7,0.3,1.6-0.1,2.1-0.7c0.3-0.3,1.8-2.8,2.4-1.8c0.2,0.3-0.2,1.7-0.3,2.1
	c-0.3,1.3-0.7,2.6-1.2,3.9c-1,2.6-2.6,4.9-4.5,6.9c-0.8,0.8-1.8,1.8-1.7,3c0.1,1.6,2.1,2.3,3.4,1.9c1.9-0.5,1.8-2.5,3.2-3.5
	c0.1-0.1,0.2-0.1,0.3-0.1c0.3,0,0.3,0.4,0.3,0.7c-0.3,1.7-0.9,3.4-1.6,5l-16.5-7.6c0.6-0.4,0.8-1.1,0.9-1.8c0.1-1.2-0.4-2.3-1.1-3.3
	c-0.7-1-1.5-1.8-2.3-2.7c-0.6-0.6-1.2-1.3-1.7-2c-0.6-0.7-3-5.3-1.2-5.9c0.4-0.1,0.9,0.1,1.3,0.4c0.3,0.3,0.6,0.7,0.9,1.1
	c0.7,0.8,1.8,1.3,2.9,1.2c0.3,0,0.6-0.1,0.8-0.2c0.4-0.3,0.5-0.7,0.5-1.2c0-1.4-0.8-2.6-1.6-3.8c-0.9-1.2-1.5-2.5-2.3-3.8
	c-0.9-1.5-1.9-2.7-2.1-4.5c1.6-1.5,3.2,3.4,5.3,2.7c1.5-0.5,0.8-2.7-0.1-4c-2-3-3.3-6.3-4.1-9.8c-0.4-1.7-0.7-3.5-0.9-5.3
	c-0.1-0.7,0-4.5-1.6-3.5c-0.5,0.3-0.6,0.9-0.8,1.5c-0.7,2.9-1.3,5.9-2.1,8.8c-0.6,2.3-0.9,5.5-2.4,7.4c-0.8,1.1-1.8,1.9-1.7,3.4
	c0,0.1,0,0.2,0.1,0.3c0.1,0.2,0.3,0.2,0.4,0.3c1.7,0.6,2.9-0.7,4-1.8c0.1-0.1,0.3-0.3,0.5-0.4c0.2-0.1,0.4-0.1,0.6,0.1
	c0.4,0.4,0,1.5,0,2c-0.2,1.5-0.9,2.9-1.8,4.1c-1.4,2-3.3,3.6-4.5,5.8c-0.2,0.4-0.4,0.9-0.4,1.4c0.1,1,1,1.5,1.9,1.5
	c1.2,0.1,1.8-0.8,2.3-1.8c0.3-0.7,0.6-1.4,1.2-1.7c0.2-0.1,0.4-0.1,0.5,0c0,0.1,0,0.1,0.1,0.2c0.1,1.4-0.2,2.8-0.8,4.1
	c-0.6,1.3-1.6,2.2-2.7,3.2c-0.5,0.5-1,1-1.4,1.6l-15.9-7.3c-0.2-0.3-0.5-0.5-0.7-0.8c-0.6-0.6-1.2-1.3-1.7-2c-0.6-0.7-3-5.3-1.2-5.9
	c0.4-0.1,0.9,0.1,1.3,0.4c0.3,0.3,0.6,0.7,0.9,1.1c0.7,0.8,1.8,1.3,2.9,1.2c0.3,0,0.6-0.1,0.8-0.2c0.4-0.3,0.5-0.7,0.5-1.2
	c0-1.4-0.8-2.6-1.6-3.8c-0.9-1.2-1.5-2.5-2.3-3.8c-0.9-1.5-1.9-2.7-2.1-4.5c1.6-1.5,3.2,3.4,5.3,2.7c1.5-0.5,0.8-2.7-0.1-4
	c-2-3-3.3-6.3-4.1-9.8c-0.4-1.7-0.7-3.5-0.9-5.3c-0.1-0.7,0-4.5-1.6-3.5c-0.5,0.3-0.6,0.9-0.8,1.5c-0.7,2.9-1.3,5.9-2.1,8.8
	c-0.6,2.3-0.9,5.5-2.4,7.4c-0.8,1.1-1.8,1.9-1.7,3.4c0,0.1,0,0.2,0.1,0.3c0.1,0.2,0.3,0.2,0.4,0.3c1.7,0.6,2.9-0.7,4-1.8
	c0.1-0.1,0.3-0.3,0.5-0.4c0.2-0.1,0.4-0.1,0.6,0.1c0.4,0.4,0,1.5,0,2c-0.2,1.5-0.9,2.9-1.8,4.1c-1.4,2-3.3,3.6-4.5,5.8
	c-0.2,0.4-0.4,0.9-0.4,1.4c0,0.2,0.1,0.4,0.2,0.5l-4-1.8c-0.6-0.9-1.4-1.7-2.2-2.5c-0.6-0.6-1.2-1.3-1.7-2c-0.6-0.7-3-5.3-1.2-5.9
	c0.4-0.1,0.9,0.1,1.3,0.4c0.3,0.3,0.6,0.7,0.9,1.1c0.7,0.8,1.8,1.3,2.9,1.2c0.3,0,0.6-0.1,0.8-0.2c0.4-0.3,0.5-0.7,0.5-1.2
	c0-1.4-0.8-2.6-1.6-3.8c-0.9-1.2-1.5-2.5-2.3-3.8c-0.9-1.5-1.9-2.7-2.1-4.5c1.6-1.5,3.2,3.4,5.3,2.7c1.5-0.5,0.8-2.7-0.1-4
	c-2-3-3.3-6.3-4.1-9.8c-0.4-1.7-0.7-3.5-0.9-5.3c-0.1-0.7,0-4.5-1.6-3.5c-0.5,0.3-0.6,0.9-0.8,1.5c-0.7,2.9-1.3,5.9-2.1,8.8
	c-0.6,2.3-0.9,5.5-2.4,7.4c-0.8,1.1-1.8,1.9-1.7,3.4c0,0.1,0,0.2,0.1,0.3c0.1,0.2,0.3,0.2,0.4,0.3c1.7,0.6,2.9-0.7,4-1.8
	c0.1-0.1,0.3-0.3,0.5-0.4c0.2-0.1,0.4-0.1,0.6,0.1c0.4,0.4,0,1.5,0,2c-0.2,1.5-0.9,2.9-1.8,4.1c-1.4,2-3.3,3.6-4.5,5.8
	c-0.2,0.4-0.4,0.9-0.4,1.4c0.1,1,1,1.5,1.9,1.5c1.2,0.1,1.8-0.8,2.3-1.8c0.3-0.7,0.6-1.4,1.2-1.7c0.2-0.1,0.4-0.1,0.5,0
	c0,0.1,0,0.1,0.1,0.2c0.1,1.4-0.2,2.8-0.8,4.1c-0.2,0.4-0.5,0.8-0.7,1.2l-18.8-8.7c-0.8-0.9-1.6-1.8-2.3-2.7
	c-0.8-1.1-1.6-2.2-1.9-3.5c-0.1-0.3-0.5-1.5-0.3-1.8c0.5-0.7,1.2,0.2,1.4,0.6c0.4,0.6,0.8,1.3,1.2,1.9c0.3,0.5,0.7,0.9,1.2,1.2
	c0.5,0.3,1.1,0.4,1.6,0.2c0.7-0.3,1-1.1,1.1-1.9c0.1-1.2-0.4-2.3-1.1-3.3c-0.7-1-1.5-1.8-2.3-2.7c-0.6-0.6-1.2-1.3-1.7-2
	c-0.6-0.7-3-5.3-1.2-5.9c0.4-0.1,0.9,0.1,1.3,0.4c0.3,0.3,0.6,0.7,0.9,1.1c0.7,0.8,1.8,1.3,2.9,1.2c0.3,0,0.6-0.1,0.8-0.2
	c0.4-0.3,0.5-0.7,0.5-1.2c0-1.4-0.8-2.6-1.6-3.8c-0.9-1.2-1.5-2.5-2.3-3.8c-0.9-1.5-1.9-2.7-2.1-4.5c1.6-1.5,3.2,3.4,5.3,2.7
	c1.5-0.5,0.8-2.7-0.1-4c-2-3-3.3-6.3-4.1-9.8c-0.4-1.7-0.7-3.5-0.9-5.3c-0.1-0.7,0-4.5-1.6-3.5c-0.5,0.3-0.6,0.9-0.8,1.5
	c-0.7,2.9-1.3,5.9-2.1,8.8c-0.6,2.3-0.9,5.5-2.4,7.4c-0.8,1.1-1.8,1.9-1.7,3.4c0,0.1,0,0.2,0.1,0.3c0.1,0.2,0.3,0.2,0.4,0.3
	c1.7,0.6,2.9-0.7,4-1.8c0.1-0.1,0.3-0.3,0.5-0.4c0.2-0.1,0.4-0.1,0.6,0.1c0.4,0.4,0,1.5,0,2c-0.2,1.5-0.9,2.9-1.8,4.1
	c-1.4,2-3.3,3.6-4.5,5.8c-0.2,0.4-0.4,0.9-0.4,1.4c0.1,1,1,1.5,1.9,1.5c1.2,0.1,1.8-0.8,2.3-1.8c0.3-0.7,0.6-1.4,1.2-1.7
	c0.2-0.1,0.4-0.1,0.5,0c0,0.1,0,0.1,0.1,0.2c0.1,1.4-0.2,2.8-0.8,4.1c-0.6,1.3-1.6,2.2-2.7,3.2c-0.6,0.5-1.1,1.1-1.5,1.8
	c-0.3,0.5-0.5,1.1-0.4,1.6c0.1,0.6,0.4,1.1,0.9,1.3c0.7,0.3,1.6-0.1,2.1-0.7c0.3-0.3,1.8-2.8,2.4-1.8c0.2,0.3-0.2,1.7-0.3,2.1
	c-0.3,1.2-0.6,2.5-1.1,3.6l-17.3-8c0,0,0,0,0,0c0-1.4-0.8-2.6-1.6-3.8c-0.9-1.2-1.5-2.5-2.3-3.8c-0.9-1.5-1.9-2.7-2.1-4.5
	c1.6-1.5,3.2,3.4,5.3,2.7c1.5-0.5,0.8-2.7-0.1-4c-2-3-3.3-6.3-4.1-9.8c-0.4-1.7-0.7-3.5-0.9-5.3c-0.1-0.7,0-4.5-1.6-3.5
	c-0.5,0.3-0.6,0.9-0.8,1.5c-0.7,2.9-1.3,5.9-2.1,8.8c-0.6,2.3-0.9,5.5-2.4,7.4c-0.8,1.1-1.8,1.9-1.7,3.4c0,0.1,0,0.2,0.1,0.3
	c0.1,0.2,0.3,0.2,0.4,0.3c1.7,0.6,2.9-0.7,4-1.8c0.1-0.1,0.3-0.3,0.5-0.4c0.2-0.1,0.4-0.1,0.6,0.1c0.4,0.4,0,1.5,0,2
	c-0.2,1.5-0.9,2.9-1.8,4.1c-0.2,0.3-0.5,0.6-0.7,0.9l-8.5-3.9c-0.4-0.5-0.9-1-1.4-1.5c-0.6-0.6-1.2-1.3-1.7-2
	c-0.6-0.7-3-5.3-1.2-5.9c0.4-0.1,0.9,0.1,1.3,0.4c0.3,0.3,0.6,0.7,0.9,1.1c0.7,0.8,1.8,1.3,2.9,1.2c0.3,0,0.6-0.1,0.8-0.2
	c0.4-0.3,0.5-0.7,0.5-1.2c0-1.4-0.8-2.6-1.6-3.8c-0.9-1.2-1.5-2.5-2.3-3.8c-0.9-1.5-1.9-2.7-2.1-4.5c1.6-1.5,3.2,3.4,5.3,2.7
	c1.5-0.5,0.8-2.7-0.1-4c-2-3-3.3-6.3-4.1-9.8c-0.4-1.7-0.7-3.5-0.9-5.3c-0.1-0.7,0-4.5-1.6-3.5c-0.5,0.3-0.6,0.9-0.8,1.5
	c-0.7,2.9-1.3,5.9-2.1,8.8c-0.6,2.3-0.9,5.5-2.4,7.4c-0.8,1.1-1.8,1.9-1.7,3.4c0,0.1,0,0.2,0.1,0.3c0.1,0.2,0.3,0.2,0.4,0.3
	c1.7,0.6,2.9-0.7,4-1.8c0.1-0.1,0.3-0.3,0.5-0.4c0.2-0.1,0.4-0.1,0.6,0.1c0.4,0.4,0,1.5,0,2c-0.2,1.5-0.9,2.9-1.8,4.1
	c-1.4,2-3.3,3.6-4.5,5.8c-0.2,0.4-0.4,0.9-0.4,1.4c0.1,1,1,1.5,1.9,1.5c1.2,0.1,1.8-0.8,2.3-1.8c0.3-0.7,0.6-1.4,1.2-1.7
	c0.2-0.1,0.4-0.1,0.5,0c0,0.1,0,0.1,0.1,0.2c0.1,1.4-0.2,2.8-0.8,4.1c-0.1,0.3-0.3,0.5-0.4,0.7l-11.9-5.5c-0.1-1.8-1.2-3.6-2.3-4.9
	c-1.8-2.1-4-4.5-3.5-7.3c1.9,0.2,2.4,3.4,4.3,3.3c1.4,0,1.9-1.9,1.6-3.2c-0.6-2.9-3-4.9-4.8-7.1c-0.8-1.1-1.6-2.2-1.9-3.5
	c-0.1-0.3-0.5-1.5-0.3-1.8c0.5-0.7,1.2,0.2,1.4,0.6c0.4,0.6,0.8,1.3,1.2,1.9c0.3,0.5,0.7,0.9,1.2,1.2s1.1,0.4,1.6,0.2
	c0.7-0.3,1-1.1,1.1-1.9c0.1-1.2-0.4-2.3-1.1-3.3c-0.7-1-1.5-1.8-2.3-2.7c-0.6-0.6-1.2-1.3-1.7-2c-0.6-0.7-3-5.3-1.2-5.9
	c0.4-0.1,0.9,0.1,1.3,0.4c0.3,0.3,0.6,0.7,0.9,1.1c0.7,0.8,1.8,1.3,2.9,1.2c0.3,0,0.6-0.1,0.8-0.2c0.4-0.3,0.5-0.7,0.5-1.2
	c0-1.4-0.8-2.6-1.6-3.8c-0.9-1.2-1.5-2.5-2.3-3.8c-0.9-1.5-1.9-2.7-2.1-4.5c1.6-1.5,3.2,3.4,5.3,2.7c1.5-0.5,0.8-2.7-0.1-4
	c-2-3-3.3-6.3-4.1-9.8c-0.4-1.7-0.7-3.5-0.9-5.3c-0.1-0.7,0-4.5-1.6-3.5c-0.5,0.3-0.6,0.9-0.8,1.5c-0.7,2.9-1.3,5.9-2.1,8.8
	c-0.6,2.3-0.9,5.5-2.4,7.4c-0.8,1.1-1.8,1.9-1.7,3.4c0,0.1,0,0.2,0.1,0.3c0.1,0.2,0.3,0.2,0.4,0.3c1.7,0.6,2.9-0.7,4-1.8
	c0.1-0.1,0.3-0.3,0.5-0.4c0.2-0.1,0.4-0.1,0.6,0.1c0.4,0.4,0,1.5,0,2c-0.2,1.5-0.9,2.9-1.8,4.1c-1.4,2-3.3,3.6-4.5,5.8
	c-0.2,0.4-0.4,0.9-0.4,1.4c0.1,1,1,1.5,1.9,1.5c1.2,0.1,1.8-0.8,2.3-1.8c0.3-0.7,0.6-1.4,1.2-1.7c0.2-0.1,0.4-0.1,0.5,0
	c0,0.1,0,0.1,0.1,0.2c0.1,1.4-0.2,2.8-0.8,4.1c-0.6,1.3-1.6,2.2-2.7,3.2c-0.6,0.5-1.1,1.1-1.5,1.8c-0.3,0.5-0.5,1.1-0.4,1.6
	c0.1,0.6,0.4,1.1,0.9,1.3c0.7,0.3,1.6-0.1,2.1-0.7c0.3-0.3,1.8-2.8,2.4-1.8c0.2,0.3-0.2,1.7-0.3,2.1c-0.3,1.3-0.7,2.6-1.2,3.9
	c-1,2.6-2.6,4.9-4.5,6.9c-0.8,0.8-1.8,1.8-1.7,3c0.1,1.6,2.1,2.3,3.4,1.9c1.9-0.5,1.8-2.5,3.2-3.5c0.1-0.1,0.2-0.1,0.3-0.1
	c0.3,0,0.3,0.4,0.3,0.7c-0.3,2-1,3.9-2,5.7l-12.7-5.9c-0.5-0.6-1.1-1.2-1.7-1.9c-0.6-0.6-1.2-1.3-1.7-2c-0.6-0.7-3-5.3-1.2-5.9
	c0.4-0.1,0.9,0.1,1.3,0.4c0.3,0.3,0.6,0.7,0.9,1.1c0.7,0.8,1.8,1.3,2.9,1.2c0.3,0,0.6-0.1,0.8-0.2c0.4-0.3,0.5-0.7,0.5-1.2
	c0-1.4-0.8-2.6-1.6-3.8c-0.9-1.2-1.5-2.5-2.3-3.8c-0.9-1.5-1.9-2.7-2.1-4.5c1.6-1.5,3.2,3.4,5.3,2.7c1.5-0.5,0.8-2.7-0.1-4
	c-2-3-3.3-6.3-4.1-9.8c-0.4-1.7-0.7-3.5-0.9-5.3c-0.1-0.7,0-4.5-1.6-3.5c-0.5,0.3-0.6,0.9-0.8,1.5c-0.7,2.9-1.3,5.9-2.1,8.8
	c-0.6,2.3-0.9,5.5-2.4,7.4c-0.8,1.1-1.8,1.9-1.7,3.4c0,0.1,0,0.2,0.1,0.3c0.1,0.2,0.3,0.2,0.4,0.3c1.7,0.6,2.9-0.7,4-1.8
	c0.1-0.1,0.3-0.3,0.5-0.4c0.2-0.1,0.4-0.1,0.6,0.1c0.4,0.4,0,1.5,0,2c-0.2,1.5-0.9,2.9-1.8,4.1c-1.4,2-3.3,3.6-4.5,5.8
	c-0.2,0.4-0.4,0.9-0.4,1.4c0.1,1,1,1.5,1.9,1.5c1.2,0.1,1.8-0.8,2.3-1.8c0.3-0.7,0.6-1.4,1.2-1.7c0.2-0.1,0.4-0.1,0.5,0
	c0,0.1,0,0.1,0.1,0.2c0.1,1.4-0.2,2.8-0.8,4.1c-0.1,0.3-0.3,0.6-0.5,0.9l-14.6-6.7c-0.6-0.7-1.3-1.4-1.8-2.2
	c-0.8-1.1-1.6-2.2-1.9-3.5c-0.1-0.3-0.5-1.5-0.3-1.8c0.5-0.7,1.2,0.2,1.4,0.6c0.4,0.6,0.8,1.3,1.2,1.9c0.3,0.5,0.7,0.9,1.2,1.2
	c0.5,0.3,1.1,0.4,1.6,0.2c0.7-0.3,1-1.1,1.1-1.9c0.1-1.2-0.4-2.3-1.1-3.3c-0.7-1-1.5-1.8-2.3-2.7c-0.6-0.6-1.2-1.3-1.7-2
	c-0.6-0.7-3-5.3-1.2-5.9c0.4-0.1,0.9,0.1,1.3,0.4c0.3,0.3,0.6,0.7,0.9,1.1c0.7,0.8,1.8,1.3,2.9,1.2c0.3,0,0.6-0.1,0.8-0.2
	c0.4-0.3,0.5-0.7,0.5-1.2c0-1.4-0.8-2.6-1.6-3.8c-0.9-1.2-1.5-2.5-2.3-3.8c-0.9-1.5-1.9-2.7-2.1-4.5c1.6-1.5,3.2,3.4,5.3,2.7
	c1.5-0.5,0.8-2.7-0.1-4c-2-3-3.3-6.3-4.1-9.8c-0.4-1.7-0.7-3.5-0.9-5.3c-0.1-0.7,0-4.5-1.6-3.5c-0.5,0.3-0.6,0.9-0.8,1.5
	c-0.7,2.9-1.3,5.9-2.1,8.8c-0.6,2.3-0.9,5.5-2.4,7.4c-0.8,1.1-1.8,1.9-1.7,3.4c0,0.1,0,0.2,0.1,0.3c0.1,0.2,0.3,0.2,0.4,0.3
	c1.7,0.6,2.9-0.7,4-1.8c0.1-0.1,0.3-0.3,0.5-0.4c0.2-0.1,0.4-0.1,0.6,0.1c0.4,0.4,0,1.5,0,2c-0.2,1.5-0.9,2.9-1.8,4.1
	c-1.4,2-3.3,3.6-4.5,5.8c-0.2,0.4-0.4,0.9-0.4,1.4c0.1,1,1,1.5,1.9,1.5c1.2,0.1,1.8-0.8,2.3-1.8c0.3-0.7,0.5-1.4,1.2-1.7
	c0.2-0.1,0.4-0.1,0.5,0c0,0.1,0,0.1,0.1,0.2c0.1,1.4-0.2,2.8-0.8,4.1c-0.6,1.3-1.6,2.2-2.7,3.2c-0.6,0.5-1.1,1.1-1.5,1.8
	c-0.3,0.5-0.5,1.1-0.4,1.6c0.1,0.6,0.4,1.1,0.9,1.3c0.7,0.3,1.6-0.1,2.1-0.7c0.3-0.3,1.8-2.8,2.4-1.8c0.2,0.3-0.2,1.7-0.3,2.1
	c-0.2,1.1-0.6,2.3-1,3.3l-13.6-6.3c-0.6-0.8-1.3-1.5-1.9-2.2c-0.6-0.6-1.2-1.3-1.7-2c-0.6-0.7-3-5.3-1.2-5.9
	c0.4-0.1,0.9,0.1,1.3,0.4c0.3,0.3,0.6,0.7,0.9,1.1c0.7,0.8,1.8,1.3,2.9,1.2c0.3,0,0.6-0.1,0.8-0.2c0.4-0.3,0.5-0.7,0.5-1.2
	c0-1.4-0.8-2.6-1.6-3.8c-0.9-1.2-1.5-2.5-2.3-3.8c-0.9-1.5-1.9-2.7-2.1-4.5c1.6-1.5,3.2,3.4,5.3,2.7c1.5-0.5,0.8-2.7-0.1-4
	c-2-3-3.3-6.3-4.1-9.8c-0.4-1.7-0.7-3.5-0.9-5.3c-0.1-0.7,0-4.5-1.6-3.5c-0.5,0.3-0.6,0.9-0.8,1.5c-0.7,2.9-1.3,5.9-2.1,8.8
	c-0.6,2.3-0.9,5.5-2.4,7.4c-0.8,1.1-1.8,1.9-1.7,3.4c0,0.1,0,0.2,0.1,0.3c0.1,0.2,0.3,0.2,0.4,0.3c1.7,0.6,2.9-0.7,4-1.8
	c0.1-0.1,0.3-0.3,0.5-0.4c0.2-0.1,0.4-0.1,0.6,0.1c0.4,0.4,0,1.5,0,2c-0.2,1.5-0.9,2.9-1.8,4.1c-1.4,2-3.3,3.6-4.5,5.8
	c-0.2,0.4-0.4,0.9-0.4,1.4c0.1,1,1,1.5,1.9,1.5c1.2,0.1,1.8-0.8,2.3-1.8c0.3-0.7,0.6-1.4,1.2-1.7c0.2-0.1,0.4-0.1,0.5,0
	c0,0.1,0,0.1,0.1,0.2c0.1,1.4-0.2,2.8-0.8,4.1c-0.2,0.4-0.4,0.7-0.6,1l-15.7-7.3c-0.1-0.1-0.2-0.3-0.2-0.4c-0.9-1.5-1.9-2.7-2.1-4.5
	c1.6-1.5,3.2,3.4,5.3,2.7c1.5-0.5,0.8-2.7-0.1-4c-2-3-3.3-6.3-4.1-9.8c-0.4-1.7-0.7-3.5-0.9-5.3c-0.1-0.7,0-4.5-1.6-3.5
	c-0.5,0.3-0.6,0.9-0.8,1.5c-0.7,2.9-1.3,5.9-2.1,8.8c-0.6,2.3-0.9,5.5-2.4,7.4c-0.5,0.7-1.2,1.3-1.5,2.1l-13.3-6.2
	c-0.7-1.2-1.2-2.5-0.9-3.9c1.9,0.2,2.4,3.4,4.3,3.3c1.4,0,1.9-1.9,1.6-3.2c-0.6-2.9-3-4.9-4.8-7.1c-0.8-1.1-1.6-2.2-1.9-3.5
	c-0.1-0.3-0.5-1.5-0.3-1.8c0.5-0.7,1.2,0.2,1.4,0.6c0.4,0.6,0.8,1.3,1.2,1.9c0.3,0.5,0.7,0.9,1.2,1.2c0.5,0.3,1.1,0.4,1.6,0.2
	c0.7-0.3,1-1.1,1.1-1.9c0.1-1.2-0.4-2.3-1.1-3.3c-0.7-1-1.5-1.8-2.3-2.7c-0.6-0.6-1.2-1.3-1.7-2c-0.6-0.7-3-5.3-1.2-5.9
	c0.4-0.1,0.9,0.1,1.3,0.4c0.3,0.3,0.6,0.7,0.9,1.1c0.7,0.8,1.8,1.3,2.9,1.2c0.3,0,0.6-0.1,0.8-0.2c0.4-0.3,0.5-0.7,0.5-1.2
	c0-1.4-0.8-2.6-1.6-3.8c-0.9-1.2-1.5-2.5-2.3-3.8c-0.9-1.5-1.9-2.7-2.1-4.5c1.6-1.5,3.2,3.4,5.3,2.7c1.5-0.5,0.8-2.7-0.1-4
	c-2-3-3.3-6.3-4.1-9.8c-0.4-1.7-0.7-3.5-0.9-5.3c-0.1-0.7,0-4.5-1.6-3.5c-0.5,0.3-0.6,0.9-0.8,1.5c-0.7,2.9-1.3,5.9-2.1,8.8
	c-0.6,2.3-0.9,5.5-2.4,7.4c-0.8,1.1-1.8,1.9-1.7,3.4c0,0.1,0,0.2,0.1,0.3c0.1,0.2,0.3,0.2,0.4,0.3c1.7,0.6,2.9-0.7,4-1.8
	c0.1-0.1,0.3-0.3,0.5-0.4c0.2-0.1,0.4-0.1,0.6,0.1c0.4,0.4,0,1.5,0,2c-0.2,1.5-0.9,2.9-1.8,4.1c-1.4,2-3.3,3.6-4.5,5.8
	c-0.2,0.4-0.4,0.9-0.4,1.4c0.1,1,1,1.5,1.9,1.5c1.2,0.1,1.8-0.8,2.3-1.8c0.3-0.7,0.5-1.4,1.2-1.7c0.2-0.1,0.4-0.1,0.5,0
	c0,0.1,0,0.1,0.1,0.2c0.1,1.4-0.2,2.8-0.8,4.1c-0.6,1.3-1.6,2.2-2.7,3.2c-0.6,0.5-1.1,1.1-1.5,1.8c-0.3,0.5-0.5,1.1-0.4,1.6
	c0.1,0.6,0.4,1.1,0.9,1.3c0.7,0.3,1.6-0.1,2.1-0.7c0.3-0.3,1.8-2.8,2.4-1.8c0.2,0.3-0.2,1.7-0.3,2.1c-0.3,1.3-0.7,2.6-1.2,3.9
	c-1,2.6-2.6,4.9-4.5,6.9c0,0,0,0-0.1,0.1l-8.5-3.9c-0.7-1-1.5-1.8-2.3-2.7c-0.6-0.6-1.2-1.3-1.7-2c-0.6-0.7-3-5.3-1.2-5.9
	c0.4-0.1,0.9,0.1,1.3,0.4c0.3,0.3,0.6,0.7,0.9,1.1c0.7,0.8,1.8,1.3,2.9,1.2c0.3,0,0.6-0.1,0.8-0.2c0.4-0.3,0.5-0.7,0.5-1.2
	c0-1.4-0.8-2.6-1.6-3.8c-0.9-1.2-1.5-2.5-2.3-3.8c-0.9-1.5-1.9-2.7-2.1-4.5c1.6-1.5,3.2,3.4,5.3,2.7c1.5-0.5,0.8-2.7-0.1-4
	c-2-3-3.3-6.3-4.1-9.8c-0.4-1.7-0.7-3.5-0.9-5.3c-0.1-0.7,0-4.5-1.6-3.5c-0.5,0.3-0.6,0.9-0.8,1.5c-0.7,2.9-1.3,5.9-2.1,8.8
	c-0.6,2.3-0.9,5.5-2.4,7.4c-0.8,1.1-1.8,1.9-1.7,3.4c0,0.1,0,0.2,0.1,0.3c0.1,0.2,0.3,0.2,0.4,0.3c1.7,0.6,2.9-0.7,4-1.8
	c0.1-0.1,0.3-0.3,0.5-0.4c0.2-0.1,0.4-0.1,0.6,0.1c0.4,0.4,0,1.5,0,2c-0.2,1.5-0.9,2.9-1.8,4.1c-1.4,2-3.3,3.6-4.5,5.8
	c-0.2,0.4-0.4,0.9-0.4,1.4c0.1,1,1,1.5,1.9,1.5c1.2,0.1,1.8-0.8,2.3-1.8c0.3-0.7,0.6-1.4,1.2-1.7c0.2-0.1,0.4-0.1,0.5,0
	c0,0.1,0,0.1,0.1,0.2c0.1,1.4-0.2,2.8-0.8,4.1c-0.2,0.5-0.5,0.9-0.8,1.2L0,60.6V468h800V246v-4.7V137.1H789.3z M298.8,197.5
	c0.5-0.7,1.2,0.2,1.4,0.6c0.4,0.6,0.7,1.2,1.1,1.7l-2.4-1.1C298.8,198.2,298.6,197.7,298.8,197.5z M295.7,195.7
	c0.1,0.2,0,0.9-0.2,1.5l-1.5-0.7C294.6,195.8,295.3,195.1,295.7,195.7z M266.1,180.9c0.3-0.7,0.6-1.4,1.2-1.7c0.2-0.1,0.4-0.1,0.5,0
	c0,0.1,0,0.1,0.1,0.2c0.1,1.4-0.2,2.8-0.8,4.1c-0.1,0.1-0.1,0.2-0.2,0.4l-2.6-1.2C265.2,182.6,265.8,181.8,266.1,180.9z M59.7,86.3
	c0.1-0.1,0.3-0.3,0.5-0.4c0.2-0.1,0.4-0.1,0.6,0.1c0.4,0.4,0,1.5,0,2c0,0.2-0.1,0.4-0.2,0.7l-2.3-1.1C58.8,87.2,59.3,86.7,59.7,86.3
	z M35.8,76.2c0.1-0.1,0.2-0.1,0.3-0.1c0.3,0,0.3,0.4,0.3,0.7c0,0.2-0.1,0.4-0.1,0.6l-1.1-0.5C35.3,76.6,35.5,76.4,35.8,76.2z
	 M783,135.9c0.4-0.1,0.9,0.1,1.3,0.4c0.3,0.3,0.5,0.6,0.8,0.9h-2.7C782.3,136.5,782.5,136,783,135.9z M779.1,136.1
	c0.2-0.1,0.4-0.1,0.5,0c0,0.1,0,0.1,0.1,0.2c0,0.3,0,0.6,0,0.8h-1.4C778.4,136.7,778.7,136.3,779.1,136.1z M577.8,216.3l-0.8,0.8
	h-0.3c-0.2-0.6-0.4-1.3-0.5-2C576.7,215.5,577.2,216,577.8,216.3z M567.9,215.8c0.8-1.4,2.4-3,3.7-2.1c-0.1,1.3-1,2.5-2,3.4h-2.9
	C567.2,216.7,567.6,216.2,567.9,215.8z M495,215.6c0.4-0.1,0.9,0.1,1.3,0.4c0.3,0.3,0.6,0.7,0.9,1.1c0.1,0.1,0.2,0.2,0.3,0.3l-2.8,1
	C494.2,217.1,494.1,215.9,495,215.6z M474.7,223.2c0.9,0.1,1.4,0.8,2,1.6l-1.8,0.7C474.6,224.7,474.6,223.9,474.7,223.2z"/>
<path id="XMLID_16_" d="M780.3,290.1c-0.1-0.9-0.5-1.9-1-2.7c-0.7-1-1.5-1.8-2.3-2.7c-0.6-0.6-1.2-1.3-1.7-2c-0.6-0.7-3-5.3-1.2-5.9
	c0.4-0.1,0.9,0.1,1.3,0.4c0.3,0.3,0.6,0.7,0.9,1.1c0.7,0.8,1.8,1.3,2.9,1.2c0.3,0,0.6-0.1,0.8-0.2c0.4-0.3,0.5-0.7,0.5-1.2
	c0-1.4-0.8-2.6-1.6-3.8c-0.9-1.2-1.5-2.5-2.3-3.8c-0.9-1.5-1.9-2.7-2.1-4.5c1.6-1.5,3.2,3.4,5.3,2.7c1.5-0.5,0.8-2.7-0.1-4
	c-2-3-3.3-6.3-4.1-9.8c-0.4-1.7-0.7-3.5-0.9-5.3c-0.1-0.7,0-4.5-1.6-3.5c-0.5,0.3-0.6,0.9-0.8,1.5c-0.7,2.9-1.3,5.9-2.1,8.8
	c-0.6,2.3-0.9,5.5-2.4,7.4c-0.8,1.1-1.8,1.9-1.7,3.4c0,0.1,0,0.2,0.1,0.3c0.1,0.2,0.3,0.2,0.4,0.3c1.7,0.6,2.9-0.7,4-1.8
	c0.1-0.1,0.3-0.3,0.5-0.4c0.2-0.1,0.4-0.1,0.6,0.1c0.4,0.4,0,1.5,0,2c-0.2,1.5-0.9,2.9-1.8,4.1c-1.4,2-3.3,3.6-4.5,5.8
	c-0.2,0.4-0.4,0.9-0.4,1.4c0.1,1,1,1.5,1.9,1.5c1.2,0.1,1.8-0.8,2.3-1.8c0.3-0.7,0.5-1.4,1.2-1.7c0.2-0.1,0.4-0.1,0.5,0
	c0,0.1,0,0.1,0.1,0.2c0.1,1.4-0.2,2.8-0.8,4.1c-0.6,1.3-1.6,2.2-2.7,3.2c-0.6,0.5-1.1,1.1-1.5,1.8c-0.3,0.5-0.5,1.1-0.4,1.6
	c0.1,0.6,0.4,1.1,0.9,1.3c0.7,0.3,1.6-0.1,2.1-0.7c0.3-0.3,1.8-2.8,2.4-1.8c0.2,0.3-0.2,1.7-0.3,2.1c-0.1,0.4-0.2,0.7-0.3,1.1H760
	c0.4-0.2,0.7-0.5,0.9-0.9c0.1-0.4,0.1-0.9,0.1-1.3c-0.4-3-1.8-5.8-3.9-7.9c-1.1-1.1-2.4-2.1-3.5-3.2c-0.7-0.8-3.7-5.8-0.6-5.7
	c0.4,0,0.7,0.2,1,0.5c0.7,0.7,1.2,1.6,1.9,2.3c0.7,0.7,1.8,1.3,2.7,0.8c1.3-0.6,1.2-2.4,0.8-3.7c-0.9-2.8-2.4-5.3-4.3-7.6
	c-1.7-2-4.6-4.2-3.7-7.2c0.1-0.4,0.3-0.8,0.6-1c0.5-0.4,1.3-0.4,1.9,0c0.6,0.3,1,0.9,1.5,1.4c0.6,0.8,3.3,5.1,4.5,2.7
	c0.2-0.3,0.2-0.7,0.1-1.1c-0.2-3.4-1.3-6.8-3.3-9.7c-1.8-2.6-4.2-4.8-5.4-7.7c-0.7-1.7-0.8-4.8,1.6-4.9c2,0,3.5,2.4,5.1,3.3
	c1.2,0.7,3.3,0.6,3.7-0.8c0.2-0.5,0-1.1-0.2-1.7c-1-3.1-2.7-6.2-5-8.6c-2.2-2.2-4.1-3.5-5.4-6.6c-0.5-1.2-0.7-2.8,0.3-3.5
	c0.8-0.5,2-0.2,2.7,0.5c0.7,0.7,1.2,1.5,2,2.2c0.7,0.7,1.9,1,2.7,0.5c0.7-0.4,0.9-1.3,0.8-2.1c-0.1-0.8-0.5-1.5-1-2.1
	c-1.3-2.2-2.8-4.3-4.1-6.4c-1-1.7-2.8-3.8-3.1-5.8c-0.1-0.7,0-1.5,0.7-1.8c0.5-0.2,1,0,1.4,0.3c0.4,0.3,0.7,0.7,1,1
	c0.7,0.7,1.7,1.2,2.7,1.3c0.7,0.1,1.4,0,1.9-0.5c0.4-0.4,0.4-1,0.4-1.6c-0.2-2.3-2-4-3.7-5.6c-1-1-6.3-7.5-3.9-8.8
	c1.9-1,4.4,4.9,6.4,2.5c0.5-0.7,0.5-1.7,0.2-2.5c-0.3-0.9-0.9-1.7-1.6-2.3c-0.9-0.7-2-1.2-3-1.8c-1.3-0.8-4.5-5.2-2.1-6.3
	c1.8-0.8,3.1,1.8,4.4,2.5c0.4,0.2,1.1,0.3,1.4-0.1c0,0,0,0,0.1-0.1c0.1-0.2,0.1-0.4,0.1-0.6c0.2-2.8-1.3-5.5-2.8-7.9
	c-1.5-2.4-3.3-4.8-3.7-7.6c-0.1-0.5-0.1-1,0.1-1.4c0.2-0.4,0.7-0.8,1.2-0.7c0.8,0.2,0.3,1.6,1,2.1c0.6,0.5,1.7,0.4,2.4,0
	c1-0.7,1.3-2.2,0.9-3.4c-0.3-1.2-1.2-2.2-1.9-3.2c-2.3-3.3-3.9-7-4.6-10.9c-0.8-3.8-0.2-7.4-0.2-11.2c0-1,0.2-6.1-1.5-6
	c-1.6,0.1-1.7,4.5-1.8,5.6c-0.5,8.5-1.3,17.7-6.7,24.3c-0.7,0.9-1.5,1.7-1.7,2.8c-0.1,1.1,0.5,2.2,1.4,2.7c1,0.5,2.2,0.3,3-0.5
	c0.5-0.5,1.1-1.8,2-1c0.4,0.4,0.5,0.9,0.5,1.4c0.2,3.5-1.4,6.9-3.3,9.8c-1.9,3-4.1,5.8-5.1,9.2c-0.3,1.1-0.6,2.2-0.3,3.3
	c0.3,1.1,1.2,2.1,2.3,2.1c1.8,0.1,2.1-1.6,3.5-2.3c0.7-0.4,1.6-0.3,2.1,0.2c0.4,0.4,0.4,0.9,0.4,1.5c-0.1,2.6-2.5,4.5-4.4,6.3
	c-2.2,2.2-3.9,4.8-5,7.7c-0.3,0.8-0.6,1.7-0.5,2.6s0.4,1.8,1.2,2.3c1.2,0.8,2.8,0.3,3.8-0.6c1-0.9,1.6-2.3,2.3-3.5
	c0.4-0.7,0.9-1.4,1.7-1.6c3.1-0.7,0.9,4.6,0.2,5.4c-3.7,4.8-8.8,9.6-8.5,15.6c0.1,1,0.4,2.1,1.2,2.5c1.3,0.6,2.6-0.7,3.4-1.9
	c0.5-0.7,4-7.9,4.5-4.2c0.4,3.6-2.3,5.2-4.2,7.6c-2.2,2.7-3.9,5.9-4.9,9.3c-0.4,1.4-0.5,3.4,0.9,4c2.1,0.9,2.9-2,4.1-3
	c1.3-1.1,3.2-0.5,3.6,1.3c0.2,1.1-0.2,2.2-0.7,3.1c-2.3,4-6.9,6.4-8.5,10.7c-0.4,1.2-0.5,2.7,0.5,3.5c1.7,1.2,3.3-0.9,4.4-1.9
	c0.4-0.3,0.8-0.7,1.3-0.7c0.5,0,1,0.5,1.1,1c0.1,0.5,0,1.1-0.1,1.6c-1.4,4.4-5.3,6.4-7.9,9.8c-1.2,1.5-2,3.4-2.3,5.3
	c-0.2,0.9-0.2,1.9,0.2,2.8c0.4,0.9,1.2,1.6,2.1,1.6c1.2,0,2.1-1.2,2.5-2.3c0.4-1.1,0.7-2.4,1.5-3.2c1-1.1,3.2-1,3.4,0.8
	c0.1,1.3-2,3.1-2.7,4.2c-2.7,4.2-5.3,8.5-7.7,12.8c-0.5,0.9-1,1.8-1.1,2.8c-0.1,1,0.3,2.2,1.2,2.7c0.6,0.3,1.3,0.3,1.9,0.2
	c5.2-1,5.1-8,8.4-11c0,3.5-1.3,7-3.6,9.7c-1,1.2-2.2,2.3-3.2,3.5l-13.3,5.2c-0.1-0.1-0.2-0.2-0.3-0.3c-0.8-1.1-1.6-2.2-1.9-3.5
	c-0.1-0.3-0.5-1.5-0.3-1.8c0.5-0.7,1.2,0.2,1.4,0.6c0.4,0.6,0.8,1.3,1.2,1.9c0.3,0.5,0.7,0.9,1.2,1.2c0.5,0.3,1.1,0.4,1.6,0.2
	c0.7-0.3,1-1.1,1.1-1.9c0.1-1.2-0.4-2.3-1.1-3.3c-0.7-1-1.5-1.8-2.3-2.7c-0.6-0.6-1.2-1.3-1.7-2c-0.6-0.7-3-5.3-1.2-5.9
	c0.4-0.1,0.9,0.1,1.3,0.4c0.3,0.3,0.6,0.7,0.9,1.1c0.7,0.8,1.8,1.3,2.9,1.2c0.3,0,0.6-0.1,0.8-0.2c0.4-0.3,0.5-0.7,0.5-1.2
	c0-1.4-0.8-2.6-1.6-3.8c-0.9-1.2-1.5-2.5-2.3-3.8c-0.9-1.5-1.9-2.7-2.1-4.5c1.6-1.5,3.2,3.4,5.3,2.7c1.5-0.5,0.8-2.7-0.1-4
	c-2-3-3.3-6.3-4.1-9.8c-0.4-1.7-0.7-3.5-0.9-5.3c-0.1-0.7,0-4.5-1.6-3.5c-0.5,0.3-0.6,0.9-0.8,1.5c-0.7,2.9-1.3,5.9-2.1,8.8
	c-0.6,2.3-0.9,5.5-2.4,7.4c-0.8,1.1-1.8,1.9-1.7,3.4c0,0.1,0,0.2,0.1,0.3c0.1,0.2,0.3,0.2,0.4,0.3c1.7,0.6,2.9-0.7,4-1.8
	c0.1-0.1,0.3-0.3,0.5-0.4c0.2-0.1,0.4-0.1,0.6,0.1c0.4,0.4,0,1.5,0,2c-0.2,1.5-0.9,2.9-1.8,4.1c-1.4,2-3.3,3.6-4.5,5.8
	c-0.2,0.4-0.4,0.9-0.4,1.4c0.1,1,1,1.5,1.9,1.5c1.2,0.1,1.8-0.8,2.3-1.8c0.3-0.7,0.6-1.4,1.2-1.7c0.2-0.1,0.4-0.1,0.5,0
	c0,0.1,0,0.1,0.1,0.2c0.1,1.4-0.2,2.8-0.8,4.1c-0.6,1.3-1.6,2.2-2.7,3.2c-0.6,0.5-1.1,1.1-1.5,1.8c-0.3,0.5-0.5,1.1-0.4,1.6
	c0.1,0.6,0.4,1.1,0.9,1.3c0.7,0.3,1.6-0.1,2.1-0.7c0.3-0.3,1.8-2.8,2.4-1.8c0.2,0.3-0.2,1.7-0.3,2.1c-0.3,1.3-0.7,2.6-1.2,3.9
	c-0.9,2.1-2.1,4.1-3.6,5.9l-42.1,18.4h-44.8c-0.1-0.1-0.1-0.2-0.2-0.3c-0.7-1-1.5-1.8-2.3-2.7c-0.6-0.6-1.2-1.3-1.7-2
	c-0.6-0.7-3-5.3-1.2-5.9c0.4-0.1,0.9,0.1,1.3,0.4c0.3,0.3,0.6,0.7,0.9,1.1c0.7,0.8,1.8,1.3,2.9,1.2c0.3,0,0.6-0.1,0.8-0.2
	c0.4-0.3,0.5-0.7,0.5-1.2c0-1.4-0.8-2.6-1.6-3.8c-0.9-1.2-1.5-2.5-2.3-3.8c-0.9-1.5-1.9-2.7-2.1-4.5c1.6-1.5,3.2,3.4,5.3,2.7
	c1.5-0.5,0.8-2.7-0.1-4c-2-3-3.3-6.3-4.1-9.8c-0.4-1.7-0.7-3.5-0.9-5.3c-0.1-0.7,0-4.5-1.6-3.5c-0.5,0.3-0.6,0.9-0.8,1.5
	c-0.7,2.9-1.3,5.9-2.1,8.8c-0.6,2.3-0.9,5.5-2.4,7.4c-0.8,1.1-1.8,1.9-1.7,3.4c0,0.1,0,0.2,0.1,0.3c0.1,0.2,0.3,0.2,0.4,0.3
	c1.7,0.6,2.9-0.7,4-1.8c0.1-0.1,0.3-0.3,0.5-0.4c0.2-0.1,0.4-0.1,0.6,0.1c0.4,0.4,0,1.5,0,2c-0.2,1.5-0.9,2.9-1.8,4.1
	c-1.4,2-3.3,3.6-4.5,5.8c-0.2,0.4-0.4,0.9-0.4,1.4c0.1,1,1,1.5,1.9,1.5c1.2,0.1,1.8-0.8,2.3-1.8c0.3-0.7,0.5-1.4,1.2-1.7
	c0.2-0.1,0.4-0.1,0.5,0c0,0.1,0,0.1,0.1,0.2c0.1,1.4-0.2,2.8-0.8,4.1c-0.6,1.3-1.6,2.2-2.7,3.2c-0.6,0.5-1.1,1.1-1.5,1.8
	c-0.2,0.4-0.4,0.9-0.4,1.4h-14.4l-61.6,22.5l-46.4-7.6l-33.5,7.6h-24l-247.3,39.1v82.9H800v-179H780.3z M615,323.8
	c0.1,0.2,0.1,0.5,0,0.9h-1.7C613.9,323.9,614.7,323.1,615,323.8z M773.9,288.8c0.5-0.7,1.2,0.2,1.4,0.6c0.1,0.3,0.3,0.5,0.5,0.7H774
	C773.9,289.6,773.7,289,773.9,288.8z M754.3,287.2c0.8,0.5,1.4,1.2,2,1.8c0.5,0.4,1,0.8,1.6,1.1h-3.7c-0.3-0.4-0.5-0.8-0.8-1.2
	C753,288,752.5,286.1,754.3,287.2z"/>
<path id="XMLID_2_" class="st1" d="M1589.3,216.1C1589.3,216.1,1589.3,216.1,1589.3,216.1c0-1.4-0.8-2.7-1.6-3.8
	c-0.9-1.2-1.5-2.5-2.3-3.8c-0.9-1.5-1.9-2.7-2.1-4.5c1.6-1.5,3.2,3.4,5.3,2.7c1.5-0.5,0.8-2.7-0.1-4c-2-3-3.3-6.3-4.1-9.8
	c-0.4-1.7-0.7-3.5-0.9-5.3c-0.1-0.7,0-4.5-1.6-3.5c-0.5,0.3-0.6,0.9-0.8,1.5c-0.7,2.9-1.3,5.9-2.1,8.8c-0.6,2.3-0.9,5.5-2.4,7.4
	c-0.8,1.1-1.8,1.9-1.7,3.4c0,0.1,0,0.2,0.1,0.3c0.1,0.2,0.3,0.2,0.4,0.3c1.7,0.6,2.9-0.7,4-1.8c0.1-0.1,0.3-0.3,0.5-0.4
	c0.2-0.1,0.4-0.1,0.6,0.1c0.4,0.4,0,1.5,0,2c-0.2,1.5-0.9,2.9-1.8,4.1c-1.4,2-3.3,3.6-4.5,5.8c-0.1,0.1-0.1,0.3-0.2,0.5h-8.6l-58,58
	c-1-2.1-2.8-3.7-4.2-5.5c-0.8-1.1-1.6-2.2-1.9-3.5c-0.1-0.3-0.5-1.5-0.3-1.8c0.5-0.7,1.2,0.2,1.4,0.6c0.4,0.6,0.8,1.3,1.2,1.9
	c0.3,0.5,0.7,0.9,1.2,1.2c0.5,0.3,1.1,0.4,1.6,0.2c0.7-0.3,1-1.1,1.1-1.9c0.1-1.2-0.4-2.3-1.1-3.3c-0.7-1-1.5-1.8-2.3-2.7
	c-0.6-0.6-1.2-1.3-1.7-2c-0.6-0.7-3-5.3-1.2-5.9c0.4-0.1,0.9,0.1,1.3,0.4c0.3,0.3,0.6,0.7,0.9,1.1c0.7,0.8,1.8,1.3,2.9,1.2
	c0.3,0,0.6-0.1,0.8-0.2c0.4-0.3,0.5-0.7,0.5-1.2c0-1.4-0.8-2.6-1.6-3.8c-0.9-1.2-1.5-2.5-2.3-3.8c-0.9-1.5-1.9-2.7-2.1-4.5
	c1.6-1.5,3.2,3.4,5.3,2.7c1.5-0.5,0.8-2.7-0.1-4c-2-3-3.3-6.3-4.1-9.8c-0.4-1.7-0.7-3.5-0.9-5.3c-0.1-0.7,0-4.5-1.6-3.5
	c-0.5,0.3-0.6,0.9-0.8,1.5c-0.7,2.9-1.3,5.9-2.1,8.8c-0.6,2.3-0.9,5.5-2.4,7.4c-0.8,1.1-1.8,1.9-1.7,3.4c0,0.1,0,0.2,0.1,0.3
	c0.1,0.2,0.3,0.2,0.4,0.3c1.7,0.6,2.9-0.7,4-1.8c0.1-0.1,0.3-0.3,0.5-0.4c0.2-0.1,0.4-0.1,0.6,0.1c0.4,0.4,0,1.5,0,2
	c-0.2,1.5-0.9,2.9-1.8,4.1c-1.4,2-3.3,3.6-4.5,5.8c-0.2,0.4-0.4,0.9-0.4,1.4c0.1,1,1,1.5,1.9,1.5c1.2,0.1,1.8-0.8,2.3-1.8
	c0.3-0.7,0.6-1.4,1.2-1.7c0.2-0.1,0.4-0.1,0.5,0c0,0.1,0,0.1,0.1,0.2c0.1,1.4-0.2,2.8-0.8,4.1c-0.6,1.3-1.6,2.2-2.7,3.2
	c-0.6,0.5-1.1,1.1-1.5,1.8c-0.3,0.5-0.5,1.1-0.4,1.6c0.1,0.6,0.4,1.1,0.9,1.3c0.7,0.3,1.6-0.1,2.1-0.7c0.3-0.3,1.8-2.8,2.4-1.8
	c0.2,0.3-0.2,1.7-0.3,2.1c-0.3,1.3-0.7,2.6-1.2,3.9c-0.1,0.1-0.1,0.3-0.2,0.4l-3.1-3.1h-33.9c0.1-1.9-1.1-3.9-2.2-5.2
	c-1.8-2.1-4-4.5-3.5-7.3c1.9,0.2,2.4,3.4,4.3,3.3c1.4,0,1.9-1.9,1.6-3.2c-0.6-2.9-3-4.9-4.8-7.1c-0.8-1.1-1.6-2.2-1.9-3.5
	c-0.1-0.3-0.5-1.5-0.3-1.8c0.5-0.7,1.2,0.2,1.4,0.6c0.4,0.6,0.8,1.3,1.2,1.9c0.3,0.5,0.7,0.9,1.2,1.2c0.5,0.3,1.1,0.4,1.6,0.2
	c0.7-0.3,1-1.1,1.1-1.9c0.1-1.2-0.4-2.3-1.1-3.3c-0.7-1-1.5-1.8-2.3-2.7c-0.6-0.6-1.2-1.3-1.7-2c-0.6-0.7-3-5.3-1.2-5.9
	c0.4-0.1,0.9,0.1,1.3,0.4c0.3,0.3,0.6,0.7,0.9,1.1c0.7,0.8,1.8,1.3,2.9,1.2c0.3,0,0.6-0.1,0.8-0.2c0.4-0.3,0.5-0.7,0.5-1.2
	c0-1.4-0.8-2.6-1.6-3.8c-0.9-1.2-1.5-2.5-2.3-3.8c-0.9-1.5-1.9-2.7-2.1-4.5c1.6-1.5,3.2,3.4,5.3,2.7c1.5-0.5,0.8-2.7-0.1-4
	c-2-3-3.3-6.3-4.1-9.8c-0.4-1.7-0.7-3.5-0.9-5.3c-0.1-0.7,0-4.5-1.6-3.5c-0.5,0.3-0.6,0.9-0.8,1.5c-0.7,2.9-1.3,5.9-2.1,8.8
	c-0.6,2.3-0.9,5.5-2.4,7.4c-0.8,1.1-1.8,1.9-1.7,3.4c0,0.1,0,0.2,0.1,0.3c0.1,0.2,0.3,0.2,0.4,0.3c1.7,0.6,2.9-0.7,4-1.8
	c0.1-0.1,0.3-0.3,0.5-0.4c0.2-0.1,0.4-0.1,0.6,0.1c0.4,0.4,0,1.5,0,2c-0.2,1.5-0.9,2.9-1.8,4.1c-1.4,2-3.3,3.6-4.5,5.8
	c-0.2,0.4-0.4,0.9-0.4,1.4c0.1,1,1,1.5,1.9,1.5c1.2,0.1,1.8-0.8,2.3-1.8c0.3-0.7,0.6-1.4,1.2-1.7c0.2-0.1,0.4-0.1,0.5,0
	c0,0.1,0,0.1,0.1,0.2c0.1,1.4-0.2,2.8-0.8,4.1c-0.6,1.3-1.6,2.2-2.7,3.2c-0.6,0.5-1.1,1.1-1.5,1.8c-0.3,0.5-0.5,1.1-0.4,1.6
	c0.1,0.6,0.4,1.1,0.9,1.3c0.7,0.3,1.6-0.1,2.1-0.7c0.3-0.3,1.8-2.8,2.4-1.8c0.2,0.3-0.2,1.7-0.3,2.1c-0.3,1.3-0.7,2.6-1.2,3.9
	c-1,2.6-2.6,4.9-4.5,6.9c-0.8,0.8-1.8,1.8-1.7,3c0.1,1.6,2.1,2.3,3.4,1.9c1.9-0.5,1.8-2.5,3.2-3.5c0.1-0.1,0.2-0.1,0.3-0.1
	c0.3,0,0.3,0.4,0.3,0.7c-0.4,2.7-1.5,5.2-3,7.4c-0.8,1.1-1.7,2.2-2.4,3.4c-0.2,0.3-0.3,0.7-0.4,1h-9.6c-0.4-0.7-0.8-1.4-1.4-1.9
	c-0.6-0.7-1.4-1.2-2-1.9c-0.4-0.4-2.1-3.4-0.4-3.3c0.2,0,0.4,0.1,0.6,0.3c0.4,0.4,0.7,0.9,1.1,1.3c0.4,0.4,1,0.7,1.5,0.5
	c0.7-0.3,0.7-1.4,0.4-2.1c-0.5-1.6-1.4-3.1-2.5-4.4c-1-1.2-2.7-2.4-2.1-4.1c0.1-0.2,0.2-0.4,0.4-0.6c0.3-0.2,0.8-0.2,1.1,0
	c0.3,0.2,0.6,0.5,0.8,0.8c0.4,0.4,1.9,3,2.6,1.6c0.1-0.2,0.1-0.4,0.1-0.6c-0.1-2-0.8-3.9-1.9-5.6c-1-1.5-2.4-2.8-3.1-4.4
	c-0.4-1-0.5-2.8,0.9-2.8c1.2,0,2,1.4,2.9,1.9c0.7,0.4,1.9,0.3,2.1-0.5c0.1-0.3,0-0.7-0.1-1c-0.6-1.8-1.5-3.6-2.9-4.9
	c-1.3-1.3-2.4-2-3.1-3.8c-0.3-0.7-0.4-1.6,0.2-2c0.5-0.3,1.1-0.1,1.6,0.3c0.4,0.4,0.7,0.9,1.1,1.3c0.4,0.4,1.1,0.6,1.5,0.3
	c0.4-0.2,0.5-0.8,0.4-1.2c-0.1-0.4-0.3-0.8-0.6-1.2c-0.8-1.3-1.6-2.5-2.4-3.7c-0.6-1-1.6-2.2-1.8-3.3c-0.1-0.4,0-0.9,0.4-1.1
	c0.3-0.1,0.6,0,0.8,0.1c0.2,0.2,0.4,0.4,0.6,0.6c0.4,0.4,1,0.7,1.5,0.8c0.4,0.1,0.8,0,1.1-0.3c0.2-0.2,0.3-0.6,0.2-0.9
	c-0.1-1.3-1.2-2.3-2.1-3.2c-0.6-0.6-3.6-4.3-2.2-5.1c1.1-0.6,2.5,2.8,3.7,1.4c0.3-0.4,0.3-1,0.1-1.4c-0.2-0.5-0.5-1-0.9-1.3
	c-0.5-0.4-1.2-0.7-1.8-1c-0.8-0.4-2.6-3-1.2-3.6c1-0.5,1.8,1.1,2.5,1.5c0.3,0.1,0.6,0.2,0.8,0c0,0,0,0,0,0c0.1-0.1,0.1-0.2,0.1-0.3
	c0.1-1.6-0.7-3.2-1.6-4.5c-0.9-1.4-1.9-2.7-2.1-4.4c0-0.3-0.1-0.6,0-0.8c0.1-0.3,0.4-0.4,0.7-0.4c0.4,0.1,0.2,0.9,0.6,1.2
	c0.4,0.3,1,0.2,1.4,0c0.6-0.4,0.7-1.3,0.5-2c-0.2-0.7-0.7-1.3-1.1-1.9c-1.3-1.9-2.2-4-2.7-6.3c-0.4-2.2-0.1-4.3-0.1-6.5
	c0-0.6,0.1-3.5-0.9-3.5c-0.9,0.1-1,2.6-1,3.2c-0.3,4.9-0.7,10.2-3.9,14c-0.4,0.5-0.9,1-1,1.6c-0.1,0.6,0.3,1.3,0.8,1.5
	c0.6,0.3,1.3,0.2,1.7-0.3c0.3-0.3,0.7-1.1,1.2-0.6c0.2,0.2,0.3,0.5,0.3,0.8c0.1,2-0.8,4-1.9,5.7c-1.1,1.7-2.3,3.4-3,5.3
	c-0.2,0.6-0.3,1.3-0.2,1.9c0.2,0.6,0.7,1.2,1.3,1.2c1.1,0.1,1.2-0.9,2-1.3c0.4-0.2,0.9-0.2,1.2,0.1c0.2,0.2,0.3,0.5,0.2,0.8
	c-0.1,1.5-1.4,2.6-2.5,3.7c-1.3,1.2-2.2,2.8-2.9,4.4c-0.2,0.5-0.3,1-0.3,1.5c0,0.5,0.2,1.1,0.7,1.3c0.7,0.4,1.6,0.2,2.2-0.4
	c0.6-0.5,0.9-1.3,1.3-2c0.2-0.4,0.5-0.8,1-0.9c1.8-0.4,0.5,2.6,0.1,3.1c-2.1,2.8-5.1,5.5-4.9,9c0,0.6,0.2,1.2,0.7,1.4
	c0.7,0.3,1.5-0.4,2-1.1c0.3-0.4,2.3-4.6,2.6-2.4c0.3,2.1-1.3,3-2.4,4.4c-1.3,1.6-2.3,3.4-2.8,5.3c-0.2,0.8-0.3,2,0.5,2.3
	c1.2,0.5,1.7-1.2,2.4-1.7c0.8-0.6,1.9-0.3,2.1,0.7c0.1,0.6-0.1,1.3-0.4,1.8c-1.3,2.3-4,3.7-4.9,6.2c-0.2,0.7-0.3,1.6,0.3,2
	c1,0.7,1.9-0.5,2.5-1.1c0.2-0.2,0.5-0.4,0.7-0.4c0.3,0,0.6,0.3,0.6,0.6c0.1,0.3,0,0.6-0.1,0.9c-0.8,2.6-3,3.7-4.6,5.7
	c-0.7,0.9-1.1,1.9-1.3,3c-0.1,0.5-0.1,1.1,0.1,1.6c0.2,0.5,0.7,0.9,1.2,0.9c0.7,0,1.2-0.7,1.4-1.3c0.3-0.6,0.4-1.4,0.9-1.9
	c0.6-0.6,1.9-0.5,2,0.5c0.1,0.8-1.2,1.8-1.6,2.4c-0.9,1.4-1.7,2.8-2.6,4.2h-10.4l-26.8,26.8c-0.5-0.6-1-1.2-1.5-1.7
	c-1.8-1.8-3.1-4.1-3.7-6.5c0.8,1,1.8,2,2.8,2.7c0.8,0.6,1.6,0.5,1.9-0.5c0.1-0.4,0.1-0.9,0.1-1.3c-0.1-0.9-0.3-1.9-0.6-2.8
	c-0.7-1.5-1.9-2.6-3-3.8c-1.1-1.2-1.9-2.9-1.6-4.4c0.1-0.3,0.2-0.5,0.4-0.6c0.4-0.2,0.8,0.1,1,0.5c0.5,0.8,0.5,1.3,1.5,1
	c0.7-0.2,1.2-1.1,1.1-1.8c0-0.6-0.3-1.1-0.6-1.6c-1.5-2.6-4.6-5-4.1-8.4c0-0.2,0.1-0.5,0.3-0.7c0.5-0.4,1.1,0.1,1.5,0.6
	c0.3,0.5,0.8,1.1,1.4,0.9c0.5-0.2,0.5-1,0.4-1.5c-0.6-2.6-2.3-4.7-3.3-7.2c-0.3-0.6-0.5-1.3-0.4-2c0-0.1,0-0.3,0.1-0.4
	c0.2-0.2,0.6-0.2,0.8,0c0.5,0.5,0.6,1.4,1.5,1.5c0.8,0.1,1.5-0.9,1.4-1.7c-0.1-0.8-0.6-1.6-1.1-2.3c-3.3-5.3-3.3-12.2-5.3-18
	c-0.1-0.2-0.2-0.5-0.4-0.6c-0.4-0.3-1,0-1.2,0.4c-0.2,0.4-0.1,0.9-0.1,1.4c0.5,4-0.3,8-1,11.9c-0.3,1.5-0.6,3-1.1,4.4
	c-0.7,1.8-1.7,3.5-2.4,5.4c-0.4,0.9-0.5,2.3,0.5,2.6c1.2,0.4,2-1.5,3.2-1.5c2,0.1,0.4,2.8,0,3.6c-0.9,1.8-2.4,3.5-2.4,5.6
	c0,0.3,0,0.6,0.2,0.8c1.1,1.7,2.6-1,3.1-1.7c0.2-0.3,0.7-0.5,1-0.3c0.3,0.2,0.3,0.6,0.3,1c-0.4,4.2-4.8,6.8-5.9,10.8
	c-0.1,0.5-0.2,1.1,0,1.5c0.5,1.1,2.2,0.8,3.1,0c0.6-0.6,1-1.4,1.6-2c0.6-0.6,1.8-0.9,1.5,0.5c-0.1,0.5-0.4,0.9-0.8,1.2
	c-0.9,1-1.9,2.1-2.9,3c-0.5,0.5-1.1,1-1.5,1.5c-0.5,0.7-0.8,1.6-1.1,2.4c-0.2,0.7-0.4,1.7,0.2,2.2c0.4,0.3,0.9,0.3,1.4,0.1
	c0.4-0.2,0.8-0.6,1.1-0.9c0.5-0.6,1-1.3,1.4-2c0.2-0.2,0.6,0,0.7,0.3c0.1,0.3,0.1,0.6,0.1,0.8c-0.4,2.3-1.5,3.4-3.1,4.9
	c-1.8,1.6-3.9,3.3-4.1,5.7c0,0.4,0,0.9,0.2,1.3h-62.6c0-0.1,0-0.2,0-0.3c0-1.4-0.8-2.6-1.6-3.8c-0.9-1.2-1.5-2.5-2.3-3.8
	c-0.9-1.5-1.9-2.7-2.1-4.5c1.6-1.5,3.2,3.4,5.3,2.7c1.5-0.5,0.8-2.7-0.1-4c-2-3-3.3-6.3-4.1-9.8c-0.4-1.7-0.7-3.5-0.9-5.3
	c-0.1-0.7,0-4.5-1.6-3.5c-0.5,0.3-0.6,0.9-0.8,1.5c-0.7,2.9-1.3,5.9-2.1,8.8c-0.6,2.3-0.9,5.5-2.4,7.4c-0.8,1.1-1.8,1.9-1.7,3.4
	c0,0.1,0,0.2,0.1,0.3c0.1,0.2,0.3,0.2,0.4,0.3c1.7,0.6,2.9-0.7,4-1.8c0.1-0.1,0.3-0.3,0.5-0.4c0.2-0.1,0.4-0.1,0.6,0.1
	c0.4,0.4,0,1.5,0,2c-0.2,1.5-0.9,2.9-1.8,4.1c-1.4,2-3.3,3.6-4.5,5.8c-0.2,0.4-0.4,0.9-0.4,1.4c0.1,1,1,1.5,1.9,1.5
	c1.2,0.1,1.8-0.8,2.3-1.8c0.3-0.7,0.6-1.4,1.2-1.7c0.2-0.1,0.4-0.1,0.5,0c0,0.1,0,0.1,0.1,0.2c0.1,1.2-0.1,2.4-0.6,3.6l-10.5,3.7
	c0,0,0,0,0,0c-0.6-2.9-3-4.9-4.8-7.1c-0.8-1.1-1.6-2.2-1.9-3.5c-0.1-0.3-0.5-1.5-0.3-1.8c0.5-0.7,1.2,0.2,1.4,0.6
	c0.4,0.6,0.8,1.3,1.2,1.9c0.3,0.5,0.7,0.9,1.2,1.2c0.5,0.3,1.1,0.4,1.6,0.2c0.7-0.3,1-1.1,1.1-1.9c0.1-1.2-0.4-2.3-1.1-3.3
	c-0.7-1-1.5-1.8-2.3-2.7c-0.6-0.6-1.2-1.3-1.7-2c-0.6-0.7-3-5.3-1.2-5.9c0.4-0.1,0.9,0.1,1.3,0.4c0.3,0.3,0.6,0.7,0.9,1.1
	c0.7,0.8,1.8,1.3,2.9,1.2c0.3,0,0.6-0.1,0.8-0.2c0.4-0.3,0.5-0.7,0.5-1.2c0-1.4-0.8-2.6-1.6-3.8c-0.9-1.2-1.5-2.5-2.3-3.8
	c-0.9-1.5-1.9-2.7-2.1-4.5c1.6-1.5,3.2,3.4,5.3,2.7c1.5-0.5,0.8-2.7-0.1-4c-2-3-3.3-6.3-4.1-9.8c-0.4-1.7-0.7-3.5-0.9-5.3
	c-0.1-0.7,0-4.5-1.6-3.5c-0.5,0.3-0.6,0.9-0.8,1.5c-0.7,2.9-1.3,5.9-2.1,8.8c-0.6,2.3-0.9,5.5-2.4,7.4c-0.8,1.1-1.8,1.9-1.7,3.4
	c0,0.1,0,0.2,0.1,0.3c0.1,0.2,0.3,0.2,0.4,0.3c1.7,0.6,2.9-0.7,4-1.8c0.1-0.1,0.3-0.3,0.5-0.4c0.2-0.1,0.4-0.1,0.6,0.1
	c0.4,0.4,0,1.5,0,2c-0.2,1.5-0.9,2.9-1.8,4.1c-1.4,2-3.3,3.6-4.5,5.8c-0.2,0.4-0.4,0.9-0.4,1.4c0.1,1,1,1.5,1.9,1.5
	c1.2,0.1,1.8-0.8,2.3-1.8c0.3-0.7,0.6-1.4,1.2-1.7c0.2-0.1,0.4-0.1,0.5,0c0,0.1,0,0.1,0.1,0.2c0.1,1.4-0.2,2.8-0.8,4.1
	c-0.6,1.3-1.6,2.2-2.7,3.2c-0.6,0.5-1.1,1.1-1.5,1.8c-0.3,0.5-0.5,1.1-0.4,1.6c0.1,0.6,0.4,1.1,0.9,1.3c0.7,0.3,1.6-0.1,2.1-0.7
	c0.3-0.3,1.8-2.8,2.4-1.8c0.2,0.3-0.2,1.7-0.3,2.1c-0.3,1.3-0.7,2.6-1.2,3.9c-1,2.6-2.6,4.9-4.5,6.9c-0.8,0.8-1.8,1.8-1.7,3
	c0.1,1.6,2.1,2.3,3.4,1.9c1.9-0.5,1.8-2.5,3.2-3.5c0.1-0.1,0.2-0.1,0.3-0.1c0.3,0,0.3,0.4,0.3,0.7c-0.2,1.2-0.6,2.5-1,3.6l-17,6.1
	c-0.4-0.4-0.8-0.9-1.1-1.3c-0.6-0.7-3-5.3-1.2-5.9c0.4-0.1,0.9,0.1,1.3,0.4c0.3,0.3,0.6,0.7,0.9,1.1c0.7,0.8,1.8,1.3,2.9,1.2
	c0.3,0,0.6-0.1,0.8-0.2c0.4-0.3,0.5-0.7,0.5-1.2c0-1.4-0.8-2.6-1.6-3.8c-0.9-1.2-1.5-2.5-2.3-3.8c-0.9-1.5-1.9-2.7-2.1-4.5
	c1.6-1.5,3.2,3.4,5.3,2.7c1.5-0.5,0.8-2.7-0.1-4c-2-3-3.3-6.3-4.1-9.8c-0.4-1.7-0.7-3.5-0.9-5.3c-0.1-0.7,0-4.5-1.6-3.5
	c-0.5,0.3-0.6,0.9-0.8,1.5c-0.7,2.9-1.3,5.9-2.1,8.8c-0.6,2.3-0.9,5.5-2.4,7.4c-0.8,1.1-1.8,1.9-1.7,3.4c0,0.1,0,0.2,0.1,0.3
	c0.1,0.2,0.3,0.2,0.4,0.3c1.7,0.6,2.9-0.7,4-1.8c0.1-0.1,0.3-0.3,0.5-0.4c0.2-0.1,0.4-0.1,0.6,0.1c0.4,0.4,0,1.5,0,2
	c-0.2,1.5-0.9,2.9-1.8,4.1c-1.4,2-3.3,3.6-4.5,5.8c-0.2,0.4-0.4,0.9-0.4,1.4c0.1,1,1,1.5,1.9,1.5c1.2,0.1,1.8-0.8,2.3-1.8
	c0.3-0.7,0.6-1.4,1.2-1.7c0.2-0.1,0.4-0.1,0.5,0c0,0.1,0,0.1,0.1,0.2c0.1,1.4-0.2,2.8-0.8,4.1c-0.6,1.3-1.6,2.2-2.7,3.2
	c-0.6,0.5-1.1,1.1-1.5,1.8c-0.3,0.5-0.5,1.1-0.4,1.6l-10.7,3.8h-38.9l-19-8.8c-0.7-0.9-1.5-1.8-2.2-2.6c-0.6-0.6-1.2-1.3-1.7-2
	c-0.6-0.7-3-5.3-1.2-5.9c0.4-0.1,0.9,0.1,1.3,0.4c0.3,0.3,0.6,0.7,0.9,1.1c0.7,0.8,1.8,1.3,2.9,1.2c0.3,0,0.6-0.1,0.8-0.2
	c0.4-0.3,0.5-0.7,0.5-1.2c0-1.4-0.8-2.6-1.6-3.8c-0.9-1.2-1.5-2.5-2.3-3.8c-0.9-1.5-1.9-2.7-2.1-4.5c1.6-1.5,3.2,3.4,5.3,2.7
	c1.5-0.5,0.8-2.7-0.1-4c-2-3-3.3-6.3-4.1-9.8c-0.4-1.7-0.7-3.5-0.9-5.3c-0.1-0.7,0-4.5-1.6-3.5c-0.5,0.3-0.6,0.9-0.8,1.5
	c-0.7,2.9-1.3,5.9-2.1,8.8c-0.6,2.3-0.9,5.5-2.4,7.4c-0.8,1.1-1.8,1.9-1.7,3.4c0,0.1,0,0.2,0.1,0.3c0.1,0.2,0.3,0.2,0.4,0.3
	c1.7,0.6,2.9-0.7,4-1.8c0.1-0.1,0.3-0.3,0.5-0.4c0.2-0.1,0.4-0.1,0.6,0.1c0.4,0.4,0,1.5,0,2c-0.2,1.5-0.9,2.9-1.8,4.1
	c-1.4,2-3.3,3.6-4.5,5.8c-0.2,0.4-0.4,0.9-0.4,1.4c0.1,1,1,1.5,1.9,1.5c1.2,0.1,1.8-0.8,2.3-1.8c0.3-0.7,0.6-1.4,1.2-1.7
	c0.2-0.1,0.4-0.1,0.5,0c0,0.1,0,0.1,0.1,0.2c0.1,1.4-0.2,2.8-0.8,4.1c-0.2,0.5-0.5,0.8-0.8,1.2l-6.2-2.9c0-1.1-0.4-2.2-1.1-3.1
	c-0.7-1-1.5-1.8-2.3-2.7c-0.6-0.6-1.2-1.3-1.7-2c-0.6-0.7-3-5.3-1.2-5.9c0.4-0.1,0.9,0.1,1.3,0.4c0.3,0.3,0.6,0.7,0.9,1.1
	c0.7,0.8,1.8,1.3,2.9,1.2c0.3,0,0.6-0.1,0.8-0.2c0.4-0.3,0.5-0.7,0.5-1.2c0-1.4-0.8-2.6-1.6-3.8c-0.9-1.2-1.5-2.5-2.3-3.8
	c-0.9-1.5-1.9-2.7-2.1-4.5c1.6-1.5,3.2,3.4,5.3,2.7c1.5-0.5,0.8-2.7-0.1-4c-2-3-3.3-6.3-4.1-9.8c-0.4-1.7-0.7-3.5-0.9-5.3
	c-0.1-0.7,0-4.5-1.6-3.5c-0.5,0.3-0.6,0.9-0.8,1.5c-0.7,2.9-1.3,5.9-2.1,8.8c-0.6,2.3-0.9,5.5-2.4,7.4c-0.8,1.1-1.8,1.9-1.7,3.4
	c0,0.1,0,0.2,0.1,0.3c0.1,0.2,0.3,0.2,0.4,0.3c1.7,0.6,2.9-0.7,4-1.8c0.1-0.1,0.3-0.3,0.5-0.4c0.2-0.1,0.4-0.1,0.6,0.1
	c0.4,0.4,0,1.5,0,2c-0.2,1.5-0.9,2.9-1.8,4.1c-1.4,2-3.3,3.6-4.5,5.8c-0.2,0.4-0.4,0.9-0.4,1.4c0.1,1,1,1.5,1.9,1.5
	c1.2,0.1,1.8-0.8,2.3-1.8c0.3-0.7,0.6-1.4,1.2-1.7c0.2-0.1,0.4-0.1,0.5,0c0,0.1,0,0.1,0.1,0.2c0.1,1.4-0.2,2.8-0.8,4.1
	c-0.6,1.3-1.5,2.1-2.6,3.1l-9.8-4.5c-0.3-1.5-1.2-2.9-2.1-4c-1.8-2.1-4-4.5-3.5-7.3c1.9,0.2,2.4,3.4,4.3,3.3c1.4,0,1.9-1.9,1.6-3.2
	c-0.6-2.9-3-4.9-4.8-7.1c-0.8-1.1-1.6-2.2-1.9-3.5c-0.1-0.3-0.5-1.5-0.3-1.8c0.5-0.7,1.2,0.2,1.4,0.6c0.4,0.6,0.8,1.3,1.2,1.9
	c0.3,0.5,0.7,0.9,1.2,1.2c0.5,0.3,1.1,0.4,1.6,0.2c0.7-0.3,1-1.1,1.1-1.9c0.1-1.2-0.4-2.3-1.1-3.3c-0.7-1-1.5-1.8-2.3-2.7
	c-0.6-0.6-1.2-1.3-1.7-2c-0.6-0.7-3-5.3-1.2-5.9c0.4-0.1,0.9,0.1,1.3,0.4c0.3,0.3,0.6,0.7,0.9,1.1c0.7,0.8,1.8,1.3,2.9,1.2
	c0.3,0,0.6-0.1,0.8-0.2c0.4-0.3,0.5-0.7,0.5-1.2c0-1.4-0.8-2.6-1.6-3.8c-0.9-1.2-1.5-2.5-2.3-3.8c-0.9-1.5-1.9-2.7-2.1-4.5
	c1.6-1.5,3.2,3.4,5.3,2.7c1.5-0.5,0.8-2.7-0.1-4c-2-3-3.3-6.3-4.1-9.8c-0.4-1.7-0.7-3.5-0.9-5.3c-0.1-0.7,0-4.5-1.6-3.5
	c-0.5,0.3-0.6,0.9-0.8,1.5c-0.7,2.9-1.3,5.9-2.1,8.8c-0.6,2.3-0.9,5.5-2.4,7.4c-0.8,1.1-1.8,1.9-1.7,3.4c0,0.1,0,0.2,0.1,0.3
	c0.1,0.2,0.3,0.2,0.4,0.3c1.7,0.6,2.9-0.7,4-1.8c0.1-0.1,0.3-0.3,0.5-0.4c0.2-0.1,0.4-0.1,0.6,0.1c0.4,0.4,0,1.5,0,2
	c-0.2,1.5-0.9,2.9-1.8,4.1c-1.4,2-3.3,3.6-4.5,5.8c-0.2,0.4-0.4,0.9-0.4,1.4c0.1,1,1,1.5,1.9,1.5c1.2,0.1,1.8-0.8,2.3-1.8
	c0.3-0.7,0.6-1.4,1.2-1.7c0.2-0.1,0.4-0.1,0.5,0c0,0.1,0,0.1,0.1,0.2c0.1,1.4-0.2,2.8-0.8,4.1c-0.6,1.3-1.6,2.2-2.7,3.2
	c-0.6,0.5-1.1,1.1-1.5,1.8c-0.3,0.5-0.5,1.1-0.4,1.6c0.1,0.6,0.4,1.1,0.9,1.3c0.7,0.3,1.6-0.1,2.1-0.7c0.3-0.3,1.8-2.8,2.4-1.8
	c0.2,0.3-0.2,1.7-0.3,2.1c-0.3,1.3-0.7,2.6-1.2,3.9c-1,2.6-2.6,4.9-4.5,6.9c-0.8,0.8-1.8,1.8-1.7,3c0.1,1.6,2.1,2.3,3.4,1.9
	c1.9-0.5,1.8-2.5,3.2-3.5c0.1-0.1,0.2-0.1,0.3-0.1c0.3,0,0.3,0.4,0.3,0.7c-0.3,1.7-0.9,3.4-1.6,5l-16.5-7.6c0.6-0.4,0.8-1.1,0.9-1.8
	c0.1-1.2-0.4-2.3-1.1-3.3c-0.7-1-1.5-1.8-2.3-2.7c-0.6-0.6-1.2-1.3-1.7-2c-0.6-0.7-3-5.3-1.2-5.9c0.4-0.1,0.9,0.1,1.3,0.4
	c0.3,0.3,0.6,0.7,0.9,1.1c0.7,0.8,1.8,1.3,2.9,1.2c0.3,0,0.6-0.1,0.8-0.2c0.4-0.3,0.5-0.7,0.5-1.2c0-1.4-0.8-2.6-1.6-3.8
	c-0.9-1.2-1.5-2.5-2.3-3.8c-0.9-1.5-1.9-2.7-2.1-4.5c1.6-1.5,3.2,3.4,5.3,2.7c1.5-0.5,0.8-2.7-0.1-4c-2-3-3.3-6.3-4.1-9.8
	c-0.4-1.7-0.7-3.5-0.9-5.3c-0.1-0.7,0-4.5-1.6-3.5c-0.5,0.3-0.6,0.9-0.8,1.5c-0.7,2.9-1.3,5.9-2.1,8.8c-0.6,2.3-0.9,5.5-2.4,7.4
	c-0.8,1.1-1.8,1.9-1.7,3.4c0,0.1,0,0.2,0.1,0.3c0.1,0.2,0.3,0.2,0.4,0.3c1.7,0.6,2.9-0.7,4-1.8c0.1-0.1,0.3-0.3,0.5-0.4
	c0.2-0.1,0.4-0.1,0.6,0.1c0.4,0.4,0,1.5,0,2c-0.2,1.5-0.9,2.9-1.8,4.1c-1.4,2-3.3,3.6-4.5,5.8c-0.2,0.4-0.4,0.9-0.4,1.4
	c0.1,1,1,1.5,1.9,1.5c1.2,0.1,1.8-0.8,2.3-1.8c0.3-0.7,0.6-1.4,1.2-1.7c0.2-0.1,0.4-0.1,0.5,0c0,0.1,0,0.1,0.1,0.2
	c0.1,1.4-0.2,2.8-0.8,4.1c-0.6,1.3-1.6,2.2-2.7,3.2c-0.5,0.5-1,1-1.4,1.6l-15.9-7.3c-0.2-0.3-0.5-0.5-0.7-0.8
	c-0.6-0.6-1.2-1.3-1.7-2c-0.6-0.7-3-5.3-1.2-5.9c0.4-0.1,0.9,0.1,1.3,0.4c0.3,0.3,0.6,0.7,0.9,1.1c0.7,0.8,1.8,1.3,2.9,1.2
	c0.3,0,0.6-0.1,0.8-0.2c0.4-0.3,0.5-0.7,0.5-1.2c0-1.4-0.8-2.6-1.6-3.8c-0.9-1.2-1.5-2.5-2.3-3.8c-0.9-1.5-1.9-2.7-2.1-4.5
	c1.6-1.5,3.2,3.4,5.3,2.7c1.5-0.5,0.8-2.7-0.1-4c-2-3-3.3-6.3-4.1-9.8c-0.4-1.7-0.7-3.5-0.9-5.3c-0.1-0.7,0-4.5-1.6-3.5
	c-0.5,0.3-0.6,0.9-0.8,1.5c-0.7,2.9-1.3,5.9-2.1,8.8c-0.6,2.3-0.9,5.5-2.4,7.4c-0.8,1.1-1.8,1.9-1.7,3.4c0,0.1,0,0.2,0.1,0.3
	c0.1,0.2,0.3,0.2,0.4,0.3c1.7,0.6,2.9-0.7,4-1.8c0.1-0.1,0.3-0.3,0.5-0.4c0.2-0.1,0.4-0.1,0.6,0.1c0.4,0.4,0,1.5,0,2
	c-0.2,1.5-0.9,2.9-1.8,4.1c-1.4,2-3.3,3.6-4.5,5.8c-0.2,0.4-0.4,0.9-0.4,1.4c0,0.2,0.1,0.4,0.2,0.5l-4-1.8c-0.6-0.9-1.4-1.7-2.2-2.5
	c-0.6-0.6-1.2-1.3-1.7-2c-0.6-0.7-3-5.3-1.2-5.9c0.4-0.1,0.9,0.1,1.3,0.4c0.3,0.3,0.6,0.7,0.9,1.1c0.7,0.8,1.8,1.3,2.9,1.2
	c0.3,0,0.6-0.1,0.8-0.2c0.4-0.3,0.5-0.7,0.5-1.2c0-1.4-0.8-2.6-1.6-3.8c-0.9-1.2-1.5-2.5-2.3-3.8c-0.9-1.5-1.9-2.7-2.1-4.5
	c1.6-1.5,3.2,3.4,5.3,2.7c1.5-0.5,0.8-2.7-0.1-4c-2-3-3.3-6.3-4.1-9.8c-0.4-1.7-0.7-3.5-0.9-5.3c-0.1-0.7,0-4.5-1.6-3.5
	c-0.5,0.3-0.6,0.9-0.8,1.5c-0.7,2.9-1.3,5.9-2.1,8.8c-0.6,2.3-0.9,5.5-2.4,7.4c-0.8,1.1-1.8,1.9-1.7,3.4c0,0.1,0,0.2,0.1,0.3
	c0.1,0.2,0.3,0.2,0.4,0.3c1.7,0.6,2.9-0.7,4-1.8c0.1-0.1,0.3-0.3,0.5-0.4c0.2-0.1,0.4-0.1,0.6,0.1c0.4,0.4,0,1.5,0,2
	c-0.2,1.5-0.9,2.9-1.8,4.1c-1.4,2-3.3,3.6-4.5,5.8c-0.2,0.4-0.4,0.9-0.4,1.4c0.1,1,1,1.5,1.9,1.5c1.2,0.1,1.8-0.8,2.3-1.8
	c0.3-0.7,0.6-1.4,1.2-1.7c0.2-0.1,0.4-0.1,0.5,0c0,0.1,0,0.1,0.1,0.2c0.1,1.4-0.2,2.8-0.8,4.1c-0.2,0.4-0.5,0.8-0.7,1.2l-18.8-8.7
	c-0.8-0.9-1.6-1.8-2.3-2.7c-0.8-1.1-1.6-2.2-1.9-3.5c-0.1-0.3-0.5-1.5-0.3-1.8c0.5-0.7,1.2,0.2,1.4,0.6c0.4,0.6,0.8,1.3,1.2,1.9
	c0.3,0.5,0.7,0.9,1.2,1.2c0.5,0.3,1.1,0.4,1.6,0.2c0.7-0.3,1-1.1,1.1-1.9c0.1-1.2-0.4-2.3-1.1-3.3c-0.7-1-1.5-1.8-2.3-2.7
	c-0.6-0.6-1.2-1.3-1.7-2c-0.6-0.7-3-5.3-1.2-5.9c0.4-0.1,0.9,0.1,1.3,0.4c0.3,0.3,0.6,0.7,0.9,1.1c0.7,0.8,1.8,1.3,2.9,1.2
	c0.3,0,0.6-0.1,0.8-0.2c0.4-0.3,0.5-0.7,0.5-1.2c0-1.4-0.8-2.6-1.6-3.8c-0.9-1.2-1.5-2.5-2.3-3.8c-0.9-1.5-1.9-2.7-2.1-4.5
	c1.6-1.5,3.2,3.4,5.3,2.7c1.5-0.5,0.8-2.7-0.1-4c-2-3-3.3-6.3-4.1-9.8c-0.4-1.7-0.7-3.5-0.9-5.3c-0.1-0.7,0-4.5-1.6-3.5
	c-0.5,0.3-0.6,0.9-0.8,1.5c-0.7,2.9-1.3,5.9-2.1,8.8c-0.6,2.3-0.9,5.5-2.4,7.4c-0.8,1.1-1.8,1.9-1.7,3.4c0,0.1,0,0.2,0.1,0.3
	c0.1,0.2,0.3,0.2,0.4,0.3c1.7,0.6,2.9-0.7,4-1.8c0.1-0.1,0.3-0.3,0.5-0.4c0.2-0.1,0.4-0.1,0.6,0.1c0.4,0.4,0,1.5,0,2
	c-0.2,1.5-0.9,2.9-1.8,4.1c-1.4,2-3.3,3.6-4.5,5.8c-0.2,0.4-0.4,0.9-0.4,1.4c0.1,1,1,1.5,1.9,1.5c1.2,0.1,1.8-0.8,2.3-1.8
	c0.3-0.7,0.6-1.4,1.2-1.7c0.2-0.1,0.4-0.1,0.5,0c0,0.1,0,0.1,0.1,0.2c0.1,1.4-0.2,2.8-0.8,4.1c-0.6,1.3-1.6,2.2-2.7,3.2
	c-0.6,0.5-1.1,1.1-1.5,1.8c-0.3,0.5-0.5,1.1-0.4,1.6c0.1,0.6,0.4,1.1,0.9,1.3c0.7,0.3,1.6-0.1,2.1-0.7c0.3-0.3,1.8-2.8,2.4-1.8
	c0.2,0.3-0.2,1.7-0.3,2.1c-0.3,1.2-0.6,2.5-1.1,3.6l-17.3-8c0,0,0,0,0,0c0-1.4-0.8-2.6-1.6-3.8c-0.9-1.2-1.5-2.5-2.3-3.8
	c-0.9-1.5-1.9-2.7-2.1-4.5c1.6-1.5,3.2,3.4,5.3,2.7c1.5-0.5,0.8-2.7-0.1-4c-2-3-3.3-6.3-4.1-9.8c-0.4-1.7-0.7-3.5-0.9-5.3
	c-0.1-0.7,0-4.5-1.6-3.5c-0.5,0.3-0.6,0.9-0.8,1.5c-0.7,2.9-1.3,5.9-2.1,8.8c-0.6,2.3-0.9,5.5-2.4,7.4c-0.8,1.1-1.8,1.9-1.7,3.4
	c0,0.1,0,0.2,0.1,0.3c0.1,0.2,0.3,0.2,0.4,0.3c1.7,0.6,2.9-0.7,4-1.8c0.1-0.1,0.3-0.3,0.5-0.4c0.2-0.1,0.4-0.1,0.6,0.1
	c0.4,0.4,0,1.5,0,2c-0.2,1.5-0.9,2.9-1.8,4.1c-0.2,0.3-0.5,0.6-0.7,0.9l-8.5-3.9c-0.4-0.5-0.9-1-1.4-1.5c-0.6-0.6-1.2-1.3-1.7-2
	c-0.6-0.7-3-5.3-1.2-5.9c0.4-0.1,0.9,0.1,1.3,0.4c0.3,0.3,0.6,0.7,0.9,1.1c0.7,0.8,1.8,1.3,2.9,1.2c0.3,0,0.6-0.1,0.8-0.2
	c0.4-0.3,0.5-0.7,0.5-1.2c0-1.4-0.8-2.6-1.6-3.8c-0.9-1.2-1.5-2.5-2.3-3.8c-0.9-1.5-1.9-2.7-2.1-4.5c1.6-1.5,3.2,3.4,5.3,2.7
	c1.5-0.5,0.8-2.7-0.1-4c-2-3-3.3-6.3-4.1-9.8c-0.4-1.7-0.7-3.5-0.9-5.3c-0.1-0.7,0-4.5-1.6-3.5c-0.5,0.3-0.6,0.9-0.8,1.5
	c-0.7,2.9-1.3,5.9-2.1,8.8c-0.6,2.3-0.9,5.5-2.4,7.4c-0.8,1.1-1.8,1.9-1.7,3.4c0,0.1,0,0.2,0.1,0.3c0.1,0.2,0.3,0.2,0.4,0.3
	c1.7,0.6,2.9-0.7,4-1.8c0.1-0.1,0.3-0.3,0.5-0.4c0.2-0.1,0.4-0.1,0.6,0.1c0.4,0.4,0,1.5,0,2c-0.2,1.5-0.9,2.9-1.8,4.1
	c-1.4,2-3.3,3.6-4.5,5.8c-0.2,0.4-0.4,0.9-0.4,1.4c0.1,1,1,1.5,1.9,1.5c1.2,0.1,1.8-0.8,2.3-1.8c0.3-0.7,0.6-1.4,1.2-1.7
	c0.2-0.1,0.4-0.1,0.5,0c0,0.1,0,0.1,0.1,0.2c0.1,1.4-0.2,2.8-0.8,4.1c-0.1,0.3-0.3,0.5-0.4,0.7l-11.9-5.5c-0.1-1.8-1.2-3.6-2.3-4.9
	c-1.8-2.1-4-4.5-3.5-7.3c1.9,0.2,2.4,3.4,4.3,3.3c1.4,0,1.9-1.9,1.6-3.2c-0.6-2.9-3-4.9-4.8-7.1c-0.8-1.1-1.6-2.2-1.9-3.5
	c-0.1-0.3-0.5-1.5-0.3-1.8c0.5-0.7,1.2,0.2,1.4,0.6c0.4,0.6,0.8,1.3,1.2,1.9c0.3,0.5,0.7,0.9,1.2,1.2c0.5,0.3,1.1,0.4,1.6,0.2
	c0.7-0.3,1-1.1,1.1-1.9c0.1-1.2-0.4-2.3-1.1-3.3c-0.7-1-1.5-1.8-2.3-2.7c-0.6-0.6-1.2-1.3-1.7-2c-0.6-0.7-3-5.3-1.2-5.9
	c0.4-0.1,0.9,0.1,1.3,0.4c0.3,0.3,0.6,0.7,0.9,1.1c0.7,0.8,1.8,1.3,2.9,1.2c0.3,0,0.6-0.1,0.8-0.2c0.4-0.3,0.5-0.7,0.5-1.2
	c0-1.4-0.8-2.6-1.6-3.8c-0.9-1.2-1.5-2.5-2.3-3.8c-0.9-1.5-1.9-2.7-2.1-4.5c1.6-1.5,3.2,3.4,5.3,2.7c1.5-0.5,0.8-2.7-0.1-4
	c-2-3-3.3-6.3-4.1-9.8c-0.4-1.7-0.7-3.5-0.9-5.3c-0.1-0.7,0-4.5-1.6-3.5c-0.5,0.3-0.6,0.9-0.8,1.5c-0.7,2.9-1.3,5.9-2.1,8.8
	c-0.6,2.3-0.9,5.5-2.4,7.4c-0.8,1.1-1.8,1.9-1.7,3.4c0,0.1,0,0.2,0.1,0.3c0.1,0.2,0.3,0.2,0.4,0.3c1.7,0.6,2.9-0.7,4-1.8
	c0.1-0.1,0.3-0.3,0.5-0.4c0.2-0.1,0.4-0.1,0.6,0.1c0.4,0.4,0,1.5,0,2c-0.2,1.5-0.9,2.9-1.8,4.1c-1.4,2-3.3,3.6-4.5,5.8
	c-0.2,0.4-0.4,0.9-0.4,1.4c0.1,1,1,1.5,1.9,1.5c1.2,0.1,1.8-0.8,2.3-1.8c0.3-0.7,0.6-1.4,1.2-1.7c0.2-0.1,0.4-0.1,0.5,0
	c0,0.1,0,0.1,0.1,0.2c0.1,1.4-0.2,2.8-0.8,4.1c-0.6,1.3-1.6,2.2-2.7,3.2c-0.6,0.5-1.1,1.1-1.5,1.8c-0.3,0.5-0.5,1.1-0.4,1.6
	s0.4,1.1,0.9,1.3c0.7,0.3,1.6-0.1,2.1-0.7c0.3-0.3,1.8-2.8,2.4-1.8c0.2,0.3-0.2,1.7-0.3,2.1c-0.3,1.3-0.7,2.6-1.2,3.9
	c-1,2.6-2.6,4.9-4.5,6.9c-0.8,0.8-1.8,1.8-1.7,3c0.1,1.6,2.1,2.3,3.4,1.9c1.9-0.5,1.8-2.5,3.2-3.5c0.1-0.1,0.2-0.1,0.3-0.1
	c0.3,0,0.3,0.4,0.3,0.7c-0.3,2-1,3.9-2,5.7l-12.7-5.9c-0.5-0.6-1.1-1.2-1.7-1.9c-0.6-0.6-1.2-1.3-1.7-2c-0.6-0.7-3-5.3-1.2-5.9
	c0.4-0.1,0.9,0.1,1.3,0.4c0.3,0.3,0.6,0.7,0.9,1.1c0.7,0.8,1.8,1.3,2.9,1.2c0.3,0,0.6-0.1,0.8-0.2c0.4-0.3,0.5-0.7,0.5-1.2
	c0-1.4-0.8-2.6-1.6-3.8c-0.9-1.2-1.5-2.5-2.3-3.8c-0.9-1.5-1.9-2.7-2.1-4.5c1.6-1.5,3.2,3.4,5.3,2.7c1.5-0.5,0.8-2.7-0.1-4
	c-2-3-3.3-6.3-4.1-9.8c-0.4-1.7-0.7-3.5-0.9-5.3c-0.1-0.7,0-4.5-1.6-3.5c-0.5,0.3-0.6,0.9-0.8,1.5c-0.7,2.9-1.3,5.9-2.1,8.8
	c-0.6,2.3-0.9,5.5-2.4,7.4c-0.8,1.1-1.8,1.9-1.7,3.4c0,0.1,0,0.2,0.1,0.3c0.1,0.2,0.3,0.2,0.4,0.3c1.7,0.6,2.9-0.7,4-1.8
	c0.1-0.1,0.3-0.3,0.5-0.4c0.2-0.1,0.4-0.1,0.6,0.1c0.4,0.4,0,1.5,0,2c-0.2,1.5-0.9,2.9-1.8,4.1c-1.4,2-3.3,3.6-4.5,5.8
	c-0.2,0.4-0.4,0.9-0.4,1.4c0.1,1,1,1.5,1.9,1.5c1.2,0.1,1.8-0.8,2.3-1.8c0.3-0.7,0.6-1.4,1.2-1.7c0.2-0.1,0.4-0.1,0.5,0
	c0,0.1,0,0.1,0.1,0.2c0.1,1.4-0.2,2.8-0.8,4.1c-0.1,0.3-0.3,0.6-0.5,0.9l-14.6-6.7c-0.6-0.7-1.3-1.4-1.8-2.2
	c-0.8-1.1-1.6-2.2-1.9-3.5c-0.1-0.3-0.5-1.5-0.3-1.8c0.5-0.7,1.2,0.2,1.4,0.6c0.4,0.6,0.8,1.3,1.2,1.9c0.3,0.5,0.7,0.9,1.2,1.2
	c0.5,0.3,1.1,0.4,1.6,0.2c0.7-0.3,1-1.1,1.1-1.9c0.1-1.2-0.4-2.3-1.1-3.3c-0.7-1-1.5-1.8-2.3-2.7c-0.6-0.6-1.2-1.3-1.7-2
	c-0.6-0.7-3-5.3-1.2-5.9c0.4-0.1,0.9,0.1,1.3,0.4c0.3,0.3,0.6,0.7,0.9,1.1c0.7,0.8,1.8,1.3,2.9,1.2c0.3,0,0.6-0.1,0.8-0.2
	c0.4-0.3,0.5-0.7,0.5-1.2c0-1.4-0.8-2.6-1.6-3.8c-0.9-1.2-1.5-2.5-2.3-3.8c-0.9-1.5-1.9-2.7-2.1-4.5c1.6-1.5,3.2,3.4,5.3,2.7
	c1.5-0.5,0.8-2.7-0.1-4c-2-3-3.3-6.3-4.1-9.8c-0.4-1.7-0.7-3.5-0.9-5.3c-0.1-0.7,0-4.5-1.6-3.5c-0.5,0.3-0.6,0.9-0.8,1.5
	c-0.7,2.9-1.3,5.9-2.1,8.8c-0.6,2.3-0.9,5.5-2.4,7.4c-0.8,1.1-1.8,1.9-1.7,3.4c0,0.1,0,0.2,0.1,0.3c0.1,0.2,0.3,0.2,0.4,0.3
	c1.7,0.6,2.9-0.7,4-1.8c0.1-0.1,0.3-0.3,0.5-0.4c0.2-0.1,0.4-0.1,0.6,0.1c0.4,0.4,0,1.5,0,2c-0.2,1.5-0.9,2.9-1.8,4.1
	c-1.4,2-3.3,3.6-4.5,5.8c-0.2,0.4-0.4,0.9-0.4,1.4c0.1,1,1,1.5,1.9,1.5c1.2,0.1,1.8-0.8,2.3-1.8c0.3-0.7,0.5-1.4,1.2-1.7
	c0.2-0.1,0.4-0.1,0.5,0c0,0.1,0,0.1,0.1,0.2c0.1,1.4-0.2,2.8-0.8,4.1c-0.6,1.3-1.6,2.2-2.7,3.2c-0.6,0.5-1.1,1.1-1.5,1.8
	c-0.3,0.5-0.5,1.1-0.4,1.6c0.1,0.6,0.4,1.1,0.9,1.3c0.7,0.3,1.6-0.1,2.1-0.7c0.3-0.3,1.8-2.8,2.4-1.8c0.2,0.3-0.2,1.7-0.3,2.1
	c-0.2,1.1-0.6,2.3-1,3.3l-13.6-6.3c-0.6-0.8-1.3-1.5-1.9-2.2c-0.6-0.6-1.2-1.3-1.7-2c-0.6-0.7-3-5.3-1.2-5.9
	c0.4-0.1,0.9,0.1,1.3,0.4c0.3,0.3,0.6,0.7,0.9,1.1c0.7,0.8,1.8,1.3,2.9,1.2c0.3,0,0.6-0.1,0.8-0.2c0.4-0.3,0.5-0.7,0.5-1.2
	c0-1.4-0.8-2.6-1.6-3.8c-0.9-1.2-1.5-2.5-2.3-3.8c-0.9-1.5-1.9-2.7-2.1-4.5c1.6-1.5,3.2,3.4,5.3,2.7c1.5-0.5,0.8-2.7-0.1-4
	c-2-3-3.3-6.3-4.1-9.8c-0.4-1.7-0.7-3.5-0.9-5.3c-0.1-0.7,0-4.5-1.6-3.5c-0.5,0.3-0.6,0.9-0.8,1.5c-0.7,2.9-1.3,5.9-2.1,8.8
	c-0.6,2.3-0.9,5.5-2.4,7.4c-0.8,1.1-1.8,1.9-1.7,3.4c0,0.1,0,0.2,0.1,0.3c0.1,0.2,0.3,0.2,0.4,0.3c1.7,0.6,2.9-0.7,4-1.8
	c0.1-0.1,0.3-0.3,0.5-0.4c0.2-0.1,0.4-0.1,0.6,0.1c0.4,0.4,0,1.5,0,2c-0.2,1.5-0.9,2.9-1.8,4.1c-1.4,2-3.3,3.6-4.5,5.8
	c-0.2,0.4-0.4,0.9-0.4,1.4c0.1,1,1,1.5,1.9,1.5c1.2,0.1,1.8-0.8,2.3-1.8c0.3-0.7,0.6-1.4,1.2-1.7c0.2-0.1,0.4-0.1,0.5,0
	c0,0.1,0,0.1,0.1,0.2c0.1,1.4-0.2,2.8-0.8,4.1c-0.2,0.4-0.4,0.7-0.6,1l-15.7-7.3c-0.1-0.1-0.2-0.3-0.2-0.4c-0.9-1.5-1.9-2.7-2.1-4.5
	c1.6-1.5,3.2,3.4,5.3,2.7c1.5-0.5,0.8-2.7-0.1-4c-2-3-3.3-6.3-4.1-9.8c-0.4-1.7-0.7-3.5-0.9-5.3c-0.1-0.7,0-4.5-1.6-3.5
	c-0.5,0.3-0.6,0.9-0.8,1.5c-0.7,2.9-1.3,5.9-2.1,8.8c-0.6,2.3-0.9,5.5-2.4,7.4c-0.5,0.7-1.2,1.3-1.5,2.1l-13.3-6.2
	c-0.7-1.2-1.2-2.5-0.9-3.9c1.9,0.2,2.4,3.4,4.3,3.3c1.4,0,1.9-1.9,1.6-3.2c-0.6-2.9-3-4.9-4.8-7.1c-0.8-1.1-1.6-2.2-1.9-3.5
	c-0.1-0.3-0.5-1.5-0.3-1.8c0.5-0.7,1.2,0.2,1.4,0.6c0.4,0.6,0.8,1.3,1.2,1.9c0.3,0.5,0.7,0.9,1.2,1.2c0.5,0.3,1.1,0.4,1.6,0.2
	c0.7-0.3,1-1.1,1.1-1.9c0.1-1.2-0.4-2.3-1.1-3.3c-0.7-1-1.5-1.8-2.3-2.7c-0.6-0.6-1.2-1.3-1.7-2c-0.6-0.7-3-5.3-1.2-5.9
	c0.4-0.1,0.9,0.1,1.3,0.4c0.3,0.3,0.6,0.7,0.9,1.1c0.7,0.8,1.8,1.3,2.9,1.2c0.3,0,0.6-0.1,0.8-0.2c0.4-0.3,0.5-0.7,0.5-1.2
	c0-1.4-0.8-2.6-1.6-3.8c-0.9-1.2-1.5-2.5-2.3-3.8c-0.9-1.5-1.9-2.7-2.1-4.5c1.6-1.5,3.2,3.4,5.3,2.7c1.5-0.5,0.8-2.7-0.1-4
	c-2-3-3.3-6.3-4.1-9.8c-0.4-1.7-0.7-3.5-0.9-5.3c-0.1-0.7,0-4.5-1.6-3.5c-0.5,0.3-0.6,0.9-0.8,1.5c-0.7,2.9-1.3,5.9-2.1,8.8
	c-0.6,2.3-0.9,5.5-2.4,7.4c-0.8,1.1-1.8,1.9-1.7,3.4c0,0.1,0,0.2,0.1,0.3c0.1,0.2,0.3,0.2,0.4,0.3c1.7,0.6,2.9-0.7,4-1.8
	c0.1-0.1,0.3-0.3,0.5-0.4c0.2-0.1,0.4-0.1,0.6,0.1c0.4,0.4,0,1.5,0,2c-0.2,1.5-0.9,2.9-1.8,4.1c-1.4,2-3.3,3.6-4.5,5.8
	c-0.2,0.4-0.4,0.9-0.4,1.4c0.1,1,1,1.5,1.9,1.5c1.2,0.1,1.8-0.8,2.3-1.8c0.3-0.7,0.6-1.4,1.2-1.7c0.2-0.1,0.4-0.1,0.5,0
	c0,0.1,0,0.1,0.1,0.2c0.1,1.4-0.2,2.8-0.8,4.1c-0.6,1.3-1.6,2.2-2.7,3.2c-0.6,0.5-1.1,1.1-1.5,1.8c-0.3,0.5-0.5,1.1-0.4,1.6
	c0.1,0.6,0.4,1.1,0.9,1.3c0.7,0.3,1.6-0.1,2.1-0.7c0.3-0.3,1.8-2.8,2.4-1.8c0.2,0.3-0.2,1.7-0.3,2.1c-0.3,1.3-0.7,2.6-1.2,3.9
	c-1,2.6-2.6,4.9-4.5,6.9c0,0,0,0-0.1,0.1l-8.5-3.9c-0.7-1-1.5-1.8-2.3-2.7c-0.6-0.6-1.2-1.3-1.7-2c-0.6-0.7-3-5.3-1.2-5.9
	c0.4-0.1,0.9,0.1,1.3,0.4c0.3,0.3,0.6,0.7,0.9,1.1c0.7,0.8,1.8,1.3,2.9,1.2c0.3,0,0.6-0.1,0.8-0.2c0.4-0.3,0.5-0.7,0.5-1.2
	c0-1.4-0.8-2.6-1.6-3.8c-0.9-1.2-1.5-2.5-2.3-3.8c-0.9-1.5-1.9-2.7-2.1-4.5c1.6-1.5,3.2,3.4,5.3,2.7c1.5-0.5,0.8-2.7-0.1-4
	c-2-3-3.3-6.3-4.1-9.8c-0.4-1.7-0.7-3.5-0.9-5.3c-0.1-0.7,0-4.5-1.6-3.5c-0.5,0.3-0.6,0.9-0.8,1.5c-0.7,2.9-1.3,5.9-2.1,8.8
	c-0.6,2.3-0.9,5.5-2.4,7.4c-0.8,1.1-1.8,1.9-1.7,3.4c0,0.1,0,0.2,0.1,0.3c0.1,0.2,0.3,0.2,0.4,0.3c1.7,0.6,2.9-0.7,4-1.8
	c0.1-0.1,0.3-0.3,0.5-0.4c0.2-0.1,0.4-0.1,0.6,0.1c0.4,0.4,0,1.5,0,2c-0.2,1.5-0.9,2.9-1.8,4.1c-1.4,2-3.3,3.6-4.5,5.8
	c-0.2,0.4-0.4,0.9-0.4,1.4c0.1,1,1,1.5,1.9,1.5c1.2,0.1,1.8-0.8,2.3-1.8c0.3-0.7,0.6-1.4,1.2-1.7c0.2-0.1,0.4-0.1,0.5,0
	c0,0.1,0,0.1,0.1,0.2c0.1,1.4-0.2,2.8-0.8,4.1c-0.2,0.5-0.5,0.9-0.8,1.2l-12.2-5.6v330.5l800-1.1V325v-4.7V216.1H1589.3z
	 M1098.8,276.5c0.5-0.7,1.2,0.2,1.4,0.6c0.4,0.6,0.7,1.2,1.1,1.7l-2.4-1.1C1098.8,277.2,1098.6,276.7,1098.8,276.5z M1095.7,274.6
	c0.1,0.2,0,0.9-0.2,1.5l-1.5-0.7C1094.6,274.7,1095.3,274,1095.7,274.6z M1066.1,259.9c0.3-0.7,0.6-1.4,1.2-1.7
	c0.2-0.1,0.4-0.1,0.5,0c0,0.1,0,0.1,0.1,0.2c0.1,1.4-0.2,2.8-0.8,4.1c-0.1,0.1-0.1,0.2-0.2,0.4l-2.6-1.2
	C1065.2,261.6,1065.8,260.8,1066.1,259.9z M859.7,165.3c0.1-0.1,0.3-0.3,0.5-0.4c0.2-0.1,0.4-0.1,0.6,0.1c0.4,0.4,0,1.5,0,2
	c0,0.2-0.1,0.4-0.2,0.7l-2.3-1.1C858.8,166.2,859.3,165.7,859.7,165.3z M835.8,155.2c0.1-0.1,0.2-0.1,0.3-0.1c0.3,0,0.3,0.4,0.3,0.7
	c0,0.2-0.1,0.4-0.1,0.6l-1.1-0.5C835.3,155.6,835.5,155.4,835.8,155.2z M1583,214.8c0.4-0.1,0.9,0.1,1.3,0.4
	c0.3,0.3,0.5,0.6,0.8,0.9h-2.7C1582.3,215.5,1582.5,215,1583,214.8z M1579.1,215.1c0.2-0.1,0.4-0.1,0.5,0c0,0.1,0,0.1,0.1,0.2
	c0,0.3,0,0.6,0,0.8h-1.4C1578.4,215.7,1578.7,215.3,1579.1,215.1z M1377.8,295.3l-0.8,0.8h-0.3c-0.2-0.6-0.4-1.3-0.5-2
	C1376.7,294.5,1377.2,294.9,1377.8,295.3z M1367.9,294.7c0.8-1.4,2.4-3,3.7-2.1c-0.1,1.3-1,2.5-2,3.4h-2.9
	C1367.2,295.7,1367.6,295.2,1367.9,294.7z M1295,294.5c0.4-0.1,0.9,0.1,1.3,0.4c0.3,0.3,0.6,0.7,0.9,1.1c0.1,0.1,0.2,0.2,0.3,0.3
	l-2.8,1C1294.2,296,1294.1,294.8,1295,294.5z M1274.7,302.1c0.9,0.1,1.4,0.8,2,1.6l-1.8,0.7C1274.6,303.6,1274.6,302.9,1274.7,302.1
	z"/>
<path id="XMLID_45_" d="M800.2,290v179h617.6v-82.9L1170.5,347h-24l-33.5-7.6l-46.4,7.6l-61.6-22.5h-14.4c0-0.5-0.2-0.9-0.4-1.4
	c-0.4-0.7-1-1.2-1.5-1.8c-1.1-1-2-1.8-2.7-3.2c-0.6-1.3-0.9-2.7-0.8-4.1c0-0.1,0-0.2,0.1-0.2c0.1-0.1,0.3-0.1,0.5,0
	c0.6,0.3,0.9,1.1,1.2,1.7c0.4,1,1.1,1.9,2.3,1.8c0.9-0.1,1.8-0.6,1.9-1.5c0-0.5-0.2-1-0.4-1.4c-1.1-2.2-3-3.8-4.5-5.8
	c-0.9-1.2-1.6-2.6-1.8-4.1c-0.1-0.4-0.4-1.6,0-2c0.1-0.1,0.4-0.2,0.6-0.1c0.2,0.1,0.3,0.2,0.5,0.4c1.1,1.1,2.3,2.4,4,1.8
	c0.2-0.1,0.4-0.1,0.4-0.3c0.1-0.1,0.1-0.2,0.1-0.3c0.1-1.5-0.9-2.3-1.7-3.4c-1.5-2-1.8-5.1-2.4-7.4c-0.8-2.9-1.4-5.9-2.1-8.8
	c-0.1-0.6-0.3-1.2-0.8-1.5c-1.6-1.1-1.5,2.7-1.6,3.5c-0.2,1.8-0.5,3.5-0.9,5.3c-0.8,3.5-2.1,6.9-4.1,9.8c-0.9,1.3-1.6,3.5-0.1,4
	c2.1,0.7,3.7-4.3,5.3-2.7c-0.2,1.8-1.2,3-2.1,4.5c-0.8,1.3-1.4,2.6-2.3,3.8c-0.8,1.1-1.6,2.4-1.6,3.8c0,0.4,0.1,0.9,0.5,1.2
	c0.2,0.2,0.5,0.2,0.8,0.2c1.1,0.1,2.2-0.4,2.9-1.2c0.3-0.3,0.6-0.8,0.9-1.1c0.3-0.3,0.8-0.5,1.3-0.4c1.8,0.6-0.6,5.1-1.2,5.9
	c-0.5,0.7-1.1,1.3-1.7,2c-0.8,0.9-1.7,1.7-2.3,2.7c-0.1,0.1-0.1,0.2-0.2,0.3h-44.8l-42.1-18.4c-1.5-1.7-2.7-3.7-3.6-5.9
	c-0.5-1.3-0.9-2.6-1.2-3.9c-0.1-0.4-0.5-1.7-0.3-2.1c0.6-1,2.1,1.5,2.4,1.8c0.5,0.6,1.4,1,2.1,0.7c0.5-0.2,0.9-0.8,0.9-1.3
	c0.1-0.6-0.1-1.1-0.4-1.6c-0.4-0.7-1-1.2-1.5-1.8c-1.1-1-2-1.8-2.7-3.2c-0.6-1.3-0.9-2.7-0.8-4.1c0-0.1,0-0.2,0.1-0.2
	c0.1-0.1,0.3-0.1,0.5,0c0.6,0.3,0.9,1.1,1.2,1.7c0.4,1,1.1,1.9,2.3,1.8c0.9-0.1,1.8-0.6,1.9-1.5c0-0.5-0.2-1-0.4-1.4
	c-1.1-2.2-3-3.8-4.5-5.8c-0.9-1.2-1.6-2.6-1.8-4.1c-0.1-0.4-0.4-1.6,0-2c0.1-0.1,0.4-0.2,0.6-0.1c0.2,0.1,0.3,0.2,0.5,0.4
	c1.1,1.1,2.3,2.4,4,1.8c0.2-0.1,0.4-0.1,0.4-0.3c0.1-0.1,0.1-0.2,0.1-0.3c0.1-1.5-0.9-2.3-1.7-3.4c-1.5-2-1.8-5.1-2.4-7.4
	c-0.8-2.9-1.4-5.9-2.1-8.8c-0.1-0.6-0.3-1.2-0.8-1.5c-1.6-1.1-1.5,2.7-1.6,3.5c-0.2,1.8-0.5,3.5-0.9,5.3c-0.8,3.5-2.1,6.9-4.1,9.8
	c-0.9,1.3-1.6,3.5-0.1,4c2.1,0.7,3.7-4.3,5.3-2.7c-0.2,1.8-1.2,3-2.1,4.5c-0.8,1.3-1.4,2.6-2.3,3.8c-0.8,1.1-1.6,2.4-1.6,3.8
	c0,0.4,0.1,0.9,0.5,1.2c0.2,0.2,0.5,0.2,0.8,0.2c1.1,0.1,2.2-0.4,2.9-1.2c0.3-0.3,0.6-0.7,0.9-1.1c0.3-0.3,0.8-0.5,1.3-0.4
	c1.8,0.6-0.6,5.1-1.2,5.9c-0.5,0.7-1.1,1.3-1.7,2c-0.8,0.9-1.7,1.7-2.3,2.7c-0.7,1-1.1,2.1-1.1,3.3c0,0.8,0.4,1.6,1.1,1.9
	c0.5,0.2,1.2,0.1,1.6-0.2s0.9-0.8,1.2-1.2c0.4-0.6,0.9-1.2,1.2-1.9c0.2-0.4,0.9-1.3,1.4-0.6c0.2,0.3-0.2,1.5-0.3,1.8
	c-0.3,1.3-1.1,2.5-1.9,3.5c-0.1,0.1-0.2,0.2-0.3,0.3l-13.3-5.2c-1.1-1.2-2.3-2.3-3.2-3.5c-2.3-2.7-3.6-6.2-3.6-9.7
	c3.3,3,3.2,9.9,8.4,11c0.6,0.1,1.3,0.1,1.9-0.2c0.9-0.5,1.3-1.6,1.2-2.7c-0.1-1-0.6-1.9-1.1-2.8c-2.5-4.3-5-8.6-7.7-12.8
	c-0.7-1.1-2.8-2.9-2.7-4.2c0.1-1.7,2.3-1.9,3.4-0.8c0.8,0.9,1.1,2.1,1.5,3.2c0.4,1.1,1.3,2.3,2.5,2.3c0.9,0,1.8-0.7,2.1-1.6
	c0.4-0.9,0.3-1.9,0.2-2.8c-0.3-1.9-1.1-3.7-2.3-5.3c-2.6-3.5-6.5-5.4-7.9-9.8c-0.2-0.5-0.3-1.1-0.1-1.6c0.1-0.5,0.6-1,1.1-1
	c0.5,0,0.9,0.3,1.3,0.7c1.1,1,2.7,3.1,4.4,1.9c1-0.7,0.9-2.3,0.5-3.5c-1.6-4.3-6.2-6.7-8.5-10.7c-0.5-1-1-2.1-0.7-3.1
	c0.4-1.8,2.2-2.3,3.6-1.3c1.3,1,2,3.9,4.1,3c1.4-0.6,1.4-2.5,0.9-4c-1-3.4-2.7-6.6-4.9-9.3c-2-2.4-4.7-4-4.2-7.6
	c0.5-3.8,4,3.4,4.5,4.2c0.8,1.2,2.1,2.4,3.4,1.9c0.9-0.4,1.2-1.5,1.2-2.5c0.3-6.1-4.8-10.8-8.5-15.6c-0.7-0.9-2.9-6.1,0.2-5.4
	c0.8,0.2,1.3,0.9,1.7,1.6c0.7,1.2,1.3,2.5,2.3,3.5c1,0.9,2.7,1.4,3.8,0.6c0.7-0.5,1.1-1.4,1.2-2.3s-0.2-1.8-0.5-2.6
	c-1.1-2.9-2.8-5.5-5-7.7c-1.9-1.9-4.2-3.7-4.4-6.3c0-0.5,0.1-1.1,0.4-1.5c0.5-0.6,1.5-0.6,2.1-0.2c1.4,0.7,1.7,2.5,3.5,2.3
	c1.1-0.1,2-1.1,2.3-2.1c0.3-1.1,0-2.2-0.3-3.3c-1.1-3.3-3.3-6.2-5.1-9.2c-1.9-3-3.5-6.3-3.3-9.8c0-0.5,0.1-1.1,0.5-1.4
	c0.9-0.9,1.5,0.4,2,1c0.8,0.8,2,1,3,0.5c1-0.5,1.6-1.6,1.4-2.7c-0.1-1.1-1-2-1.7-2.8c-5.5-6.6-6.2-15.8-6.7-24.3
	c-0.1-1.1-0.2-5.5-1.8-5.6c-1.7-0.1-1.5,5-1.5,6c-0.1,3.8,0.5,7.4-0.2,11.2c-0.8,3.9-2.3,7.6-4.6,10.9c-0.7,1-1.5,2-1.9,3.2
	s-0.1,2.7,0.9,3.4c0.6,0.4,1.7,0.5,2.4,0c0.7-0.5,0.2-1.9,1-2.1c0.5-0.1,1,0.2,1.2,0.7c0.2,0.4,0.2,0.9,0.1,1.4
	c-0.4,2.8-2.2,5.2-3.7,7.6c-1.5,2.4-3,5-2.8,7.9c0,0.2,0,0.4,0.1,0.6c0,0,0,0.1,0.1,0.1c0.3,0.4,1,0.3,1.4,0.1
	c1.3-0.7,2.6-3.4,4.4-2.5c2.4,1.1-0.8,5.5-2.1,6.3c-1,0.6-2.1,1-3,1.8c-0.7,0.6-1.3,1.4-1.6,2.3c-0.3,0.8-0.3,1.8,0.2,2.5
	c2,2.4,4.5-3.5,6.4-2.5c2.4,1.3-2.8,7.8-3.9,8.8c-1.7,1.6-3.5,3.3-3.7,5.6c0,0.5,0,1.1,0.4,1.6c0.4,0.5,1.2,0.6,1.9,0.5
	c1-0.1,2-0.6,2.7-1.3c0.4-0.3,0.6-0.8,1-1c0.4-0.3,0.9-0.5,1.4-0.3c0.6,0.3,0.8,1.1,0.7,1.8c-0.3,1.9-2.1,4.1-3.1,5.8
	c-1.3,2.2-2.8,4.3-4.1,6.4c-0.4,0.7-0.8,1.3-1,2.1c-0.1,0.8,0.1,1.7,0.8,2.1c0.8,0.5,2,0.1,2.7-0.5c0.7-0.7,1.2-1.5,2-2.2
	c0.7-0.7,1.9-1,2.7-0.5c1.1,0.7,0.8,2.3,0.3,3.5c-1.3,3.1-3.1,4.4-5.4,6.6c-2.3,2.3-4,5.4-5,8.6c-0.2,0.5-0.3,1.1-0.2,1.7
	c0.4,1.4,2.4,1.5,3.7,0.8c1.5-0.9,3-3.3,5.1-3.3c2.4,0,2.3,3.2,1.6,4.9c-1.2,2.9-3.6,5.1-5.4,7.7c-1.9,2.8-3.1,6.2-3.3,9.7
	c0,0.4,0,0.7,0.1,1.1c1.2,2.4,3.9-2,4.5-2.7c0.4-0.5,0.9-1.1,1.5-1.4c0.6-0.3,1.4-0.4,1.9,0c0.3,0.2,0.5,0.6,0.6,1
	c1,3-2,5.1-3.7,7.2c-1.9,2.2-3.4,4.8-4.3,7.6c-0.4,1.3-0.5,3.1,0.8,3.7c0.9,0.4,2-0.1,2.7-0.8c0.7-0.7,1.1-1.6,1.9-2.3
	c0.3-0.3,0.6-0.5,1-0.5c3-0.1,0.1,4.9-0.6,5.7c-1.1,1.2-2.4,2.1-3.5,3.2c-2.1,2.1-3.5,5-3.9,7.9c-0.1,0.4-0.1,0.9,0.1,1.3
	c0.2,0.4,0.5,0.7,0.9,0.9h-10.2c-0.1-0.4-0.2-0.7-0.3-1.1c-0.1-0.4-0.5-1.7-0.3-2.1c0.6-1,2.1,1.5,2.4,1.8c0.5,0.6,1.4,1,2.1,0.7
	c0.5-0.2,0.9-0.8,0.9-1.3c0.1-0.6-0.1-1.1-0.4-1.6c-0.4-0.7-1-1.2-1.5-1.8c-1.1-1-2-1.8-2.7-3.2c-0.6-1.3-0.9-2.7-0.8-4.1
	c0-0.1,0-0.2,0.1-0.2c0.1-0.1,0.3-0.1,0.5,0c0.6,0.3,0.9,1.1,1.2,1.7c0.4,1,1.1,1.9,2.3,1.8c0.9-0.1,1.8-0.6,1.9-1.5
	c0-0.5-0.2-1-0.4-1.4c-1.1-2.2-3-3.8-4.5-5.8c-0.9-1.2-1.6-2.6-1.8-4.1c-0.1-0.4-0.4-1.6,0-2c0.1-0.1,0.4-0.2,0.6-0.1
	c0.2,0.1,0.3,0.2,0.5,0.4c1.1,1.1,2.3,2.4,4,1.8c0.2-0.1,0.4-0.1,0.4-0.3c0.1-0.1,0.1-0.2,0.1-0.3c0.1-1.5-0.9-2.3-1.7-3.4
	c-1.5-2-1.8-5.1-2.4-7.4c-0.8-2.9-1.4-5.9-2.1-8.8c-0.1-0.6-0.3-1.2-0.8-1.5c-1.6-1.1-1.5,2.7-1.6,3.5c-0.2,1.8-0.5,3.5-0.9,5.3
	c-0.8,3.5-2.1,6.9-4.1,9.8c-0.9,1.3-1.6,3.5-0.1,4c2.1,0.7,3.7-4.3,5.3-2.7c-0.2,1.8-1.2,3-2.1,4.5c-0.8,1.3-1.4,2.6-2.3,3.8
	c-0.8,1.1-1.6,2.4-1.6,3.8c0,0.4,0.1,0.9,0.5,1.2c0.2,0.2,0.5,0.2,0.8,0.2c1.1,0.1,2.2-0.4,2.9-1.2c0.3-0.3,0.6-0.7,0.9-1.1
	c0.3-0.3,0.8-0.5,1.3-0.4c1.8,0.6-0.6,5.1-1.2,5.9c-0.5,0.7-1.1,1.3-1.7,2c-0.8,0.9-1.7,1.7-2.3,2.7c-0.5,0.8-0.9,1.7-1,2.7H800.2z
	 M986.9,324.5h-1.7c-0.1-0.4-0.1-0.7,0-0.9C985.6,323.1,986.3,323.8,986.9,324.5z M826.2,290h-1.7c0.2-0.2,0.3-0.5,0.5-0.7
	c0.2-0.4,0.9-1.3,1.4-0.6C826.5,288.9,826.3,289.6,826.2,290z M846.8,288.8c-0.2,0.4-0.5,0.8-0.8,1.2h-3.7c0.6-0.2,1.1-0.6,1.6-1.1
	c0.7-0.6,1.3-1.3,2-1.8C847.7,286,847.2,287.9,846.8,288.8z"/>
<path id="XMLID_39_" class="st2" d="M775.6,354.1c-0.6-1.1-0.9-2.2-0.7-3.5c1.9,0.2,2.4,3.4,4.3,3.3c1.4,0,1.9-1.9,1.6-3.2
	c-0.6-2.9-3-4.9-4.8-7.1c-0.8-1.1-1.6-2.2-1.9-3.5c-0.1-0.3-0.5-1.5-0.3-1.8c0.5-0.7,1.2,0.2,1.4,0.6c0.4,0.6,0.8,1.3,1.2,1.9
	c0.3,0.5,0.7,0.9,1.2,1.2c0.5,0.3,1.1,0.4,1.6,0.2c0.7-0.3,1-1.1,1.1-1.9c0.1-1.2-0.4-2.3-1.1-3.3c-0.7-1-1.5-1.8-2.3-2.7
	c-0.6-0.6-1.2-1.3-1.7-2c-0.6-0.7-3-5.3-1.2-5.9c0.4-0.1,0.9,0.1,1.3,0.4c0.3,0.3,0.6,0.7,0.9,1.1c0.7,0.8,1.8,1.3,2.9,1.2
	c0.3,0,0.6-0.1,0.8-0.2c0.4-0.3,0.5-0.7,0.5-1.2c0-1.4-0.8-2.6-1.6-3.8c-0.9-1.2-1.5-2.5-2.3-3.8c-0.9-1.5-1.9-2.7-2.1-4.5
	c1.6-1.5,3.2,3.4,5.3,2.7c1.5-0.5,0.8-2.7-0.1-4c-2-3-3.3-6.3-4.1-9.8c-0.4-1.7-0.7-3.5-0.9-5.3c-0.1-0.7,0-4.5-1.6-3.5
	c-0.5,0.3-0.6,0.9-0.8,1.5c-0.7,2.9-1.3,5.9-2.1,8.8c-0.6,2.3-0.9,5.5-2.4,7.4c-0.8,1.1-1.8,1.9-1.7,3.4c0,0.1,0,0.2,0.1,0.3
	c0.1,0.2,0.3,0.2,0.4,0.3c1.7,0.6,2.9-0.7,4-1.8c0.1-0.1,0.3-0.3,0.5-0.4c0.2-0.1,0.4-0.1,0.6,0.1c0.4,0.4,0,1.5,0,2
	c-0.2,1.5-0.9,2.9-1.8,4.1c-1.4,2-3.3,3.6-4.5,5.8c-0.2,0.4-0.4,0.9-0.4,1.4c0.1,1,1,1.5,1.9,1.5c1.2,0.1,1.8-0.8,2.3-1.8
	c0.3-0.7,0.5-1.4,1.2-1.7c0.2-0.1,0.4-0.1,0.5,0c0,0.1,0,0.1,0.1,0.2c0.1,1.4-0.2,2.8-0.8,4.1c-0.6,1.3-1.6,2.2-2.7,3.2
	c-0.6,0.5-1.1,1.1-1.5,1.8c-0.3,0.5-0.5,1.1-0.4,1.6s0.4,1.1,0.9,1.3c0.7,0.3,1.6-0.1,2.1-0.7c0.3-0.3,1.8-2.8,2.4-1.8
	c0.2,0.3-0.2,1.7-0.3,2.1c-0.3,1.3-0.7,2.6-1.2,3.9c-1,2.6-2.6,4.9-4.5,6.9c-0.8,0.8-1.8,1.8-1.7,3c0,0.1,0,0.2,0.1,0.3L485,318.7
	c-2.2-2.3-3.8-5.2-4.6-8.3c1.1,1.4,2.3,2.6,3.7,3.6c1,0.7,2.1,0.6,2.5-0.7c0.2-0.6,0.1-1.1,0.1-1.7c-0.1-1.2-0.3-2.5-0.8-3.6
	c-0.9-2-2.6-3.4-3.9-5.1c-1.4-1.6-2.5-3.8-2.1-5.9c0.1-0.3,0.2-0.7,0.5-0.8c0.5-0.2,1.1,0.2,1.3,0.6c0.6,1,0.6,1.8,1.9,1.4
	c0.9-0.3,1.6-1.4,1.5-2.3c0-0.8-0.4-1.5-0.8-2.1c-2-3.5-6-6.6-5.4-11.1c0-0.3,0.1-0.7,0.4-0.9c0.6-0.5,1.5,0.2,1.9,0.8
	s1.1,1.5,1.9,1.2c0.7-0.3,0.7-1.3,0.5-2c-0.9-3.4-3-6.3-4.4-9.4c-0.4-0.8-0.7-1.7-0.6-2.6c0-0.2,0.1-0.3,0.2-0.5
	c0.2-0.3,0.8-0.3,1.1,0c0.7,0.6,0.8,1.9,2,2c1.1,0.1,1.9-1.1,1.9-2.3c-0.1-1.1-0.8-2.1-1.4-3c-4.4-6.9-4.3-16.1-7-23.7
	c-0.1-0.3-0.2-0.6-0.5-0.8c-0.5-0.4-1.3,0-1.5,0.6c-0.3,0.6-0.2,1.2-0.1,1.8c0.6,5.2-0.4,10.5-1.3,15.7c-0.4,2-0.7,3.9-1.4,5.8
	c-0.9,2.4-2.2,4.7-3.2,7.1c-0.5,1.2-0.6,3,0.6,3.4c1.5,0.5,2.7-2,4.3-1.9c2.7,0.1,0.6,3.7,0.1,4.7c-1.2,2.4-3.1,4.6-3.2,7.4
	c0,0.4,0,0.8,0.2,1.1c1.4,2.2,3.4-1.3,4-2.2c0.3-0.4,0.9-0.7,1.3-0.4c0.4,0.3,0.4,0.8,0.3,1.3c-0.6,5.5-6.3,8.9-7.8,14.2
	c-0.2,0.7-0.3,1.4,0,2c0.7,1.4,2.9,1,4.1-0.1c0.8-0.8,1.3-1.8,2.1-2.6c0.8-0.8,2.3-1.2,1.9,0.6c-0.1,0.6-0.6,1.1-1,1.6
	c-1.2,1.4-2.5,2.7-3.8,4c-0.7,0.6-1.4,1.3-2,2c-0.7,0.9-1,2.1-1.4,3.2c-0.3,1-0.6,2.2,0.2,2.9c0.5,0.4,1.2,0.4,1.8,0.2
	c0.6-0.3,1-0.7,1.5-1.2c0.7-0.8,1.3-1.7,1.8-2.6c0.3-0.2,0.8,0,0.9,0.3c0.2,0.3,0.1,0.7,0.1,1.1c-0.4,2.5-1.4,3.9-2.9,5.3l-59.6-7.3
	l-31.7-12.2c-0.1-0.9-0.5-1.8-1-2.5c-0.7-1-1.5-1.8-2.3-2.7c-0.6-0.6-1.2-1.3-1.7-2c-0.6-0.7-3-5.3-1.2-5.9c0.4-0.1,0.9,0.1,1.3,0.4
	c0.3,0.3,0.6,0.7,0.9,1.1c0.7,0.8,1.8,1.3,2.9,1.2c0.3,0,0.6-0.1,0.8-0.2c0.4-0.3,0.5-0.7,0.5-1.2c0-1.4-0.8-2.6-1.6-3.8
	c-0.9-1.2-1.5-2.5-2.3-3.8c-0.9-1.5-1.9-2.7-2.1-4.5c1.6-1.5,3.2,3.4,5.3,2.7c1.5-0.5,0.8-2.7-0.1-4c-2-3-3.3-6.3-4.1-9.8
	c-0.4-1.7-0.7-3.5-0.9-5.3c-0.1-0.7,0-4.5-1.6-3.5c-0.5,0.3-0.6,0.9-0.8,1.5c-0.7,2.9-1.3,5.9-2.1,8.8c-0.6,2.3-0.9,5.5-2.4,7.4
	c-0.8,1.1-1.8,1.9-1.7,3.4c0,0.1,0,0.2,0.1,0.3c0.1,0.2,0.3,0.2,0.4,0.3c1.7,0.6,2.9-0.7,4-1.8c0.1-0.1,0.3-0.3,0.5-0.4
	c0.2-0.1,0.4-0.1,0.6,0.1c0.4,0.4,0,1.5,0,2c-0.2,1.5-0.9,2.9-1.8,4.1c-1.4,2-3.3,3.6-4.5,5.8c-0.2,0.4-0.4,0.9-0.4,1.4
	c0.1,1,1,1.5,1.9,1.5c1.2,0.1,1.8-0.8,2.3-1.8c0.3-0.7,0.6-1.4,1.2-1.7c0.2-0.1,0.4-0.1,0.5,0c0,0.1,0,0.1,0.1,0.2
	c0.1,1.4-0.2,2.8-0.8,4.1c-0.6,1.3-1.6,2.2-2.7,3.2c-0.1,0.1-0.1,0.1-0.2,0.2l-14.2-5.5c-0.4-1.6-2-3.2-3.3-4.5
	c-2.3-2.4-4-5.4-4.9-8.6c1.1,1.4,2.3,2.6,3.7,3.6c1,0.7,2.1,0.6,2.5-0.7c0.2-0.6,0.1-1.1,0.1-1.7c-0.1-1.2-0.3-2.5-0.8-3.6
	c-0.9-2-2.6-3.4-3.9-5.1c-1.4-1.6-2.5-3.8-2.1-5.9c0.1-0.3,0.2-0.7,0.5-0.8c0.5-0.2,1.1,0.2,1.3,0.6c0.6,1,0.6,1.8,1.9,1.4
	c0.9-0.3,1.6-1.4,1.5-2.3c0-0.8-0.4-1.5-0.8-2.1c-2-3.5-6-6.6-5.4-11.1c0-0.3,0.1-0.7,0.4-0.9c0.6-0.5,1.5,0.2,1.9,0.8
	s1.1,1.5,1.9,1.2c0.7-0.3,0.7-1.3,0.5-2c-0.9-3.4-3-6.3-4.4-9.4c-0.4-0.8-0.7-1.7-0.6-2.6c0-0.2,0.1-0.3,0.2-0.5
	c0.2-0.3,0.8-0.3,1.1,0c0.7,0.6,0.8,1.9,2,2c1.1,0.1,1.9-1.1,1.9-2.3c-0.1-1.1-0.8-2.1-1.4-3c-4.4-6.9-4.3-16.1-7-23.7
	c-0.1-0.3-0.2-0.6-0.5-0.8c-0.5-0.4-1.3,0-1.5,0.6c-0.3,0.6-0.2,1.2-0.1,1.8c0.6,5.2-0.4,10.5-1.3,15.7c-0.4,2-0.7,3.9-1.4,5.8
	c-0.9,2.4-2.2,4.7-3.2,7.1c-0.5,1.2-0.6,3,0.6,3.4c1.5,0.5,2.7-2,4.3-1.9c2.7,0.1,0.6,3.7,0.1,4.7c-1.2,2.4-3.1,4.6-3.2,7.4
	c0,0.4,0,0.8,0.2,1.1c1.4,2.2,3.4-1.3,4-2.2c0.3-0.4,0.9-0.7,1.3-0.4c0.4,0.3,0.4,0.8,0.3,1.3c-0.6,5.5-6.3,8.9-7.8,14.2
	c-0.2,0.7-0.3,1.4,0,2c0.7,1.4,2.9,1,4.1-0.1c0.8-0.8,1.3-1.8,2.1-2.6c0.8-0.8,2.3-1.2,1.9,0.6c-0.1,0.6-0.6,1.1-1,1.6
	c-1.2,1.4-2.5,2.7-3.8,4c-0.7,0.6-1.4,1.3-2,2c-0.7,0.9-1,2.1-1.4,3.2c-0.3,1-0.6,2.2,0.2,2.9c0.5,0.4,1.2,0.4,1.8,0.2
	c0.6-0.3,1-0.7,1.5-1.2c0.7-0.8,1.3-1.7,1.8-2.6c0.3-0.2,0.8,0,0.9,0.3c0.2,0.3,0.1,0.7,0.1,1.1c-0.4,2.3-1.3,3.7-2.7,5.1l-9.2-3.5
	h-10c-0.7-2-1.8-3.8-3.1-5.4c-1.3-1.5-3.4-3.1-2.7-5.3c0.1-0.3,0.2-0.6,0.5-0.7c0.4-0.3,1-0.3,1.4,0c0.4,0.2,0.8,0.6,1.1,1
	c0.5,0.6,2.4,3.8,3.3,2c0.1-0.2,0.1-0.5,0.1-0.8c-0.1-2.5-1-5-2.4-7.1c-1.3-1.9-3.1-3.5-4-5.7c-0.5-1.3-0.6-3.6,1.2-3.6
	c1.5,0,2.6,1.7,3.7,2.4c0.9,0.5,2.4,0.4,2.7-0.6c0.1-0.4,0-0.8-0.1-1.2c-0.7-2.3-2-4.6-3.7-6.3c-1.6-1.6-3-2.6-4-4.9
	c-0.4-0.9-0.5-2.1,0.3-2.6c0.6-0.4,1.4-0.1,2,0.4c0.5,0.5,0.9,1.1,1.5,1.6c0.5,0.5,1.4,0.8,2,0.4c0.5-0.3,0.7-1,0.6-1.5
	c-0.1-0.6-0.4-1.1-0.7-1.6c-1-1.6-2.1-3.1-3.1-4.8c-0.7-1.2-2.1-2.8-2.3-4.2c-0.1-0.5,0-1.1,0.5-1.4c0.3-0.2,0.7,0,1,0.2
	c0.3,0.2,0.5,0.5,0.8,0.8c0.5,0.5,1.2,0.9,2,1c0.5,0.1,1,0,1.4-0.4c0.3-0.3,0.3-0.7,0.3-1.2c-0.1-1.7-1.5-3-2.7-4.1
	c-0.8-0.7-4.7-5.5-2.9-6.5c1.4-0.8,3.2,3.6,4.7,1.8c0.4-0.5,0.4-1.2,0.1-1.8c-0.2-0.7-0.7-1.3-1.2-1.7c-0.7-0.6-1.5-0.9-2.2-1.3
	c-1-0.6-3.4-3.8-1.6-4.6c1.3-0.6,2.3,1.4,3.2,1.9c0.3,0.2,0.8,0.2,1,0c0,0,0,0,0-0.1c0.1-0.1,0.1-0.3,0.1-0.4c0.1-2.1-0.9-4-2.1-5.8
	c-1.1-1.8-2.4-3.5-2.8-5.6c-0.1-0.4-0.1-0.7,0.1-1c0.1-0.3,0.5-0.6,0.9-0.5c0.6,0.1,0.2,1.2,0.7,1.6c0.5,0.4,1.3,0.3,1.8,0
	c0.8-0.5,1-1.6,0.7-2.5c-0.3-0.9-0.9-1.6-1.4-2.4c-1.7-2.4-2.8-5.2-3.4-8c-0.6-2.8-0.1-5.5-0.2-8.3c0-0.7,0.1-4.5-1.1-4.4
	c-1.2,0.1-1.3,3.3-1.3,4.1c-0.4,6.3-0.9,13.1-5,18c-0.5,0.6-1.1,1.3-1.2,2.1c-0.1,0.8,0.3,1.6,1,2c0.7,0.4,1.6,0.2,2.2-0.4
	c0.4-0.4,0.8-1.4,1.5-0.7c0.3,0.3,0.3,0.7,0.4,1.1c0.2,2.6-1.1,5.1-2.4,7.3c-1.4,2.2-3,4.3-3.8,6.8c-0.3,0.8-0.4,1.6-0.2,2.4
	c0.2,0.8,0.9,1.5,1.7,1.6c1.4,0.1,1.6-1.2,2.6-1.7c0.5-0.3,1.2-0.3,1.6,0.2c0.3,0.3,0.3,0.7,0.3,1.1c-0.1,1.9-1.8,3.3-3.2,4.7
	c-1.6,1.6-2.9,3.6-3.7,5.7c-0.2,0.6-0.4,1.3-0.4,1.9c0,0.7,0.3,1.3,0.9,1.7c0.9,0.6,2.1,0.2,2.8-0.5c0.7-0.7,1.2-1.7,1.7-2.6
	c0.3-0.5,0.7-1,1.2-1.2c2.3-0.5,0.7,3.4,0.2,4c-2.7,3.6-6.5,7.1-6.3,11.5c0,0.7,0.3,1.5,0.9,1.8c1,0.4,1.9-0.5,2.5-1.4
	c0.4-0.5,3-5.9,3.3-3.1c0.3,2.6-1.7,3.9-3.1,5.6c-1.7,2-2.9,4.3-3.6,6.8c-0.3,1.1-0.3,2.5,0.7,2.9c1.6,0.6,2.1-1.5,3.1-2.2
	c1-0.8,2.4-0.4,2.6,0.9c0.2,0.8-0.1,1.6-0.5,2.3c-1.7,2.9-5.1,4.7-6.3,7.9c-0.3,0.9-0.4,2,0.4,2.6c1.2,0.9,2.4-0.7,3.3-1.4
	c0.3-0.2,0.6-0.5,0.9-0.5c0.4,0,0.7,0.4,0.8,0.7c0.1,0.4,0,0.8-0.1,1.2c-1,3.3-3.9,4.7-5.8,7.3c-0.6,0.9-1.1,1.8-1.4,2.8H251
	l-64.4-20.9h-3.7c-1.2-1.5-2-3.2-1.7-5c1.9,0.2,2.4,3.4,4.3,3.3c1.4,0,1.9-1.9,1.6-3.2c-0.6-2.9-3-4.9-4.8-7.1
	c-0.8-1.1-1.6-2.2-1.9-3.5c-0.1-0.3-0.5-1.5-0.3-1.8c0.5-0.7,1.2,0.2,1.4,0.6c0.4,0.6,0.8,1.3,1.2,1.9c0.3,0.5,0.7,0.9,1.2,1.2
	c0.5,0.3,1.1,0.4,1.6,0.2c0.7-0.3,1-1.1,1.1-1.9c0.1-1.2-0.4-2.3-1.1-3.3c-0.7-1-1.5-1.8-2.3-2.7c-0.6-0.6-1.2-1.3-1.7-2
	c-0.6-0.7-3-5.3-1.2-5.9c0.4-0.1,0.9,0.1,1.3,0.4c0.3,0.3,0.6,0.7,0.9,1.1c0.7,0.8,1.8,1.3,2.9,1.2c0.3,0,0.6-0.1,0.8-0.2
	c0.4-0.3,0.5-0.7,0.5-1.2c0-1.4-0.8-2.6-1.6-3.8c-0.9-1.2-1.5-2.5-2.3-3.8c-0.9-1.5-1.9-2.7-2.1-4.5c1.6-1.5,3.2,3.4,5.3,2.7
	c1.5-0.5,0.8-2.7-0.1-4c-2-3-3.3-6.3-4.1-9.8c-0.4-1.7-0.7-3.5-0.9-5.3c-0.1-0.7,0-4.5-1.6-3.5c-0.5,0.3-0.6,0.9-0.8,1.5
	c-0.7,2.9-1.3,5.9-2.1,8.8c-0.6,2.3-0.9,5.5-2.4,7.4c-0.8,1.1-1.8,1.9-1.7,3.4c0,0.1,0,0.2,0.1,0.3c0.1,0.2,0.3,0.2,0.4,0.3
	c1.7,0.6,2.9-0.7,4-1.8c0.1-0.1,0.3-0.3,0.5-0.4c0.2-0.1,0.4-0.1,0.6,0.1c0.4,0.4,0,1.5,0,2c-0.2,1.5-0.9,2.9-1.8,4.1
	c-1.4,2-3.3,3.6-4.5,5.8c-0.2,0.4-0.4,0.9-0.4,1.4c0.1,1,1,1.5,1.9,1.5c1.2,0.1,1.8-0.8,2.3-1.8c0.3-0.7,0.6-1.4,1.2-1.7
	c0.2-0.1,0.4-0.1,0.5,0c0,0.1,0,0.1,0.1,0.2c0.1,1.4-0.2,2.8-0.8,4.1c-0.6,1.3-1.6,2.2-2.7,3.2c-0.6,0.5-1.1,1.1-1.5,1.8
	c-0.3,0.5-0.5,1.1-0.4,1.6c0.1,0.6,0.4,1.1,0.9,1.3c0.7,0.3,1.6-0.1,2.1-0.7c0.3-0.3,1.8-2.8,2.4-1.8c0.2,0.3-0.2,1.7-0.3,2.1
	c-0.3,1.3-0.7,2.6-1.2,3.9c-1,2.6-2.6,4.9-4.5,6.9c-0.8,0.8-1.8,1.8-1.7,3c0.1,1.6,2.1,2.3,3.4,1.9c1.9-0.5,1.8-2.5,3.2-3.5
	c0.1-0.1,0.2-0.1,0.3-0.1c0.3,0,0.3,0.4,0.3,0.7c-0.3,1.5-0.7,3-1.3,4.3h-10.2c0-0.2,0-0.4,0-0.6c-0.3-2.2-1.3-4.3-2.9-5.8
	c-0.8-0.8-1.8-1.5-2.6-2.4c-0.5-0.6-2.7-4.3-0.5-4.2c0.3,0,0.5,0.2,0.8,0.4c0.5,0.5,0.9,1.2,1.4,1.7c0.5,0.5,1.3,0.9,2,0.6
	c0.9-0.4,0.9-1.8,0.6-2.8c-0.7-2.1-1.8-3.9-3.2-5.6c-1.3-1.5-3.4-3.1-2.7-5.3c0.1-0.3,0.2-0.6,0.5-0.7c0.4-0.3,1-0.3,1.4,0
	c0.4,0.2,0.8,0.6,1.1,1c0.5,0.6,2.4,3.8,3.3,2c0.1-0.2,0.1-0.5,0.1-0.8c-0.1-2.5-1-5-2.4-7.1c-1.3-1.9-3.1-3.5-4-5.7
	c-0.5-1.3-0.6-3.6,1.2-3.6c1.5,0,2.6,1.7,3.7,2.4c0.9,0.5,2.4,0.4,2.7-0.6c0.1-0.4,0-0.8-0.1-1.2c-0.7-2.3-2-4.6-3.7-6.3
	c-1.6-1.6-3-2.6-4-4.9c-0.4-0.9-0.5-2.1,0.3-2.6c0.6-0.4,1.4-0.1,2,0.4c0.5,0.5,0.9,1.1,1.5,1.6c0.5,0.5,1.4,0.8,2,0.4
	c0.5-0.3,0.7-1,0.6-1.5c-0.1-0.6-0.4-1.1-0.7-1.6c-1-1.6-2.1-3.1-3.1-4.8c-0.7-1.2-2.1-2.8-2.3-4.2c-0.1-0.5,0-1.1,0.5-1.4
	c0.3-0.2,0.7,0,1,0.2c0.3,0.2,0.5,0.5,0.8,0.8c0.5,0.5,1.2,0.9,2,1c0.5,0.1,1,0,1.4-0.4c0.3-0.3,0.3-0.7,0.3-1.2
	c-0.1-1.7-1.5-3-2.7-4.1c-0.8-0.7-4.7-5.5-2.9-6.5c1.4-0.8,3.2,3.6,4.7,1.8c0.4-0.5,0.4-1.2,0.1-1.8c-0.2-0.7-0.7-1.3-1.2-1.7
	c-0.7-0.6-1.5-0.9-2.2-1.3c-1-0.6-3.4-3.8-1.6-4.6c1.3-0.6,2.3,1.4,3.2,1.9c0.3,0.2,0.8,0.2,1,0c0,0,0,0,0-0.1
	c0.1-0.1,0.1-0.3,0.1-0.4c0.1-2.1-0.9-4-2.1-5.8c-1.1-1.8-2.4-3.5-2.8-5.6c-0.1-0.4-0.1-0.7,0.1-1c0.1-0.3,0.5-0.6,0.9-0.5
	c0.6,0.1,0.2,1.2,0.7,1.6c0.5,0.4,1.3,0.3,1.8,0c0.8-0.5,1-1.6,0.7-2.5c-0.3-0.9-0.9-1.6-1.4-2.4c-1.7-2.4-2.8-5.2-3.4-8
	c-0.6-2.8-0.1-5.5-0.2-8.3c0-0.7,0.1-4.5-1.1-4.4c-1.2,0.1-1.3,3.3-1.3,4.1c-0.4,6.3-0.9,13.1-5,18c-0.5,0.6-1.1,1.3-1.2,2.1
	c-0.1,0.8,0.3,1.6,1,2c0.7,0.4,1.6,0.2,2.2-0.4c0.4-0.4,0.8-1.4,1.5-0.7c0.3,0.3,0.3,0.7,0.4,1.1c0.2,2.6-1.1,5.1-2.4,7.3
	c-1.4,2.2-3,4.3-3.8,6.8c-0.3,0.8-0.4,1.6-0.2,2.4c0.2,0.8,0.9,1.5,1.7,1.6c1.4,0.1,1.6-1.2,2.6-1.7c0.5-0.3,1.2-0.3,1.6,0.2
	c0.3,0.3,0.3,0.7,0.3,1.1c-0.1,1.9-1.8,3.3-3.2,4.7c-1.6,1.6-2.9,3.6-3.7,5.7c-0.2,0.6-0.4,1.3-0.4,1.9c0,0.7,0.3,1.3,0.9,1.7
	c0.9,0.6,2.1,0.2,2.8-0.5c0.7-0.7,1.2-1.7,1.7-2.6c0.3-0.5,0.7-1,1.2-1.2c2.3-0.5,0.7,3.4,0.2,4c-2.7,3.6-6.5,7.1-6.3,11.5
	c0,0.7,0.3,1.5,0.9,1.8c1,0.4,1.9-0.5,2.5-1.4c0.4-0.5,3-5.9,3.3-3.1c0.3,2.6-1.7,3.9-3.1,5.6c-1.7,2-2.9,4.3-3.6,6.8
	c-0.3,1.1-0.3,2.5,0.7,2.9c1.6,0.6,2.1-1.5,3.1-2.2c1-0.8,2.4-0.4,2.6,0.9c0.2,0.8-0.1,1.6-0.5,2.3c-1.7,2.9-5.1,4.7-6.3,7.9
	c-0.3,0.9-0.4,2,0.4,2.6c1.2,0.9,2.4-0.7,3.3-1.4c0.3-0.2,0.6-0.5,0.9-0.5c0.4,0,0.7,0.4,0.8,0.7c0.1,0.4,0,0.8-0.1,1.2
	c-1,3.3-3.9,4.7-5.8,7.3c-0.9,1.1-1.4,2.5-1.7,3.9c-0.1,0.7-0.1,1.4,0.1,2.1c0.3,0.6,0.9,1.2,1.6,1.2c0.9,0,1.5-0.9,1.9-1.7
	c0.3-0.8,0.5-1.7,1.1-2.4c0.8-0.8,2.4-0.7,2.5,0.6c0.1,1-1.5,2.3-2,3.1c-2,3.1-3.9,6.2-5.7,9.4H85c-0.1-1.8-1.9-3.7-3.4-5.2
	c-2.3-2.4-4-5.4-4.9-8.6c1.1,1.4,2.3,2.6,3.7,3.6c1,0.7,2.1,0.6,2.5-0.7c0.2-0.6,0.1-1.1,0.1-1.7c-0.1-1.2-0.3-2.5-0.8-3.6
	c-0.9-2-2.6-3.4-3.9-5.1c-1.4-1.6-2.5-3.8-2.1-5.9c0.1-0.3,0.2-0.7,0.5-0.8c0.5-0.2,1.1,0.2,1.3,0.6c0.6,1,0.6,1.8,1.9,1.4
	c0.9-0.3,1.6-1.4,1.5-2.3c0-0.8-0.4-1.5-0.8-2.1c-2-3.5-6-6.6-5.4-11.1c0-0.3,0.1-0.7,0.4-0.9c0.6-0.5,1.5,0.2,1.9,0.8
	c0.4,0.7,1.1,1.5,1.9,1.2c0.7-0.3,0.7-1.3,0.5-2c-0.9-3.4-3-6.3-4.4-9.4c-0.4-0.8-0.7-1.7-0.6-2.6c0-0.2,0.1-0.3,0.2-0.5
	c0.2-0.3,0.8-0.3,1.1,0c0.7,0.6,0.8,1.9,2,2c1.1,0.1,1.9-1.1,1.9-2.3c-0.1-1.1-0.8-2.1-1.4-3c-4.4-6.9-4.3-16.1-7-23.7
	c-0.1-0.3-0.2-0.6-0.5-0.8c-0.5-0.4-1.3,0-1.5,0.6c-0.3,0.6-0.2,1.2-0.1,1.8c0.6,5.2-0.4,10.5-1.3,15.7c-0.4,2-0.7,3.9-1.4,5.8
	c-0.9,2.4-2.2,4.7-3.2,7.1c-0.5,1.2-0.6,3,0.6,3.4c1.5,0.5,2.7-2,4.3-1.9c2.7,0.1,0.6,3.7,0.1,4.7c-1.2,2.4-3.1,4.6-3.2,7.4
	c0,0.4,0,0.8,0.2,1.1c1.4,2.2,3.4-1.3,4-2.2c0.3-0.4,0.9-0.7,1.3-0.4c0.4,0.3,0.4,0.8,0.3,1.3c-0.6,5.5-6.3,8.9-7.8,14.2
	c-0.2,0.7-0.3,1.4,0,2c0.7,1.4,2.9,1,4.1-0.1c0.8-0.8,1.3-1.8,2.1-2.6c0.8-0.8,2.3-1.2,1.9,0.6c-0.1,0.6-0.6,1.1-1,1.6
	c-1.2,1.4-2.5,2.7-3.8,4c-0.7,0.6-1.4,1.3-2,2c-0.7,0.9-1,2.1-1.4,3.2c-0.3,1-0.6,2.2,0.2,2.9c0.5,0.4,1.2,0.4,1.8,0.2
	c0.6-0.3,1-0.7,1.5-1.2c0.7-0.8,1.3-1.7,1.8-2.6c0.3-0.2,0.8,0,0.9,0.3c0.2,0.3,0.1,0.7,0.1,1.1c-0.5,3.1-2,4.5-4.1,6.4
	c-2,1.8-4.3,3.7-5.1,6.2h-6.8c-0.2-0.3-0.4-0.5-0.6-0.7c-1.8-2.1-4-4.5-3.5-7.3c1.9,0.2,2.4,3.4,4.3,3.3c1.4,0,1.9-1.9,1.6-3.2
	c-0.6-2.9-3-4.9-4.8-7.1c-0.8-1.1-1.6-2.2-1.9-3.5c-0.1-0.3-0.5-1.5-0.3-1.8c0.5-0.7,1.2,0.2,1.4,0.6c0.4,0.6,0.8,1.3,1.2,1.9
	c0.3,0.5,0.7,0.9,1.2,1.2c0.5,0.3,1.1,0.4,1.6,0.2c0.7-0.3,1-1.1,1.1-1.9c0.1-1.2-0.4-2.3-1.1-3.3c-0.7-1-1.5-1.8-2.3-2.7
	c-0.6-0.6-1.2-1.3-1.7-2c-0.6-0.7-3-5.3-1.2-5.9c0.4-0.1,0.9,0.1,1.3,0.4c0.3,0.3,0.6,0.7,0.9,1.1c0.7,0.8,1.8,1.3,2.9,1.2
	c0.3,0,0.6-0.1,0.8-0.2c0.4-0.3,0.5-0.7,0.5-1.2c0-1.4-0.8-2.6-1.6-3.8c-0.9-1.2-1.5-2.5-2.3-3.8c-0.9-1.5-1.9-2.7-2.1-4.5
	c1.6-1.5,3.2,3.4,5.3,2.7c1.5-0.5,0.8-2.7-0.1-4c-2-3-3.3-6.3-4.1-9.8c-0.4-1.7-0.7-3.5-0.9-5.3c-0.1-0.7,0-4.5-1.6-3.5
	c-0.5,0.3-0.6,0.9-0.8,1.5c-0.7,2.9-1.3,5.9-2.1,8.8c-0.6,2.3-0.9,5.5-2.4,7.4c-0.8,1.1-1.8,1.9-1.7,3.4c0,0.1,0,0.2,0.1,0.3
	c0.1,0.2,0.3,0.2,0.4,0.3c1.7,0.6,2.9-0.7,4-1.8c0.1-0.1,0.3-0.3,0.5-0.4c0.2-0.1,0.4-0.1,0.6,0.1c0.4,0.4,0,1.5,0,2
	c-0.2,1.5-0.9,2.9-1.8,4.1c-1.4,2-3.3,3.6-4.5,5.8c-0.2,0.4-0.4,0.9-0.4,1.4c0.1,1,1,1.5,1.9,1.5c1.2,0.1,1.8-0.8,2.3-1.8
	c0.3-0.7,0.5-1.4,1.2-1.7c0.2-0.1,0.4-0.1,0.5,0c0,0.1,0,0.1,0.1,0.2c0.1,1.4-0.2,2.8-0.8,4.1c-0.6,1.3-1.6,2.2-2.7,3.2
	c-0.6,0.5-1.1,1.1-1.5,1.8c-0.3,0.5-0.5,1.1-0.4,1.6c0.1,0.6,0.4,1.1,0.9,1.3c0.7,0.3,1.6-0.1,2.1-0.7c0.3-0.3,1.8-2.8,2.4-1.8
	c0.2,0.3-0.2,1.7-0.3,2.1c-0.3,1.3-0.7,2.6-1.2,3.9c-1,2.6-2.6,4.9-4.5,6.9c-0.8,0.8-1.8,1.8-1.7,3c0.1,1.6,2.1,2.3,3.4,1.9
	c1.9-0.5,1.8-2.5,3.2-3.5c0.1-0.1,0.2-0.1,0.3-0.1c0.3,0,0.3,0.4,0.3,0.7c-0.4,2.6-1.5,5.1-3,7.3h-9.9c0.3-0.4,0.5-0.9,0.5-1.4
	c0.1-1.2-0.4-2.3-1.1-3.3c-0.7-1-1.5-1.8-2.3-2.7c-0.6-0.6-1.2-1.3-1.7-2c-0.6-0.7-3-5.3-1.2-5.9c0.4-0.1,0.9,0.1,1.3,0.4
	c0.3,0.3,0.6,0.7,0.9,1.1c0.7,0.8,1.8,1.3,2.9,1.2c0.3,0,0.6-0.1,0.8-0.2c0.4-0.3,0.5-0.7,0.5-1.2c0-1.4-0.8-2.6-1.6-3.8
	c-0.9-1.2-1.5-2.5-2.3-3.8c-0.9-1.5-1.9-2.7-2.1-4.5c1.6-1.5,3.2,3.4,5.3,2.7c1.5-0.5,0.8-2.7-0.1-4c-2-3-3.3-6.3-4.1-9.8
	c-0.4-1.7-0.7-3.5-0.9-5.3c-0.1-0.7,0-4.5-1.6-3.5c-0.5,0.3-0.6,0.9-0.8,1.5c-0.7,2.9-1.3,5.9-2.1,8.8c-0.6,2.3-0.9,5.5-2.4,7.4
	c-0.8,1.1-1.8,1.9-1.7,3.4c0,0.1,0,0.2,0.1,0.3c0.1,0.2,0.3,0.2,0.4,0.3c1.7,0.6,2.9-0.7,4-1.8c0.1-0.1,0.3-0.3,0.5-0.4
	c0.2-0.1,0.4-0.1,0.6,0.1c0.4,0.4,0,1.5,0,2c-0.2,1.5-0.9,2.9-1.8,4.1c-1.4,2-3.3,3.6-4.5,5.8c-0.2,0.4-0.4,0.9-0.4,1.4
	c0.1,1,1,1.5,1.9,1.5c1.2,0.1,1.8-0.8,2.3-1.8c0.3-0.7,0.5-1.4,1.2-1.7c0.2-0.1,0.4-0.1,0.5,0c0,0.1,0,0.1,0.1,0.2
	c0.1,1.4-0.2,2.8-0.8,4.1c-0.6,1.3-1.6,2.2-2.7,3.2c-0.6,0.5-1.1,1.1-1.5,1.8c-0.3,0.5-0.5,1.1-0.4,1.6c0.1,0.6,0.4,1.1,0.9,1.3
	c0.7,0.3,1.6-0.1,2.1-0.7c0.3-0.3,1.8-2.8,2.4-1.8c0.2,0.3-0.2,1.7-0.3,2.1c-0.2,1.1-0.5,2.1-0.9,3.2H0V422h800l139-38.9
	L775.6,354.1z M160,254.5c0.4,0.3,0.8,0.7,1.2,1.1h-1.9C159,254.9,158.8,253.7,160,254.5z M150.6,251.8c0,1.3-0.2,2.6-0.7,3.8h-1.5
	C148.9,254.2,149.5,252.7,150.6,251.8z M70.6,254.1c0,0.5-0.2,1-0.3,1.5h-3.7C67.7,254.2,69.2,253.2,70.6,254.1z M26.2,254
	c-0.1-0.3-0.5-1.5-0.3-1.8c0.5-0.7,1.2,0.2,1.4,0.6c0.4,0.6,0.8,1.3,1.2,1.9c0.3,0.3,0.5,0.7,0.9,1h-2.5
	C26.6,255.1,26.3,254.6,26.2,254z M301.2,276.5h-1.9C299.9,276.1,300.7,276.1,301.2,276.5z M769.6,350.8c0.1-0.1,0.2-0.1,0.3-0.1
	c0.3,0,0.3,0.4,0.3,0.7c-0.1,0.7-0.3,1.4-0.5,2.1l-1.8-0.2C768.4,352.4,768.7,351.4,769.6,350.8z"/>
<path id="XMLID_67_" d="M720.6,384.6c3-3.5,5.9-7.1,7.5-11.5c1.3-3.6,1.6-7.6,0.8-11.4c-0.4-1.7-1-3.5-2.3-4.6
	c-3.2,5.2-6.1,11-7.3,16.9c-0.8-11.5-0.8-23-0.2-34.5c-2.5,11.6-2.8,23.7-1,35.5c-0.4-0.8-0.9-1.5-1.4-2.2c-2.3-2.9-6-4.7-9.7-4.8
	c0.7,3.5,1.5,7,3.1,10.2c1.5,2.8,3.8,5.2,6.7,6.5h-33.5l-2.5-9.1h-7l-6.7-6.7h-21.2l-5.2,5.2h-7.8l-4.4,10.6h-28.3
	c-0.2-0.8-0.4-1.6-0.7-2.4c-0.1-0.2-0.2-0.4-0.4-0.6c-0.7-0.4-1.4,0.8-2.1,0.6c0.2-3.9-3.3-7.7-7.2-7.7c-0.4,3.5,0.4,7,2.1,10.1
	h-49.4l-12,4.1l-13.1-4.1h-170l-27.9-4.6h-57.2l-7.4,4.6h-72c3.1-3.6,6.2-7.2,9.3-10.8c-4,2.1-6.9,5.8-9.4,9.6
	c3.3-7.6,3.5-16.4,0.6-24.1c-3.4,3.5-5,8.5-5.1,13.4c0,1.4,0,2.8,0.2,4.3c-2.1-4.4-6.1-7.9-10.8-9.2c-0.2,3.9,0.6,8,2.8,11.3
	c1.6,2.5,4,4.5,6.7,5.6h-27l-4.1-19.2h-19.7v6.3h-18l-6.9,12.9H0v84.5h800v-84.5H720.6z M719.2,383.7c0.1,0.3,0.1,0.6,0.2,0.9h-0.8
	C718.9,384.4,719.1,384,719.2,383.7z"/>
<path id="XMLID_42_" d="M1516.3,384.5c3-3.5,5.9-7.1,7.5-11.5c1.3-3.6,1.6-7.6,0.8-11.4c-0.4-1.7-1-3.5-2.3-4.6
	c-3.2,5.2-6.1,11-7.3,16.9c-0.8-11.5-0.8-23-0.2-34.5c-2.5,11.6-2.8,23.7-1,35.5c-0.4-0.8-0.9-1.5-1.4-2.2c-2.3-2.9-6-4.7-9.7-4.8
	c0.7,3.5,1.5,7,3.1,10.2c1.5,2.8,3.8,5.2,6.7,6.5H1479l-2.5-9.1h-7l-6.7-6.7h-21.2l-5.2,5.2h-7.8l-4.4,10.6h-28.3
	c-0.2-0.8-0.4-1.6-0.7-2.4c-0.1-0.2-0.2-0.4-0.4-0.6c-0.7-0.4-1.4,0.8-2.1,0.6c0.2-3.9-3.3-7.7-7.2-7.7c-0.4,3.5,0.4,7,2.1,10.1
	h-49.4l-12,4.1l-13.1-4.1h-170l-27.9-4.6H1058l-7.4,4.6h-72c3.1-3.6,6.2-7.2,9.3-10.8c-4,2.1-6.9,5.8-9.4,9.6
	c3.3-7.6,3.5-16.4,0.6-24.1c-3.4,3.5-5,8.5-5.1,13.4c0,1.4,0,2.8,0.2,4.3c-2.1-4.4-6.1-7.9-10.8-9.2c-0.2,3.9,0.6,8,2.8,11.3
	c1.6,2.5,4,4.5,6.7,5.6h-27l-4.1-19.2H922v6.3h-18l-6.9,12.9H795.7V469h800v-84.5H1516.3z M1514.9,383.6c0.1,0.3,0.1,0.6,0.2,0.9
	h-0.8C1514.6,384.3,1514.8,384,1514.9,383.6z"/>
<g>
	<path class="st3" d="M1600,157.9"/>
</g>
</svg>
